<?xml version="1.0" ?>
<svg xmlns="http://www.w3.org/2000/svg" version="1.1" width="1024" height="1024">
	<g fill="none" stroke-linecap="butt">
		<path stroke="#D4312CB9" d="M 503.00 222.00 L 503.00 222.00 C 503.00 222.00 502.10 222.90 501.00 224.00 C 499.90 225.10 498.55 226.00 497.00 226.00" vector-effect="non-scaling-stroke"/>
		<path stroke="#D2413D4A" d="M 533.00 230.00 L 533.00 230.00 C 533.00 230.00 530.30 228.43 527.00 226.50 C 523.70 224.57 521.00 222.78 521.00 222.00" vector-effect="non-scaling-stroke"/>
		<path stroke="#D72D28C5" d="M 497.00 226.00 L 497.00 226.00 C 497.00 226.00 495.43 227.12 493.50 228.50 C 491.57 229.88 489.77 231.00 489.00 231.00" vector-effect="non-scaling-stroke"/>
		<path stroke="#D5423E4C" d="M 600.00 270.00 L 600.00 270.00 C 600.00 270.00 597.30 268.43 594.00 266.50 C 590.70 264.57 578.55 257.38 567.00 250.50 C 555.45 243.62 543.75 236.43 536.00 231.00" vector-effect="non-scaling-stroke"/>
		<path stroke="#D639347C" d="M 486.00 232.00 L 486.00 232.00 C 486.00 232.00 484.20 233.35 482.00 235.00 C 479.80 236.65 474.85 239.80 464.00 246.00" vector-effect="non-scaling-stroke"/>
		<path stroke="#D53B3677" d="M 463.00 246.00 L 463.00 246.00 C 463.00 246.00 460.30 247.80 457.00 250.00 C 453.70 252.20 449.20 255.12 447.00 256.50 C 444.80 257.88 440.30 260.57 431.00 266.00" vector-effect="non-scaling-stroke"/>
		<path stroke="#D738328E" d="M 430.00 266.00 L 430.00 266.00 C 430.00 266.00 430.00 266.23 430.00 266.50 C 430.00 266.77 426.85 268.80 416.00 275.00" vector-effect="non-scaling-stroke"/>
		<path stroke="#D62F28C0" d="M 415.00 275.00 L 415.00 275.00 C 415.00 275.00 414.10 275.90 413.00 277.00 C 411.90 278.10 410.55 279.00 409.00 279.00" vector-effect="non-scaling-stroke"/>
		<path stroke="#D73A3488" d="M 408.00 279.00 L 408.00 279.00 C 408.00 279.00 406.88 280.12 405.50 281.50 C 404.12 282.88 402.55 284.00 402.00 284.00 C 401.45 284.00 394.02 288.27 385.50 293.50 C 376.98 298.73 369.77 303.00 369.50 303.00 C 369.23 303.00 367.43 304.12 365.50 305.50 C 363.57 306.88 361.55 308.00 361.00 308.00 C 360.45 308.00 357.75 309.57 355.00 311.50 C 352.25 313.43 349.55 315.00 348.00 315.00" vector-effect="non-scaling-stroke"/>
		<path stroke="#201F21FE" d="M 511.00 416.00 L 511.00 416.00 C 511.00 416.00 520.67 409.93 532.50 402.50 C 544.33 395.07 572.00 377.98 594.00 364.50 C 616.00 351.02 643.00 334.38 674.00 315.00" vector-effect="non-scaling-stroke"/>
		<path stroke="#D236309C" d="M 340.00 320.00 L 340.00 320.00 C 340.00 320.00 339.10 320.68 338.00 321.50 C 336.90 322.32 333.75 324.35 326.00 329.00" vector-effect="non-scaling-stroke"/>
		<path stroke="#D02B26B5" d="M 320.00 332.00 L 320.00 332.00 C 320.00 332.00 320.00 332.23 320.00 332.50 C 320.00 332.77 319.10 333.45 316.00 335.00" vector-effect="non-scaling-stroke"/>
		<path stroke="#CC2422D6" d="M 315.00 335.00 L 315.00 335.00 C 315.00 335.00 315.00 335.23 315.00 335.50 C 315.00 335.77 314.10 336.45 311.00 338.00" vector-effect="non-scaling-stroke"/>
		<path stroke="#404042FE" d="M 550.00 429.00 L 550.00 429.00 C 550.00 429.00 552.02 427.65 554.50 426.00 C 556.98 424.35 580.38 409.95 606.50 394.00 C 632.62 378.05 658.73 362.07 675.00 352.00" vector-effect="non-scaling-stroke"/>
		<path stroke="#CB2520CD" d="M 310.00 338.00 L 310.00 338.00 C 310.00 338.00 310.00 338.23 310.00 338.50 C 310.00 338.77 309.10 339.45 306.00 341.00" vector-effect="non-scaling-stroke"/>
		<path stroke="#D23E396A" d="M 302.00 343.00 L 302.00 343.00 C 302.00 343.00 300.43 344.12 298.50 345.50 C 296.57 346.88 288.93 351.60 268.00 364.00" vector-effect="non-scaling-stroke"/>
		<path stroke="#262629F8" d="M 759.00 365.00 L 759.00 365.00 C 759.00 365.00 757.65 364.77 756.00 364.50 C 754.35 364.23 752.55 363.10 751.00 360.00" vector-effect="non-scaling-stroke"/>
		<path stroke="#19191AFC" d="M 763.00 375.00 L 763.00 375.00 C 763.00 375.00 763.23 375.00 764.00 375.00" vector-effect="non-scaling-stroke"/>
		<path stroke="#19191AFC" d="M 765.00 374.00 L 765.00 374.00 C 765.00 374.00 765.45 373.55 766.00 373.00 C 766.67 372.33 766.17 371.33 764.50 370.00 C 763.12 368.90 762.00 367.77 762.00 367.00" vector-effect="non-scaling-stroke"/>
		<path stroke="#2E2E2FFE" d="M 765.00 374.00 L 765.00 374.00 C 765.00 374.00 765.00 374.23 765.00 374.50 C 765.00 374.77 764.77 375.00 764.00 375.00" vector-effect="non-scaling-stroke"/>
		<path stroke="#2E2E2FFE" d="M 764.00 375.00 L 764.00 375.00 C 764.00 375.00 764.00 374.77 764.00 374.50 C 764.00 374.23 764.23 374.00 765.00 374.00" vector-effect="non-scaling-stroke"/>
		<path stroke="#2E2E2FFE" d="M 763.00 375.00 L 763.00 375.00 C 763.00 375.00 763.90 375.00 765.00 375.00 C 766.88 375.00 767.00 375.67 767.00 386.50 C 767.00 392.83 767.45 398.45 769.00 400.00" vector-effect="non-scaling-stroke"/>
		<path stroke="#2E2E2FFE" d="M 614.00 466.00 L 614.00 466.00 C 614.00 466.00 614.23 466.00 614.50 466.00 C 614.77 466.00 619.73 463.07 625.50 459.50 C 631.27 455.93 650.17 444.23 667.50 433.50 C 684.83 422.77 710.70 406.80 725.00 398.00 C 739.30 389.20 753.70 380.43 763.00 375.00" vector-effect="non-scaling-stroke"/>
		<path stroke="#AF1A17F7" d="M 248.00 377.00 L 248.00 377.00 C 248.00 377.00 248.00 377.68 248.00 378.50 C 248.00 379.32 248.22 380.00 249.00 380.00" vector-effect="non-scaling-stroke"/>
		<path stroke="#D53934FE" d="M 249.00 380.00 L 249.00 380.00 C 249.00 380.00 258.45 385.62 270.00 392.50 C 281.55 399.38 301.35 411.30 314.00 419.00 C 326.65 426.70 352.98 442.45 372.50 454.00 C 392.02 465.55 407.77 475.45 407.50 476.00 C 407.23 476.55 407.00 490.27 407.00 506.50 C 407.00 524.50 407.39 536.58 409.00 539.00" vector-effect="non-scaling-stroke"/>
		<path stroke="#D53934FE" d="M 512.00 525.00 L 512.00 525.00 C 512.00 525.00 517.62 528.15 524.50 532.00 C 531.38 535.85 539.48 540.12 548.00 544.00" vector-effect="non-scaling-stroke"/>
		<path stroke="#D53934FE" d="M 609.00 578.00 L 609.00 578.00 C 609.00 578.00 609.23 578.00 609.50 578.00 C 609.77 578.00 610.00 578.45 610.00 580.00" vector-effect="non-scaling-stroke"/>
		<path stroke="#D53934FE" d="M 248.00 482.00 L 248.00 482.00 C 248.00 482.00 248.00 459.27 248.00 431.50 C 248.00 403.73 248.22 380.77 249.00 380.00" vector-effect="non-scaling-stroke"/>
		<path stroke="#B32121FE" d="M 508.00 417.00 L 508.00 417.00 C 508.00 417.00 508.00 416.77 508.00 416.50 C 508.00 416.23 508.23 416.00 509.00 416.00" vector-effect="non-scaling-stroke"/>
		<path stroke="#9C2121FE" d="M 509.00 416.00 L 509.00 416.00 C 509.00 416.00 509.23 416.00 510.00 416.00" vector-effect="non-scaling-stroke"/>
		<path stroke="#9C2121FE" d="M 511.00 524.00 L 511.00 524.00 C 511.00 524.00 511.23 524.00 511.50 524.00 C 511.77 524.00 512.00 524.23 512.00 525.00" vector-effect="non-scaling-stroke"/>
		<path stroke="#9C2121FE" d="M 512.00 525.00 L 512.00 525.00 C 512.00 525.00 511.10 525.67 510.00 526.50 C 508.90 527.33 489.10 539.25 466.00 553.00 C 442.90 566.75 421.52 579.35 418.50 581.00 C 414.20 583.35 412.57 583.78 411.00 583.00 C 409.09 582.05 409.00 581.00 409.00 539.00" vector-effect="non-scaling-stroke"/>
		<path stroke="#9C2121FE" d="M 409.00 539.00 L 409.00 539.00 C 409.00 539.00 409.00 525.05 409.00 477.00 L 419.00 471.00 C 424.50 467.70 446.77 454.20 508.00 417.00" vector-effect="non-scaling-stroke"/>
		<path stroke="#9C2121FE" d="M 508.00 417.00 L 508.00 417.00 C 508.00 417.00 508.23 417.00 508.50 417.00 C 508.77 417.00 509.00 416.77 509.00 416.00" vector-effect="non-scaling-stroke"/>
		<path stroke="#B32121FE" d="M 510.00 416.00 L 510.00 416.00 C 510.00 416.00 510.23 416.00 511.00 416.00" vector-effect="non-scaling-stroke"/>
		<path stroke="#B32121FE" d="M 511.00 416.00 L 511.00 416.00 C 511.00 416.00 511.00 416.23 511.00 416.50 C 511.00 416.77 511.00 441.07 511.00 524.00" vector-effect="non-scaling-stroke"/>
		<path stroke="#B32121FE" d="M 511.00 524.00 L 511.00 524.00 C 511.00 524.00 510.55 523.77 510.00 523.50 C 509.34 523.17 509.17 504.67 510.00 416.00" vector-effect="non-scaling-stroke"/>
		<path stroke="#4D4F51FE" d="M 550.00 429.00 L 550.00 429.00 C 550.00 429.00 560.12 434.85 572.50 442.00 C 584.88 449.15 595.67 455.45 596.50 456.00 C 597.33 456.55 601.60 459.02 614.00 466.00" vector-effect="non-scaling-stroke"/>
		<path stroke="#4D4F51FE" d="M 614.00 466.00 L 614.00 466.00 C 614.00 466.00 613.55 490.75 613.00 521.00 C 612.45 551.25 611.77 576.23 611.50 576.50 C 611.23 576.77 610.55 577.23 609.00 578.00" vector-effect="non-scaling-stroke"/>
		<path stroke="#4D4F51FE" d="M 609.00 578.00 L 609.00 578.00 C 609.00 578.00 608.33 577.55 607.50 577.00 C 606.67 576.45 595.88 570.38 583.50 563.50 C 571.12 556.62 558.08 549.42 548.00 544.00" vector-effect="non-scaling-stroke"/>
		<path stroke="#4D4F51FE" d="M 548.00 544.00 L 548.00 544.00 C 548.00 544.00 547.55 543.55 547.00 543.00 C 546.36 542.36 546.00 522.17 546.00 486.50 C 546.00 432.00 546.04 430.98 550.00 429.00" vector-effect="non-scaling-stroke"/>
		<path stroke="#161718FC" d="M 769.00 484.00 L 769.00 484.00 C 769.00 484.00 768.55 483.32 768.00 482.50 C 767.45 481.68 767.00 477.40 767.00 473.00 C 767.00 468.60 767.45 464.55 769.00 463.00" vector-effect="non-scaling-stroke"/>
		<path stroke="#313133FE" d="M 279.00 505.00 L 279.00 505.00 C 279.00 505.00 279.45 505.00 280.00 505.00 C 280.55 505.00 292.25 511.98 306.00 520.50 C 319.75 529.02 348.55 546.58 409.00 583.00" vector-effect="non-scaling-stroke"/>
		<path stroke="#313133FE" d="M 411.00 585.00 L 411.00 585.00 C 411.00 585.00 420.00 590.40 431.00 597.00 C 442.00 603.60 462.02 615.75 475.50 624.00 C 488.98 632.25 501.57 639.67 507.00 642.00" vector-effect="non-scaling-stroke"/>
		<path stroke="#151516FB" d="M 769.00 529.00 L 769.00 529.00 C 769.00 529.00 768.55 528.77 768.00 528.50 C 767.45 528.23 767.00 524.17 767.00 519.50 C 767.00 514.83 767.45 510.55 769.00 509.00" vector-effect="non-scaling-stroke"/>
		<path stroke="#474849FE" d="M 248.00 525.00 L 248.00 525.00 C 248.00 525.00 248.00 525.23 248.00 525.50 C 248.00 525.77 247.78 526.00 247.00 526.00" vector-effect="non-scaling-stroke"/>
		<path stroke="#636467FD" d="M 249.00 526.00 L 249.00 526.00 C 249.00 526.00 249.45 525.77 250.00 525.50 C 250.55 525.23 252.80 526.12 259.00 530.00" vector-effect="non-scaling-stroke"/>
		<path stroke="#474849FE" d="M 249.00 526.00 L 249.00 526.00 C 249.00 526.00 250.80 526.90 253.00 528.00 C 255.20 529.10 257.45 530.00 259.00 530.00" vector-effect="non-scaling-stroke"/>
		<path stroke="#474849FE" d="M 259.00 530.00 L 259.00 530.00 C 259.00 530.00 265.98 534.05 274.50 539.00 C 283.02 543.95 314.75 563.08 345.00 581.50 C 375.25 599.92 416.65 625.12 437.00 637.50 C 457.35 649.88 480.52 664.05 503.00 678.00 L 503.00 710.00" vector-effect="non-scaling-stroke"/>
		<path stroke="#474849FE" d="M 247.00 527.00 L 247.00 527.00 C 247.00 527.00 247.22 527.00 247.50 527.00 C 247.78 527.00 248.22 526.77 249.00 526.00" vector-effect="non-scaling-stroke"/>
		<path stroke="#161718FA" d="M 760.00 640.00 L 760.00 640.00 C 760.00 640.00 761.58 638.20 767.00 632.00 L 767.00 581.00 C 767.00 547.67 767.35 530.00 769.00 530.00" vector-effect="non-scaling-stroke"/>
		<path stroke="#121212FB" d="M 247.00 553.00 L 247.00 553.00 C 247.00 553.00 247.22 553.23 247.50 553.50 C 247.78 553.77 248.00 566.60 248.00 582.00 C 248.00 597.40 247.78 610.23 247.00 611.00" vector-effect="non-scaling-stroke"/>
		<path stroke="#202022FE" d="M 610.00 580.00 L 610.00 580.00 C 610.00 580.00 610.45 580.00 611.00 580.00 C 611.66 580.00 611.83 605.33 611.50 655.00 C 611.17 704.67 611.34 730.00 612.00 730.00 C 612.55 730.00 613.45 729.55 614.00 729.00 C 614.55 728.45 620.17 724.62 626.50 720.50 C 632.83 716.38 638.90 712.77 642.00 712.00" vector-effect="non-scaling-stroke"/>
		<path stroke="#202022FE" d="M 503.00 794.00 L 503.00 794.00 C 503.00 794.00 503.00 786.80 503.00 778.00 C 503.00 769.20 503.00 750.30 503.00 710.00" vector-effect="non-scaling-stroke"/>
		<path stroke="#202022FE" d="M 503.00 710.00 L 503.00 710.00 C 503.00 710.00 503.68 695.15 504.50 677.00 C 505.32 658.85 506.23 643.55 507.00 642.00" vector-effect="non-scaling-stroke"/>
		<path stroke="#202022FE" d="M 507.00 642.00 L 507.00 642.00 C 507.00 642.00 516.67 636.15 528.50 629.00 C 540.33 621.85 563.50 607.90 610.00 580.00" vector-effect="non-scaling-stroke"/>
		<path stroke="#9C2121FE" d="M 409.00 583.00 L 409.00 583.00 C 409.00 583.00 409.23 583.00 409.50 583.00 C 409.77 583.00 410.23 583.45 411.00 585.00" vector-effect="non-scaling-stroke"/>
		<path stroke="#9C2121FE" d="M 411.00 585.00 L 411.00 585.00 C 411.00 585.00 410.77 585.00 410.50 585.00 C 410.23 585.00 409.77 584.55 409.00 583.00" vector-effect="non-scaling-stroke"/>
		<path stroke="#1F1F1FFB" d="M 247.00 615.00 L 247.00 615.00 C 247.00 615.00 247.45 616.12 248.00 617.50 C 248.58 618.96 248.79 625.40 248.00 646.00" vector-effect="non-scaling-stroke"/>
		<path stroke="#141415FD" d="M 752.00 645.00 L 752.00 645.00 C 752.00 645.00 752.90 643.88 754.00 642.50 C 755.12 641.10 756.66 640.22 759.00 641.00" vector-effect="non-scaling-stroke"/>
		<path stroke="#1B1A1BF2" d="M 247.00 646.00 L 247.00 646.00 C 247.00 646.00 247.22 646.00 248.00 646.00" vector-effect="non-scaling-stroke"/>
		<path stroke="#1B1A1BF2" d="M 248.00 646.00 L 248.00 646.00 C 248.00 646.00 249.35 647.12 251.00 648.50 C 252.65 649.88 261.65 655.73 271.00 661.50 C 280.35 667.27 293.85 675.60 301.00 680.00 C 308.15 684.40 323.90 694.08 336.00 701.50 C 348.10 708.92 366.10 719.95 376.00 726.00 C 385.90 732.05 396.93 738.80 400.50 741.00 C 404.07 743.20 414.65 749.73 424.00 755.50 C 433.35 761.27 447.98 770.27 456.50 775.50 C 465.02 780.73 477.18 788.15 483.50 792.00 C 489.82 795.85 495.90 799.00 497.00 799.00 C 498.10 799.00 499.90 798.55 501.00 798.00 C 502.10 797.45 503.00 796.33 503.00 794.00" vector-effect="non-scaling-stroke"/>
		<path stroke="#1B1A1BF2" d="M 503.00 794.00 L 503.00 794.00 C 503.00 794.00 503.45 794.00 504.00 794.00 C 504.55 794.00 505.68 794.23 508.00 795.00" vector-effect="non-scaling-stroke"/>
		<path stroke="#141415FD" d="M 642.00 713.00 L 642.00 713.00 C 642.00 713.00 642.00 712.77 642.00 712.00" vector-effect="non-scaling-stroke"/>
		<path stroke="#141415FD" d="M 642.00 712.00 L 642.00 712.00 C 642.00 712.00 642.67 711.33 643.50 710.50 C 644.33 709.67 646.80 707.88 649.00 706.50 C 651.20 705.12 653.23 704.00 653.50 704.00 C 653.77 704.00 656.25 702.42 659.00 700.50 C 661.75 698.58 664.23 697.00 664.50 697.00 C 664.77 697.00 667.02 695.65 669.50 694.00 C 671.98 692.35 674.67 690.77 675.50 690.50 C 676.33 690.23 677.90 689.33 679.00 688.50 C 680.10 687.67 682.80 685.88 685.00 684.50 C 687.20 683.12 689.23 682.00 689.50 682.00 C 689.77 682.00 692.70 680.20 696.00 678.00 C 699.30 675.80 711.45 668.15 723.00 661.00 C 734.55 653.85 744.67 648.00 747.00 648.00" vector-effect="non-scaling-stroke"/>
		<path stroke="#2E2E2FFE" d="M 691.00 683.00 L 691.00 683.00 C 691.00 683.00 691.00 682.77 691.00 682.50 C 691.00 682.23 691.23 682.00 692.00 682.00" vector-effect="non-scaling-stroke"/>
		<path stroke="#2E2E2FFE" d="M 681.00 689.00 L 681.00 689.00 C 681.00 689.00 681.00 688.77 681.00 688.50 C 681.00 688.23 681.23 688.00 682.00 688.00" vector-effect="non-scaling-stroke"/>
		<path stroke="#0D0C0EFE" d="M 539.00 776.00 L 539.00 776.00 C 539.00 776.00 539.45 775.10 540.00 774.00 C 540.55 772.90 541.67 772.00 542.50 772.00 C 543.33 772.00 544.67 771.33 545.50 770.50 C 546.33 769.67 547.67 768.55 548.50 768.00 C 549.33 767.45 552.25 766.10 560.00 763.00" vector-effect="non-scaling-stroke"/>
		<path stroke="#202022FE" d="M 556.00 766.00 L 556.00 766.00 C 556.00 766.00 556.00 765.77 556.00 765.50 C 556.00 765.23 556.23 765.00 557.00 765.00" vector-effect="non-scaling-stroke"/>
		<path stroke="#0D0D0EFD" d="M 525.00 785.00 L 525.00 785.00 C 525.00 785.00 525.67 784.33 526.50 783.50 C 527.33 782.67 529.58 780.65 531.50 779.00 C 533.42 777.35 535.67 776.23 538.00 777.00" vector-effect="non-scaling-stroke"/>
		<path stroke="#1B1A1BF2" d="M 505.50 792.50 C 505.77 792.23 506.00 792.45 506.00 793.00 C 506.00 793.55 505.77 794.00 505.50 794.00 C 505.23 794.00 505.00 793.77 505.00 793.50 C 505.00 793.23 505.23 792.77 505.50 792.50" vector-effect="non-scaling-stroke"/>
	</g>
	<path fill="#F75148FE" d="M 521.00 222.00 C 521.00 222.78 523.70 224.57 527.00 226.50 C 530.30 228.43 533.00 230.00 533.00 230.00 L 533.00 230.00 C 533.77 230.78 534.45 231.00 535.00 231.00 C 535.55 231.00 536.00 231.00 536.00 231.00 L 536.00 231.00 C 543.75 236.43 555.45 243.62 567.00 250.50 C 578.55 257.38 590.70 264.57 594.00 266.50 C 597.30 268.43 600.00 270.00 600.00 270.00 L 600.00 270.00 C 614.73 278.52 628.67 286.85 640.50 294.00 C 652.33 301.15 664.70 308.80 668.00 311.00 C 671.30 313.20 674.00 315.00 674.00 315.00 L 674.00 315.00 C 643.00 334.38 616.00 351.02 594.00 364.50 C 572.00 377.98 544.33 395.07 532.50 402.50 C 520.67 409.93 511.00 416.00 511.00 416.00 L 511.00 416.00 C 510.23 416.00 510.00 416.00 510.00 416.00 L 510.00 416.00 C 509.23 416.00 509.00 416.00 509.00 416.00 L 509.00 416.00 C 508.23 416.00 508.00 416.23 508.00 416.50 C 508.00 416.77 508.00 417.00 508.00 417.00 L 508.00 417.00 C 446.77 454.20 424.50 467.70 419.00 471.00 L 409.00 477.00 C 409.00 525.05 409.00 539.00 409.00 539.00 L 409.00 539.00 C 407.39 536.58 407.00 524.50 407.00 506.50 C 407.00 490.27 407.23 476.55 407.50 476.00 C 407.77 475.45 392.02 465.55 372.50 454.00 C 352.98 442.45 326.65 426.70 314.00 419.00 C 301.35 411.30 281.55 399.38 270.00 392.50 C 258.45 385.62 249.00 380.00 249.00 380.00 L 249.00 380.00 C 248.22 380.00 248.00 379.32 248.00 378.50 C 248.00 377.68 248.00 377.00 248.00 377.00 L 248.00 377.00 C 248.78 375.45 253.28 372.52 258.50 369.50 C 263.73 366.48 268.00 364.00 268.00 364.00 L 268.00 364.00 C 288.93 351.60 296.57 346.88 298.50 345.50 C 300.43 344.12 302.00 343.00 302.00 343.00 L 302.00 343.00 C 303.55 342.23 304.45 341.77 305.00 341.50 C 305.55 341.23 306.00 341.00 306.00 341.00 L 306.00 341.00 C 309.10 339.45 310.00 338.77 310.00 338.50 C 310.00 338.23 310.00 338.00 310.00 338.00 L 310.00 338.00 C 310.77 338.00 311.00 338.00 311.00 338.00 L 311.00 338.00 C 314.10 336.45 315.00 335.77 315.00 335.50 C 315.00 335.23 315.00 335.00 315.00 335.00 L 315.00 335.00 C 315.77 335.00 316.00 335.00 316.00 335.00 L 316.00 335.00 C 319.10 333.45 320.00 332.77 320.00 332.50 C 320.00 332.23 320.00 332.00 320.00 332.00 L 320.00 332.00 C 323.88 329.68 325.23 329.00 325.50 329.00 C 325.77 329.00 326.00 329.00 326.00 329.00 L 326.00 329.00 C 333.75 324.35 336.90 322.32 338.00 321.50 C 339.10 320.68 340.00 320.00 340.00 320.00 L 340.00 320.00 C 340.77 320.00 342.57 318.88 344.50 317.50 C 346.43 316.12 348.00 315.00 348.00 315.00 L 348.00 315.00 C 349.55 315.00 352.25 313.43 355.00 311.50 C 357.75 309.57 360.45 308.00 361.00 308.00 C 361.55 308.00 363.57 306.88 365.50 305.50 C 367.43 304.12 369.23 303.00 369.50 303.00 C 369.77 303.00 376.98 298.73 385.50 293.50 C 394.02 288.27 401.45 284.00 402.00 284.00 C 402.55 284.00 404.12 282.88 405.50 281.50 C 406.88 280.12 408.00 279.00 408.00 279.00 L 408.00 279.00 C 408.77 279.00 409.00 279.00 409.00 279.00 L 409.00 279.00 C 410.55 279.00 411.90 278.10 413.00 277.00 C 414.10 275.90 415.00 275.00 415.00 275.00 L 415.00 275.00 C 415.77 275.00 416.00 275.00 416.00 275.00 L 416.00 275.00 C 426.85 268.80 430.00 266.77 430.00 266.50 C 430.00 266.23 430.00 266.00 430.00 266.00 L 430.00 266.00 C 430.77 266.00 431.00 266.00 431.00 266.00 L 431.00 266.00 C 440.30 260.57 444.80 257.88 447.00 256.50 C 449.20 255.12 453.70 252.20 457.00 250.00 C 460.30 247.80 463.00 246.00 463.00 246.00 L 463.00 246.00 C 463.77 246.00 464.00 246.00 464.00 246.00 L 464.00 246.00 C 474.85 239.80 479.80 236.65 482.00 235.00 C 484.20 233.35 486.00 232.00 486.00 232.00 L 486.00 232.00 C 487.55 232.00 488.23 231.78 488.50 231.50 C 488.77 231.22 489.00 231.00 489.00 231.00 L 489.00 231.00 C 489.77 231.00 491.57 229.88 493.50 228.50 C 495.43 227.12 497.00 226.00 497.00 226.00 L 497.00 226.00 C 498.55 226.00 499.90 225.10 501.00 224.00 C 502.10 222.90 503.00 222.00 503.00 222.00 L 503.00 222.00 C 505.32 220.45 507.35 219.55 509.00 219.00 C 511.38 218.21 512.93 218.41 516.50 220.00 C 518.98 221.10 521.00 222.00 521.00 222.00 L 521.00 222.00 Z" fill-rule="evenodd"/>
	<path fill="#D4312CB9" d="M 503.00 222.00 L 503.00 222.00 C 503.00 222.00 502.10 222.90 501.00 224.00 C 499.90 225.10 498.55 226.00 497.00 226.00 C 497.77 224.45 499.12 223.55 500.50 223.00 C 501.88 222.45 503.00 222.00 503.00 222.00 L 503.00 222.00 Z" fill-rule="evenodd"/>
	<path fill="#D2413D4A" d="M 521.00 222.00 C 526.42 223.55 529.12 225.35 530.50 227.00 C 531.88 228.65 533.00 230.00 533.00 230.00 L 533.00 230.00 L 533.00 230.00 C 533.00 230.00 530.30 228.43 527.00 226.50 C 523.70 224.57 521.00 222.78 521.00 222.00 Z" fill-rule="evenodd"/>
	<path fill="#D72D28C5" d="M 497.00 226.00 L 497.00 226.00 C 497.00 226.00 495.43 227.12 493.50 228.50 C 491.57 229.88 489.77 231.00 489.00 231.00 C 489.77 229.45 491.57 228.32 493.50 227.50 C 495.43 226.68 497.00 226.00 497.00 226.00 L 497.00 226.00 Z" fill-rule="evenodd"/>
	<path fill="#D5423E4C" d="M 536.00 231.00 C 537.55 231.00 551.27 238.88 567.50 248.50 C 583.73 258.12 597.67 266.90 598.50 268.00 C 599.33 269.10 600.00 270.00 600.00 270.00 L 600.00 270.00 L 600.00 270.00 C 600.00 270.00 597.30 268.43 594.00 266.50 C 590.70 264.57 578.55 257.38 567.00 250.50 C 555.45 243.62 543.75 236.43 536.00 231.00 Z" fill-rule="evenodd"/>
	<path fill="#D639347C" d="M 486.00 232.00 L 486.00 232.00 C 486.00 232.00 484.20 233.35 482.00 235.00 C 479.80 236.65 474.85 239.80 464.00 246.00 C 476.40 236.70 481.35 233.55 483.00 233.00 C 484.65 232.45 486.00 232.00 486.00 232.00 L 486.00 232.00 Z" fill-rule="evenodd"/>
	<path fill="#D53B3677" d="M 463.00 246.00 L 463.00 246.00 C 463.00 246.00 460.30 247.80 457.00 250.00 C 453.70 252.20 449.20 255.12 447.00 256.50 C 444.80 257.88 440.30 260.57 431.00 266.00 C 430.23 264.45 431.57 263.10 433.50 262.00 C 435.43 260.90 437.45 260.00 438.00 260.00 C 438.55 260.00 439.23 259.55 439.50 259.00 C 439.77 258.45 444.50 255.30 450.00 252.00 C 455.50 248.70 460.68 246.00 461.50 246.00 C 462.32 246.00 463.00 246.00 463.00 246.00 L 463.00 246.00 Z" fill-rule="evenodd"/>
	<path fill="#D738328E" d="M 430.00 266.00 L 430.00 266.00 C 430.00 266.00 430.00 266.23 430.00 266.50 C 430.00 266.77 426.85 268.80 416.00 275.00 C 418.32 271.90 421.48 269.88 424.50 268.50 C 427.52 267.12 430.00 266.00 430.00 266.00 L 430.00 266.00 Z" fill-rule="evenodd"/>
	<path fill="#D62F28C0" d="M 415.00 275.00 L 415.00 275.00 C 415.00 275.00 414.10 275.90 413.00 277.00 C 411.90 278.10 410.55 279.00 409.00 279.00 C 409.77 277.45 411.12 276.55 412.50 276.00 C 413.88 275.45 415.00 275.00 415.00 275.00 L 415.00 275.00 Z" fill-rule="evenodd"/>
	<path fill="#D73A3488" d="M 408.00 279.00 L 408.00 279.00 C 408.00 279.00 406.88 280.12 405.50 281.50 C 404.12 282.88 402.55 284.00 402.00 284.00 C 401.45 284.00 394.02 288.27 385.50 293.50 C 376.98 298.73 369.77 303.00 369.50 303.00 C 369.23 303.00 367.43 304.12 365.50 305.50 C 363.57 306.88 361.55 308.00 361.00 308.00 C 360.45 308.00 357.75 309.57 355.00 311.50 C 352.25 313.43 349.55 315.00 348.00 315.00 C 354.20 310.35 357.12 308.55 358.50 308.00 C 359.88 307.45 362.57 305.88 364.50 304.50 C 366.43 303.12 368.23 302.00 368.50 302.00 C 368.77 302.00 374.85 298.40 382.00 294.00 C 389.15 289.60 397.93 284.43 401.50 282.50 C 405.07 280.57 408.00 279.00 408.00 279.00 L 408.00 279.00 Z" fill-rule="evenodd"/>
	<path fill="#201F21FE" d="M 674.00 315.00 C 674.77 315.00 675.00 323.32 675.00 333.50 C 675.00 343.68 675.00 352.00 675.00 352.00 L 675.00 352.00 C 658.73 362.07 632.62 378.05 606.50 394.00 C 580.38 409.95 556.98 424.35 554.50 426.00 C 552.02 427.65 550.00 429.00 550.00 429.00 L 550.00 429.00 C 546.04 430.98 546.00 432.00 546.00 486.50 C 546.00 522.17 546.36 542.36 547.00 543.00 C 547.55 543.55 548.00 544.00 548.00 544.00 L 548.00 544.00 C 539.48 540.12 531.38 535.85 524.50 532.00 C 517.62 528.15 512.00 525.00 512.00 525.00 L 512.00 525.00 C 512.00 524.23 511.77 524.00 511.50 524.00 C 511.23 524.00 511.00 524.00 511.00 524.00 L 511.00 524.00 C 511.00 441.07 511.00 416.77 511.00 416.50 C 511.00 416.23 511.00 416.00 511.00 416.00 L 511.00 416.00 L 511.00 416.00 C 511.00 416.00 520.67 409.93 532.50 402.50 C 544.33 395.07 572.00 377.98 594.00 364.50 C 616.00 351.02 643.00 334.38 674.00 315.00 Z" fill-rule="evenodd"/>
	<path fill="#D236309C" d="M 340.00 320.00 L 340.00 320.00 C 340.00 320.00 339.10 320.68 338.00 321.50 C 336.90 322.32 333.75 324.35 326.00 329.00 C 329.88 325.12 333.02 323.10 335.50 322.00 C 337.98 320.90 340.00 320.00 340.00 320.00 L 340.00 320.00 Z" fill-rule="evenodd"/>
	<path fill="#D02B26B5" d="M 320.00 332.00 L 320.00 332.00 C 320.00 332.00 320.00 332.23 320.00 332.50 C 320.00 332.77 319.10 333.45 316.00 335.00 C 317.55 332.68 318.45 332.00 319.00 332.00 C 319.55 332.00 320.00 332.00 320.00 332.00 L 320.00 332.00 Z" fill-rule="evenodd"/>
	<path fill="#CC2422D6" d="M 315.00 335.00 L 315.00 335.00 C 315.00 335.00 315.00 335.23 315.00 335.50 C 315.00 335.77 314.10 336.45 311.00 338.00 C 311.00 337.23 311.90 336.55 313.00 336.00 C 314.10 335.45 315.00 335.00 315.00 335.00 L 315.00 335.00 Z" fill-rule="evenodd"/>
	<path fill="#404042FE" d="M 751.00 360.00 C 752.55 363.10 754.35 364.23 756.00 364.50 C 757.65 364.77 759.00 365.00 759.00 365.00 L 759.00 365.00 C 761.33 365.77 762.00 366.23 762.00 366.50 C 762.00 366.77 762.00 367.00 762.00 367.00 L 762.00 367.00 C 762.00 367.77 763.12 368.90 764.50 370.00 C 766.17 371.33 766.67 372.33 766.00 373.00 C 765.45 373.55 765.00 374.00 765.00 374.00 L 765.00 374.00 C 764.23 374.00 764.00 374.23 764.00 374.50 C 764.00 374.77 764.00 375.00 764.00 375.00 L 764.00 375.00 C 763.23 375.00 763.00 375.00 763.00 375.00 L 763.00 375.00 C 753.70 380.43 739.30 389.20 725.00 398.00 C 710.70 406.80 684.83 422.77 667.50 433.50 C 650.17 444.23 631.27 455.93 625.50 459.50 C 619.73 463.07 614.77 466.00 614.50 466.00 C 614.23 466.00 614.00 466.00 614.00 466.00 L 614.00 466.00 C 601.60 459.02 597.33 456.55 596.50 456.00 C 595.67 455.45 584.88 449.15 572.50 442.00 C 560.12 434.85 550.00 429.00 550.00 429.00 L 550.00 429.00 L 550.00 429.00 C 550.00 429.00 552.02 427.65 554.50 426.00 C 556.98 424.35 580.38 409.95 606.50 394.00 C 632.62 378.05 658.73 362.07 675.00 352.00 C 695.15 340.38 701.90 336.55 703.00 336.00 C 704.10 335.45 705.67 335.00 706.50 335.00 C 707.33 335.00 713.85 338.38 721.00 342.50 C 728.15 346.62 737.83 352.25 742.50 355.00 C 747.17 357.75 751.00 360.00 751.00 360.00 L 751.00 360.00 Z" fill-rule="evenodd"/>
	<path fill="#CB2520CD" d="M 310.00 338.00 L 310.00 338.00 C 310.00 338.00 310.00 338.23 310.00 338.50 C 310.00 338.77 309.10 339.45 306.00 341.00 C 306.00 340.23 306.90 339.55 308.00 339.00 C 309.10 338.45 310.00 338.00 310.00 338.00 L 310.00 338.00 Z" fill-rule="evenodd"/>
	<path fill="#D23E396A" d="M 302.00 343.00 L 302.00 343.00 C 302.00 343.00 300.43 344.12 298.50 345.50 C 296.57 346.88 288.93 351.60 268.00 364.00 C 270.32 360.90 277.30 356.18 285.00 351.50 C 292.70 346.82 299.68 343.00 300.50 343.00 C 301.32 343.00 302.00 343.00 302.00 343.00 L 302.00 343.00 Z" fill-rule="evenodd"/>
	<path fill="#262629F8" d="M 751.00 360.00 C 756.42 363.10 758.23 364.23 758.50 364.50 C 758.77 364.77 759.00 365.00 759.00 365.00 L 759.00 365.00 L 759.00 365.00 C 759.00 365.00 757.65 364.77 756.00 364.50 C 754.35 364.23 752.55 363.10 751.00 360.00 Z" fill-rule="evenodd"/>
	<path fill="#19191AFC" d="M 762.00 367.00 L 768.00 371.00 C 768.77 393.48 769.00 400.00 769.00 400.00 L 769.00 400.00 C 767.45 398.45 767.00 392.83 767.00 386.50 C 767.00 375.67 766.88 375.00 765.00 375.00 C 763.90 375.00 763.00 375.00 763.00 375.00 L 763.00 375.00 L 763.00 375.00 C 763.00 375.00 763.23 375.00 764.00 375.00 C 764.77 375.00 765.00 374.77 765.00 374.50 C 765.00 374.23 765.00 374.00 765.00 374.00 L 765.00 374.00 L 765.00 374.00 C 765.00 374.00 765.45 373.55 766.00 373.00 C 766.67 372.33 766.17 371.33 764.50 370.00 C 763.12 368.90 762.00 367.77 762.00 367.00 Z" fill-rule="evenodd"/>
	<path fill="#2E2E2FFE" d="M 765.00 374.00 L 765.00 374.00 C 765.00 374.00 765.00 374.23 765.00 374.50 C 765.00 374.77 764.77 375.00 764.00 375.00 L 764.00 375.00 C 764.00 375.00 764.00 374.77 764.00 374.50 C 764.00 374.23 764.23 374.00 765.00 374.00 Z" fill-rule="evenodd"/>
	<path fill="#2E2E2FFE" d="M 763.00 375.00 L 763.00 375.00 C 763.00 375.00 763.90 375.00 765.00 375.00 C 766.88 375.00 767.00 375.67 767.00 386.50 C 767.00 392.83 767.45 398.45 769.00 400.00 C 769.00 448.05 769.00 462.23 769.00 462.50 C 769.00 462.77 769.00 463.00 769.00 463.00 L 769.00 463.00 C 767.45 464.55 767.00 468.60 767.00 473.00 C 767.00 477.40 767.45 481.68 768.00 482.50 C 768.55 483.32 769.00 484.00 769.00 484.00 L 769.00 484.00 C 769.00 502.60 769.00 508.23 769.00 508.50 C 769.00 508.77 769.00 509.00 769.00 509.00 L 769.00 509.00 C 767.45 510.55 767.00 514.83 767.00 519.50 C 767.00 524.17 767.45 528.23 768.00 528.50 C 768.55 528.77 769.00 529.00 769.00 529.00 L 769.00 529.00 C 769.00 529.77 769.00 530.00 769.00 530.00 L 769.00 530.00 C 767.35 530.00 767.00 547.67 767.00 581.00 L 767.00 632.00 C 761.58 638.20 760.00 640.00 760.00 640.00 L 760.00 640.00 C 760.00 640.77 759.77 641.00 759.50 641.00 C 759.23 641.00 759.00 641.00 759.00 641.00 L 759.00 641.00 C 756.66 640.22 755.12 641.10 754.00 642.50 C 752.90 643.88 752.00 645.00 752.00 645.00 L 752.00 645.00 C 751.23 645.77 750.10 646.45 749.00 647.00 C 747.90 647.55 747.00 648.00 747.00 648.00 L 747.00 648.00 C 744.67 648.00 734.55 653.85 723.00 661.00 C 711.45 668.15 699.30 675.80 696.00 678.00 C 692.70 680.20 689.77 682.00 689.50 682.00 C 689.23 682.00 687.20 683.12 685.00 684.50 C 682.80 685.88 680.10 687.67 679.00 688.50 C 677.90 689.33 676.33 690.23 675.50 690.50 C 674.67 690.77 671.98 692.35 669.50 694.00 C 667.02 695.65 664.77 697.00 664.50 697.00 C 664.23 697.00 661.75 698.58 659.00 700.50 C 656.25 702.42 653.77 704.00 653.50 704.00 C 653.23 704.00 651.20 705.12 649.00 706.50 C 646.80 707.88 644.33 709.67 643.50 710.50 C 642.67 711.33 642.00 712.00 642.00 712.00 L 642.00 712.00 C 638.90 712.77 632.83 716.38 626.50 720.50 C 620.17 724.62 614.55 728.45 614.00 729.00 C 613.45 729.55 612.55 730.00 612.00 730.00 C 611.34 730.00 611.17 704.67 611.50 655.00 C 611.83 605.33 611.66 580.00 611.00 580.00 C 610.45 580.00 610.00 580.00 610.00 580.00 L 610.00 580.00 C 610.00 578.45 609.77 578.00 609.50 578.00 C 609.23 578.00 609.00 578.00 609.00 578.00 L 609.00 578.00 C 610.55 577.23 611.23 576.77 611.50 576.50 C 611.77 576.23 612.45 551.25 613.00 521.00 C 613.55 490.75 614.00 466.00 614.00 466.00 L 614.00 466.00 L 614.00 466.00 C 614.00 466.00 614.23 466.00 614.50 466.00 C 614.77 466.00 619.73 463.07 625.50 459.50 C 631.27 455.93 650.17 444.23 667.50 433.50 C 684.83 422.77 710.70 406.80 725.00 398.00 C 739.30 389.20 753.70 380.43 763.00 375.00 Z" fill-rule="evenodd"/>
	<path fill="#AF1A17F7" d="M 248.00 377.00 L 248.00 377.00 C 248.00 377.00 248.00 377.68 248.00 378.50 C 248.00 379.32 248.22 380.00 249.00 380.00 C 248.22 380.77 248.00 403.73 248.00 431.50 C 248.00 459.27 248.00 482.00 248.00 482.00 L 248.00 482.00 C 247.22 440.93 247.22 417.30 247.50 403.00 C 247.78 388.70 248.00 377.00 248.00 377.00 L 248.00 377.00 Z" fill-rule="evenodd"/>
	<path fill="#D53934FE" d="M 249.00 380.00 L 249.00 380.00 C 249.00 380.00 258.45 385.62 270.00 392.50 C 281.55 399.38 301.35 411.30 314.00 419.00 C 326.65 426.70 352.98 442.45 372.50 454.00 C 392.02 465.55 407.77 475.45 407.50 476.00 C 407.23 476.55 407.00 490.27 407.00 506.50 C 407.00 524.50 407.39 536.58 409.00 539.00 C 409.00 581.00 409.09 582.05 411.00 583.00 C 412.57 583.78 414.20 583.35 418.50 581.00 C 421.52 579.35 442.90 566.75 466.00 553.00 C 489.10 539.25 508.90 527.33 510.00 526.50 C 511.10 525.67 512.00 525.00 512.00 525.00 L 512.00 525.00 L 512.00 525.00 C 512.00 525.00 517.62 528.15 524.50 532.00 C 531.38 535.85 539.48 540.12 548.00 544.00 C 558.08 549.42 571.12 556.62 583.50 563.50 C 595.88 570.38 606.67 576.45 607.50 577.00 C 608.33 577.55 609.00 578.00 609.00 578.00 L 609.00 578.00 L 609.00 578.00 C 609.00 578.00 609.23 578.00 609.50 578.00 C 609.77 578.00 610.00 578.45 610.00 580.00 C 563.50 607.90 540.33 621.85 528.50 629.00 C 516.67 636.15 507.00 642.00 507.00 642.00 L 507.00 642.00 C 501.57 639.67 488.98 632.25 475.50 624.00 C 462.02 615.75 442.00 603.60 431.00 597.00 C 420.00 590.40 411.00 585.00 411.00 585.00 L 411.00 585.00 C 410.23 583.45 409.77 583.00 409.50 583.00 C 409.23 583.00 409.00 583.00 409.00 583.00 L 409.00 583.00 C 348.55 546.58 319.75 529.02 306.00 520.50 C 292.25 511.98 280.55 505.00 280.00 505.00 C 279.45 505.00 279.00 505.00 279.00 505.00 L 279.00 505.00 C 269.70 498.80 262.95 494.52 258.00 491.50 C 252.69 488.25 248.80 485.18 248.50 484.00 C 248.22 482.90 248.00 482.00 248.00 482.00 L 248.00 482.00 L 248.00 482.00 C 248.00 482.00 248.00 459.27 248.00 431.50 C 248.00 403.73 248.22 380.77 249.00 380.00 Z" fill-rule="evenodd"/>
	<path fill="#B32121FE" d="M 509.00 416.00 C 509.00 416.77 508.77 417.00 508.50 417.00 C 508.23 417.00 508.00 417.00 508.00 417.00 L 508.00 417.00 L 508.00 417.00 C 508.00 417.00 508.00 416.77 508.00 416.50 C 508.00 416.23 508.23 416.00 509.00 416.00 Z" fill-rule="evenodd"/>
	<path fill="#9C2121FE" d="M 509.00 416.00 L 509.00 416.00 C 509.00 416.00 509.23 416.00 510.00 416.00 C 509.17 504.67 509.34 523.17 510.00 523.50 C 510.55 523.77 511.00 524.00 511.00 524.00 L 511.00 524.00 L 511.00 524.00 C 511.00 524.00 511.23 524.00 511.50 524.00 C 511.77 524.00 512.00 524.23 512.00 525.00 L 512.00 525.00 C 512.00 525.00 511.10 525.67 510.00 526.50 C 508.90 527.33 489.10 539.25 466.00 553.00 C 442.90 566.75 421.52 579.35 418.50 581.00 C 414.20 583.35 412.57 583.78 411.00 583.00 C 409.09 582.05 409.00 581.00 409.00 539.00 L 409.00 539.00 C 409.00 539.00 409.00 525.05 409.00 477.00 L 419.00 471.00 C 424.50 467.70 446.77 454.20 508.00 417.00 L 508.00 417.00 C 508.00 417.00 508.23 417.00 508.50 417.00 C 508.77 417.00 509.00 416.77 509.00 416.00 Z" fill-rule="evenodd"/>
	<path fill="#B32121FE" d="M 510.00 416.00 L 510.00 416.00 C 510.00 416.00 510.23 416.00 511.00 416.00 L 511.00 416.00 C 511.00 416.00 511.00 416.23 511.00 416.50 C 511.00 416.77 511.00 441.07 511.00 524.00 L 511.00 524.00 C 511.00 524.00 510.55 523.77 510.00 523.50 C 509.34 523.17 509.17 504.67 510.00 416.00 Z" fill-rule="evenodd"/>
	<path fill="#4D4F51FE" d="M 550.00 429.00 L 550.00 429.00 C 550.00 429.00 560.12 434.85 572.50 442.00 C 584.88 449.15 595.67 455.45 596.50 456.00 C 597.33 456.55 601.60 459.02 614.00 466.00 L 614.00 466.00 C 614.00 466.00 613.55 490.75 613.00 521.00 C 612.45 551.25 611.77 576.23 611.50 576.50 C 611.23 576.77 610.55 577.23 609.00 578.00 L 609.00 578.00 C 609.00 578.00 608.33 577.55 607.50 577.00 C 606.67 576.45 595.88 570.38 583.50 563.50 C 571.12 556.62 558.08 549.42 548.00 544.00 L 548.00 544.00 C 548.00 544.00 547.55 543.55 547.00 543.00 C 546.36 542.36 546.00 522.17 546.00 486.50 C 546.00 432.00 546.04 430.98 550.00 429.00 Z" fill-rule="evenodd"/>
	<path fill="#161718FC" d="M 769.00 463.00 C 769.00 478.50 769.00 483.23 769.00 483.50 C 769.00 483.77 769.00 484.00 769.00 484.00 L 769.00 484.00 L 769.00 484.00 C 769.00 484.00 768.55 483.32 768.00 482.50 C 767.45 481.68 767.00 477.40 767.00 473.00 C 767.00 468.60 767.45 464.55 769.00 463.00 Z" fill-rule="evenodd"/>
	<path fill="#313133FE" d="M 279.00 505.00 L 279.00 505.00 C 279.00 505.00 279.45 505.00 280.00 505.00 C 280.55 505.00 292.25 511.98 306.00 520.50 C 319.75 529.02 348.55 546.58 409.00 583.00 C 409.77 584.55 410.23 585.00 410.50 585.00 C 410.77 585.00 411.00 585.00 411.00 585.00 L 411.00 585.00 L 411.00 585.00 C 411.00 585.00 420.00 590.40 431.00 597.00 C 442.00 603.60 462.02 615.75 475.50 624.00 C 488.98 632.25 501.57 639.67 507.00 642.00 C 506.23 643.55 505.32 658.85 504.50 677.00 C 503.68 695.15 503.00 710.00 503.00 710.00 L 503.00 710.00 L 503.00 678.00 C 480.52 664.05 457.35 649.88 437.00 637.50 C 416.65 625.12 375.25 599.92 345.00 581.50 C 314.75 563.08 283.02 543.95 274.50 539.00 C 265.98 534.05 259.00 530.00 259.00 530.00 L 259.00 530.00 C 252.80 526.12 250.55 525.23 250.00 525.50 C 249.45 525.77 249.00 526.00 249.00 526.00 L 249.00 526.00 C 248.22 526.77 247.78 527.00 247.50 527.00 C 247.22 527.00 247.00 527.00 247.00 527.00 L 247.00 527.00 C 247.00 526.23 247.00 526.00 247.00 526.00 L 247.00 526.00 C 247.78 526.00 248.00 525.77 248.00 525.50 C 248.00 525.23 248.00 525.00 248.00 525.00 L 248.00 525.00 C 251.10 521.90 258.07 517.40 265.50 513.00 C 272.93 508.60 279.00 505.00 279.00 505.00 L 279.00 505.00 Z" fill-rule="evenodd"/>
	<path fill="#151516FB" d="M 769.00 509.00 C 769.00 523.73 769.00 528.23 769.00 528.50 C 769.00 528.77 769.00 529.00 769.00 529.00 L 769.00 529.00 L 769.00 529.00 C 769.00 529.00 768.55 528.77 768.00 528.50 C 767.45 528.23 767.00 524.17 767.00 519.50 C 767.00 514.83 767.45 510.55 769.00 509.00 Z" fill-rule="evenodd"/>
	<path fill="#474849FE" d="M 248.00 525.00 L 248.00 525.00 C 248.00 525.00 248.00 525.23 248.00 525.50 C 248.00 525.77 247.78 526.00 247.00 526.00 C 247.00 525.23 247.22 525.00 247.50 525.00 C 247.78 525.00 248.00 525.00 248.00 525.00 L 248.00 525.00 Z" fill-rule="evenodd"/>
	<path fill="#636467FD" d="M 259.00 530.00 C 257.45 530.00 255.20 529.10 253.00 528.00 C 250.80 526.90 249.00 526.00 249.00 526.00 L 249.00 526.00 L 249.00 526.00 C 249.00 526.00 249.45 525.77 250.00 525.50 C 250.55 525.23 252.80 526.12 259.00 530.00 Z" fill-rule="evenodd"/>
	<path fill="#474849FE" d="M 249.00 526.00 L 249.00 526.00 C 249.00 526.00 250.80 526.90 253.00 528.00 C 255.20 529.10 257.45 530.00 259.00 530.00 L 259.00 530.00 C 259.00 530.00 265.98 534.05 274.50 539.00 C 283.02 543.95 314.75 563.08 345.00 581.50 C 375.25 599.92 416.65 625.12 437.00 637.50 C 457.35 649.88 480.52 664.05 503.00 678.00 L 503.00 710.00 C 503.00 750.30 503.00 769.20 503.00 778.00 C 503.00 786.80 503.00 794.00 503.00 794.00 L 503.00 794.00 C 503.00 796.33 502.10 797.45 501.00 798.00 C 499.90 798.55 498.10 799.00 497.00 799.00 C 495.90 799.00 489.82 795.85 483.50 792.00 C 477.18 788.15 465.02 780.73 456.50 775.50 C 447.98 770.27 433.35 761.27 424.00 755.50 C 414.65 749.73 404.07 743.20 400.50 741.00 C 396.93 738.80 385.90 732.05 376.00 726.00 C 366.10 719.95 348.10 708.92 336.00 701.50 C 323.90 694.08 308.15 684.40 301.00 680.00 C 293.85 675.60 280.35 667.27 271.00 661.50 C 261.65 655.73 252.65 649.88 251.00 648.50 C 249.35 647.12 248.00 646.00 248.00 646.00 L 248.00 646.00 C 248.79 625.40 248.58 618.96 248.00 617.50 C 247.45 616.12 247.00 615.00 247.00 615.00 L 247.00 615.00 C 247.00 612.67 247.00 611.77 247.00 611.50 C 247.00 611.23 247.00 611.00 247.00 611.00 L 247.00 611.00 C 247.78 610.23 248.00 597.40 248.00 582.00 C 248.00 566.60 247.78 553.77 247.50 553.50 C 247.22 553.23 247.00 553.00 247.00 553.00 L 247.00 553.00 C 247.00 533.62 247.00 527.77 247.00 527.50 C 247.00 527.23 247.00 527.00 247.00 527.00 L 247.00 527.00 L 247.00 527.00 C 247.00 527.00 247.22 527.00 247.50 527.00 C 247.78 527.00 248.22 526.77 249.00 526.00 Z" fill-rule="evenodd"/>
	<path fill="#161718FA" d="M 769.00 530.00 C 769.00 625.72 768.79 633.28 767.50 635.00 C 766.67 636.10 764.65 637.67 763.00 638.50 C 761.35 639.33 760.00 640.00 760.00 640.00 L 760.00 640.00 L 760.00 640.00 C 760.00 640.00 761.58 638.20 767.00 632.00 L 767.00 581.00 C 767.00 547.67 767.35 530.00 769.00 530.00 Z" fill-rule="evenodd"/>
	<path fill="#121212FB" d="M 247.00 553.00 L 247.00 553.00 C 247.00 553.00 247.22 553.23 247.50 553.50 C 247.78 553.77 248.00 566.60 248.00 582.00 C 248.00 597.40 247.78 610.23 247.00 611.00 C 247.00 566.83 247.00 553.77 247.00 553.50 C 247.00 553.23 247.00 553.00 247.00 553.00 L 247.00 553.00 Z" fill-rule="evenodd"/>
	<path fill="#202022FE" d="M 610.00 580.00 L 610.00 580.00 C 610.00 580.00 610.45 580.00 611.00 580.00 C 611.66 580.00 611.83 605.33 611.50 655.00 C 611.17 704.67 611.34 730.00 612.00 730.00 C 612.55 730.00 613.45 729.55 614.00 729.00 C 614.55 728.45 620.17 724.62 626.50 720.50 C 632.83 716.38 638.90 712.77 642.00 712.00 C 642.00 712.77 642.00 713.00 642.00 713.00 L 642.00 713.00 C 579.23 751.75 560.77 763.00 560.50 763.00 C 560.23 763.00 560.00 763.00 560.00 763.00 L 560.00 763.00 C 552.25 766.10 549.33 767.45 548.50 768.00 C 547.67 768.55 546.33 769.67 545.50 770.50 C 544.67 771.33 543.33 772.00 542.50 772.00 C 541.67 772.00 540.55 772.90 540.00 774.00 C 539.45 775.10 539.00 776.00 539.00 776.00 L 539.00 776.00 C 539.00 776.77 538.77 777.00 538.50 777.00 C 538.23 777.00 538.00 777.00 538.00 777.00 L 538.00 777.00 C 535.67 776.23 533.42 777.35 531.50 779.00 C 529.58 780.65 527.33 782.67 526.50 783.50 C 525.67 784.33 525.00 785.00 525.00 785.00 L 525.00 785.00 C 513.38 792.75 509.55 795.00 509.00 795.00 C 508.45 795.00 508.00 795.00 508.00 795.00 L 508.00 795.00 C 505.68 794.23 504.55 794.00 504.00 794.00 C 503.45 794.00 503.00 794.00 503.00 794.00 L 503.00 794.00 L 503.00 794.00 C 503.00 794.00 503.00 786.80 503.00 778.00 C 503.00 769.20 503.00 750.30 503.00 710.00 L 503.00 710.00 C 503.00 710.00 503.68 695.15 504.50 677.00 C 505.32 658.85 506.23 643.55 507.00 642.00 L 507.00 642.00 C 507.00 642.00 516.67 636.15 528.50 629.00 C 540.33 621.85 563.50 607.90 610.00 580.00 Z M 505.50 792.50 C 505.23 792.77 505.00 793.23 505.00 793.50 C 505.00 793.77 505.23 794.00 505.50 794.00 C 505.77 794.00 506.00 793.55 506.00 793.00 C 506.00 792.45 505.77 792.23 505.50 792.50 Z" fill-rule="evenodd"/>
	<path fill="#9C2121FE" d="M 409.00 583.00 L 409.00 583.00 C 409.00 583.00 409.23 583.00 409.50 583.00 C 409.77 583.00 410.23 583.45 411.00 585.00 L 411.00 585.00 C 411.00 585.00 410.77 585.00 410.50 585.00 C 410.23 585.00 409.77 584.55 409.00 583.00 Z" fill-rule="evenodd"/>
	<path fill="#1F1F1FFB" d="M 247.00 615.00 L 247.00 615.00 C 247.00 615.00 247.45 616.12 248.00 617.50 C 248.58 618.96 248.79 625.40 248.00 646.00 C 247.22 646.00 247.00 646.00 247.00 646.00 L 247.00 646.00 C 247.00 622.75 247.00 615.77 247.00 615.50 C 247.00 615.23 247.00 615.00 247.00 615.00 L 247.00 615.00 Z" fill-rule="evenodd"/>
	<path fill="#141415FD" d="M 759.00 641.00 C 756.67 642.55 755.10 643.45 754.00 644.00 C 752.90 644.55 752.00 645.00 752.00 645.00 L 752.00 645.00 L 752.00 645.00 C 752.00 645.00 752.90 643.88 754.00 642.50 C 755.12 641.10 756.66 640.22 759.00 641.00 Z" fill-rule="evenodd"/>
	<path fill="#1B1A1BF2" d="M 247.00 646.00 L 247.00 646.00 C 247.00 646.00 247.22 646.00 248.00 646.00 L 248.00 646.00 C 248.00 646.00 249.35 647.12 251.00 648.50 C 252.65 649.88 261.65 655.73 271.00 661.50 C 280.35 667.27 293.85 675.60 301.00 680.00 C 308.15 684.40 323.90 694.08 336.00 701.50 C 348.10 708.92 366.10 719.95 376.00 726.00 C 385.90 732.05 396.93 738.80 400.50 741.00 C 404.07 743.20 414.65 749.73 424.00 755.50 C 433.35 761.27 447.98 770.27 456.50 775.50 C 465.02 780.73 477.18 788.15 483.50 792.00 C 489.82 795.85 495.90 799.00 497.00 799.00 C 498.10 799.00 499.90 798.55 501.00 798.00 C 502.10 797.45 503.00 796.33 503.00 794.00 L 503.00 794.00 C 503.00 794.00 503.45 794.00 504.00 794.00 C 504.55 794.00 505.68 794.23 508.00 795.00 C 502.90 799.25 500.80 800.00 498.00 800.00 C 494.62 800.00 490.44 797.83 471.00 786.00 C 458.35 778.30 435.62 764.35 420.50 755.00 C 405.38 745.65 383.77 732.38 372.50 725.50 C 361.23 718.62 342.10 706.92 330.00 699.50 C 317.90 692.08 294.73 677.90 278.50 668.00 C 262.27 658.10 248.55 649.10 248.00 648.00 C 247.45 646.90 247.00 646.00 247.00 646.00 L 247.00 646.00 Z" fill-rule="evenodd"/>
	<path fill="#141415FD" d="M 747.00 648.00 C 743.90 650.33 731.52 657.98 717.50 666.50 C 703.48 675.02 692.00 682.00 692.00 682.00 L 692.00 682.00 C 691.23 682.00 691.00 682.23 691.00 682.50 C 691.00 682.77 691.00 683.00 691.00 683.00 L 691.00 683.00 C 687.12 685.33 685.10 686.45 684.00 687.00 C 682.90 687.55 682.00 688.00 682.00 688.00 L 682.00 688.00 C 681.23 688.00 681.00 688.23 681.00 688.50 C 681.00 688.77 681.00 689.00 681.00 689.00 L 681.00 689.00 C 667.05 697.52 658.27 702.92 652.50 706.50 C 646.73 710.08 642.00 713.00 642.00 713.00 L 642.00 713.00 L 642.00 713.00 C 642.00 713.00 642.00 712.77 642.00 712.00 L 642.00 712.00 C 642.00 712.00 642.67 711.33 643.50 710.50 C 644.33 709.67 646.80 707.88 649.00 706.50 C 651.20 705.12 653.23 704.00 653.50 704.00 C 653.77 704.00 656.25 702.42 659.00 700.50 C 661.75 698.58 664.23 697.00 664.50 697.00 C 664.77 697.00 667.02 695.65 669.50 694.00 C 671.98 692.35 674.67 690.77 675.50 690.50 C 676.33 690.23 677.90 689.33 679.00 688.50 C 680.10 687.67 682.80 685.88 685.00 684.50 C 687.20 683.12 689.23 682.00 689.50 682.00 C 689.77 682.00 692.70 680.20 696.00 678.00 C 699.30 675.80 711.45 668.15 723.00 661.00 C 734.55 653.85 744.67 648.00 747.00 648.00 Z" fill-rule="evenodd"/>
	<path fill="#2E2E2FFE" d="M 692.00 682.00 C 692.00 682.77 691.77 683.00 691.50 683.00 C 691.23 683.00 691.00 683.00 691.00 683.00 L 691.00 683.00 L 691.00 683.00 C 691.00 683.00 691.00 682.77 691.00 682.50 C 691.00 682.23 691.23 682.00 692.00 682.00 Z" fill-rule="evenodd"/>
	<path fill="#2E2E2FFE" d="M 682.00 688.00 C 682.00 688.77 681.77 689.00 681.50 689.00 C 681.23 689.00 681.00 689.00 681.00 689.00 L 681.00 689.00 L 681.00 689.00 C 681.00 689.00 681.00 688.77 681.00 688.50 C 681.00 688.23 681.23 688.00 682.00 688.00 Z" fill-rule="evenodd"/>
	<path fill="#0D0C0EFE" d="M 560.00 763.00 C 560.00 763.77 559.33 764.23 558.50 764.50 C 557.67 764.77 557.00 765.00 557.00 765.00 L 557.00 765.00 C 556.23 765.00 556.00 765.23 556.00 765.50 C 556.00 765.77 556.00 766.00 556.00 766.00 L 556.00 766.00 C 543.60 773.75 539.77 776.00 539.50 776.00 C 539.23 776.00 539.00 776.00 539.00 776.00 L 539.00 776.00 L 539.00 776.00 C 539.00 776.00 539.45 775.10 540.00 774.00 C 540.55 772.90 541.67 772.00 542.50 772.00 C 543.33 772.00 544.67 771.33 545.50 770.50 C 546.33 769.67 547.67 768.55 548.50 768.00 C 549.33 767.45 552.25 766.10 560.00 763.00 Z" fill-rule="evenodd"/>
	<path fill="#202022FE" d="M 557.00 765.00 C 557.00 765.77 556.77 766.00 556.50 766.00 C 556.23 766.00 556.00 766.00 556.00 766.00 L 556.00 766.00 L 556.00 766.00 C 556.00 766.00 556.00 765.77 556.00 765.50 C 556.00 765.23 556.23 765.00 557.00 765.00 Z" fill-rule="evenodd"/>
	<path fill="#0D0D0EFD" d="M 538.00 777.00 C 533.35 780.10 530.42 781.90 528.50 783.00 C 526.58 784.10 525.00 785.00 525.00 785.00 L 525.00 785.00 L 525.00 785.00 C 525.00 785.00 525.67 784.33 526.50 783.50 C 527.33 782.67 529.58 780.65 531.50 779.00 C 533.42 777.35 535.67 776.23 538.00 777.00 Z" fill-rule="evenodd"/>
	<path fill="#1B1A1BF2" d="M 505.50 792.50 C 505.77 792.23 506.00 792.45 506.00 793.00 C 506.00 793.55 505.77 794.00 505.50 794.00 C 505.23 794.00 505.00 793.77 505.00 793.50 C 505.00 793.23 505.23 792.77 505.50 792.50 Z" fill-rule="evenodd"/>
</svg>
