<svg xmlns="http://www.w3.org/2000/svg" xmlns:xlink="http://www.w3.org/1999/xlink" width="4096" zoomAndPan="magnify" viewBox="0 0 3072 767.999994" height="1024" preserveAspectRatio="xMidYMid meet" version="1.0"><defs><g/></defs><g fill="#e0e0e0" fill-opacity="1"><g transform="translate(1001.823183, 513.749995)"><g><path d="M 276.765625 -208.875 C 292.929688 -208.875 307.414062 -205.515625 320.21875 -198.796875 C 333.03125 -192.085938 343.101562 -182.144531 350.4375 -168.96875 C 357.769531 -155.789062 361.4375 -139.875 361.4375 -121.21875 L 361.4375 0 L 319.28125 0 L 319.28125 -114.890625 C 319.28125 -133.285156 314.679688 -147.394531 305.484375 -157.21875 C 296.285156 -167.039062 283.726562 -171.953125 267.8125 -171.953125 C 251.894531 -171.953125 239.273438 -167.039062 229.953125 -157.21875 C 220.628906 -147.394531 215.96875 -133.285156 215.96875 -114.890625 L 215.96875 0 L 173.8125 0 L 173.8125 -114.890625 C 173.8125 -133.285156 169.210938 -147.394531 160.015625 -157.21875 C 150.816406 -167.039062 138.257812 -171.953125 122.34375 -171.953125 C 106.425781 -171.953125 93.804688 -167.039062 84.484375 -157.21875 C 75.160156 -147.394531 70.5 -133.285156 70.5 -114.890625 L 70.5 0 L 27.96875 0 L 27.96875 -205.515625 L 70.5 -205.515625 L 70.5 -182.03125 C 77.457031 -190.476562 86.28125 -197.0625 96.96875 -201.78125 C 107.664062 -206.507812 119.109375 -208.875 131.296875 -208.875 C 147.703125 -208.875 162.367188 -205.390625 175.296875 -198.421875 C 188.234375 -191.460938 198.1875 -181.394531 205.15625 -168.21875 C 211.363281 -180.65625 221.054688 -190.539062 234.234375 -197.875 C 247.421875 -205.207031 261.597656 -208.875 276.765625 -208.875 Z M 276.765625 -208.875 "/></g></g></g><g fill="#e0e0e0" fill-opacity="1"><g transform="translate(1366.248277, 513.749995)"><g><path d="M 49.609375 -232.75 C 41.898438 -232.75 35.429688 -235.359375 30.203125 -240.578125 C 24.984375 -245.804688 22.375 -252.273438 22.375 -259.984375 C 22.375 -267.691406 24.984375 -274.15625 30.203125 -279.375 C 35.429688 -284.59375 41.898438 -287.203125 49.609375 -287.203125 C 57.066406 -287.203125 63.40625 -284.59375 68.625 -279.375 C 73.851562 -274.15625 76.46875 -267.691406 76.46875 -259.984375 C 76.46875 -252.273438 73.851562 -245.804688 68.625 -240.578125 C 63.40625 -235.359375 57.066406 -232.75 49.609375 -232.75 Z M 70.5 -205.515625 L 70.5 0 L 27.96875 0 L 27.96875 -205.515625 Z M 70.5 -205.515625 "/></g></g></g><g fill="#e0e0e0" fill-opacity="1"><g transform="translate(1441.594984, 513.749995)"><g><path d="M 131.671875 -208.875 C 147.828125 -208.875 162.304688 -205.515625 175.109375 -198.796875 C 187.921875 -192.085938 197.929688 -182.144531 205.140625 -168.96875 C 212.359375 -155.789062 215.96875 -139.875 215.96875 -121.21875 L 215.96875 0 L 173.8125 0 L 173.8125 -114.890625 C 173.8125 -133.285156 169.210938 -147.394531 160.015625 -157.21875 C 150.816406 -167.039062 138.257812 -171.953125 122.34375 -171.953125 C 106.425781 -171.953125 93.804688 -167.039062 84.484375 -157.21875 C 75.160156 -147.394531 70.5 -133.285156 70.5 -114.890625 L 70.5 0 L 27.96875 0 L 27.96875 -205.515625 L 70.5 -205.515625 L 70.5 -182.03125 C 77.457031 -190.476562 86.34375 -197.0625 97.15625 -201.78125 C 107.976562 -206.507812 119.484375 -208.875 131.671875 -208.875 Z M 131.671875 -208.875 "/></g></g></g><g fill="#e0e0e0" fill-opacity="1"><g transform="translate(1660.548465, 513.749995)"><g><path d="M 49.609375 -232.75 C 41.898438 -232.75 35.429688 -235.359375 30.203125 -240.578125 C 24.984375 -245.804688 22.375 -252.273438 22.375 -259.984375 C 22.375 -267.691406 24.984375 -274.15625 30.203125 -279.375 C 35.429688 -284.59375 41.898438 -287.203125 49.609375 -287.203125 C 57.066406 -287.203125 63.40625 -284.59375 68.625 -279.375 C 73.851562 -274.15625 76.46875 -267.691406 76.46875 -259.984375 C 76.46875 -252.273438 73.851562 -245.804688 68.625 -240.578125 C 63.40625 -235.359375 57.066406 -232.75 49.609375 -232.75 Z M 70.5 -205.515625 L 70.5 0 L 27.96875 0 L 27.96875 -205.515625 Z M 70.5 -205.515625 "/></g></g></g><g fill="#fd3f31" fill-opacity="1"><g transform="translate(1735.897369, 513.749995)"><g><path d="M 12.3125 -131.296875 C 12.3125 -157.160156 17.90625 -180.222656 29.09375 -200.484375 C 40.28125 -220.753906 55.882812 -236.546875 75.90625 -247.859375 C 95.925781 -259.171875 118.617188 -264.828125 143.984375 -264.828125 C 175.066406 -264.828125 201.671875 -256.617188 223.796875 -240.203125 C 245.929688 -223.796875 260.726562 -201.421875 268.1875 -173.078125 L 198.0625 -173.078125 C 192.84375 -184.015625 185.445312 -192.34375 175.875 -198.0625 C 166.300781 -203.78125 155.421875 -206.640625 143.234375 -206.640625 C 123.585938 -206.640625 107.671875 -199.800781 95.484375 -186.125 C 83.304688 -172.445312 77.21875 -154.171875 77.21875 -131.296875 C 77.21875 -108.421875 83.304688 -90.144531 95.484375 -76.46875 C 107.671875 -62.789062 123.585938 -55.953125 143.234375 -55.953125 C 155.421875 -55.953125 166.300781 -58.8125 175.875 -64.53125 C 185.445312 -70.25 192.84375 -78.578125 198.0625 -89.515625 L 268.1875 -89.515625 C 260.726562 -61.171875 245.929688 -38.851562 223.796875 -22.5625 C 201.671875 -6.28125 175.066406 1.859375 143.984375 1.859375 C 118.617188 1.859375 95.925781 -3.796875 75.90625 -15.109375 C 55.882812 -26.421875 40.28125 -42.144531 29.09375 -62.28125 C 17.90625 -82.425781 12.3125 -105.429688 12.3125 -131.296875 Z M 12.3125 -131.296875 "/></g></g></g><g fill="#fd3f31" fill-opacity="1"><g transform="translate(1997.000264, 513.749995)"><g><path d="M 151.0625 -210.375 C 174.9375 -210.375 194.082031 -202.476562 208.5 -186.6875 C 222.925781 -170.894531 230.140625 -149.195312 230.140625 -121.59375 L 230.140625 0 L 166.734375 0 L 166.734375 -113.015625 C 166.734375 -126.941406 163.125 -137.757812 155.90625 -145.46875 C 148.695312 -153.175781 139 -157.03125 126.8125 -157.03125 C 114.632812 -157.03125 104.9375 -153.175781 97.71875 -145.46875 C 90.507812 -137.757812 86.90625 -126.941406 86.90625 -113.015625 L 86.90625 0 L 23.125 0 L 23.125 -276.015625 L 86.90625 -276.015625 L 86.90625 -180.15625 C 93.375 -189.351562 102.203125 -196.6875 113.390625 -202.15625 C 124.578125 -207.632812 137.132812 -210.375 151.0625 -210.375 Z M 151.0625 -210.375 "/></g></g></g><g fill="#fd3f31" fill-opacity="1"><g transform="translate(2225.278757, 513.749995)"><g><path d="M 228.65625 -208.140625 L 228.65625 0 L 164.859375 0 L 164.859375 -28.34375 C 158.398438 -19.144531 149.632812 -11.75 138.5625 -6.15625 C 127.5 -0.5625 115.253906 2.234375 101.828125 2.234375 C 85.910156 2.234375 71.859375 -1.304688 59.671875 -8.390625 C 47.492188 -15.472656 38.046875 -25.726562 31.328125 -39.15625 C 24.617188 -52.59375 21.265625 -68.382812 21.265625 -86.53125 L 21.265625 -208.140625 L 84.671875 -208.140625 L 84.671875 -95.109375 C 84.671875 -81.191406 88.273438 -70.375 95.484375 -62.65625 C 102.703125 -54.945312 112.398438 -51.09375 124.578125 -51.09375 C 137.015625 -51.09375 146.835938 -54.945312 154.046875 -62.65625 C 161.253906 -70.375 164.859375 -81.191406 164.859375 -95.109375 L 164.859375 -208.140625 Z M 228.65625 -208.140625 "/></g></g></g><g fill="#fd3f31" fill-opacity="1"><g transform="translate(2453.557296, 513.749995)"><g><path d="M 149.953125 -210.375 C 174.316406 -210.375 193.769531 -202.476562 208.3125 -186.6875 C 222.863281 -170.894531 230.140625 -149.195312 230.140625 -121.59375 L 230.140625 0 L 166.734375 0 L 166.734375 -113.015625 C 166.734375 -126.941406 163.125 -137.757812 155.90625 -145.46875 C 148.695312 -153.175781 139 -157.03125 126.8125 -157.03125 C 114.632812 -157.03125 104.9375 -153.175781 97.71875 -145.46875 C 90.507812 -137.757812 86.90625 -126.941406 86.90625 -113.015625 L 86.90625 0 L 23.125 0 L 23.125 -208.140625 L 86.90625 -208.140625 L 86.90625 -180.53125 C 93.375 -189.726562 102.078125 -197 113.015625 -202.34375 C 123.960938 -207.695312 136.273438 -210.375 149.953125 -210.375 Z M 149.953125 -210.375 "/></g></g></g><g fill="#fd3f31" fill-opacity="1"><g transform="translate(2681.835835, 513.749995)"><g><path d="M 150.3125 0 L 86.90625 -87.28125 L 86.90625 0 L 23.125 0 L 23.125 -276.015625 L 86.90625 -276.015625 L 86.90625 -123.46875 L 149.953125 -208.140625 L 228.65625 -208.140625 L 142.109375 -103.6875 L 229.390625 0 Z M 150.3125 0 "/></g></g></g><path fill="#282829" d="M 541.617188 23.285156 C 544.585938 24.117188 547.042969 25.476562 549.703125 27.011719 L 551.378906 27.957031 C 555.417969 30.265625 559.375 32.6875 563.296875 35.191406 C 567.675781 37.972656 572.171875 40.535156 576.703125 43.050781 L 578.339844 43.980469 L 579.808594 44.796875 L 580.847656 45.550781 L 580.847656 46.945312 L 582.039062 47.183594 C 583.859375 47.707031 585.28125 48.476562 586.921875 49.421875 L 588.824219 50.511719 L 590.792969 51.65625 L 592.730469 52.769531 C 596.496094 54.9375 600.210938 57.183594 603.878906 59.507812 C 607.300781 61.609375 610.757812 63.644531 614.253906 65.621094 L 616.082031 66.660156 C 617.304688 67.355469 618.53125 68.046875 619.757812 68.734375 L 621.464844 69.703125 L 623.011719 70.578125 L 624.121094 71.371094 L 624.121094 72.769531 L 625.328125 73.027344 C 626.980469 73.484375 628.359375 74.121094 629.878906 74.90625 L 631.371094 75.671875 L 632.496094 76.257812 L 632.496094 77.652344 L 633.691406 77.894531 C 635.480469 78.40625 636.878906 79.152344 638.496094 80.082031 L 640.351562 81.144531 L 642.308594 82.277344 L 644.3125 83.429688 C 648.25 85.707031 652.109375 88.054688 655.917969 90.539062 C 658.953125 92.449219 662.125 94.125 665.296875 95.800781 L 665.296875 97.195312 L 666.464844 97.425781 C 671.625 98.910156 676.378906 102.378906 680.738281 105.429688 C 682.109375 106.386719 682.109375 106.386719 684.140625 106.964844 L 684.140625 108.363281 L 685.324219 108.589844 C 687.214844 109.140625 688.644531 109.964844 690.335938 110.980469 L 692.546875 112.296875 L 693.832031 113.066406 C 695.566406 114.097656 697.308594 115.121094 699.050781 116.140625 L 703.113281 118.527344 L 705.074219 119.671875 C 708.640625 121.769531 712.136719 123.976562 715.5625 126.292969 C 717.28125 127.429688 719.050781 128.425781 720.867188 129.386719 C 723.773438 130.9375 726.652344 132.539062 729.503906 134.183594 L 729.503906 135.582031 L 731.046875 135.816406 C 733.085938 136.300781 734.457031 136.953125 736.222656 138.066406 L 737.820312 139.03125 C 739.441406 140.628906 740.171875 142.136719 740.929688 144.265625 C 741.84375 147.980469 741.707031 151.796875 741.726562 155.601562 L 741.765625 158.347656 C 741.796875 160.738281 741.820312 163.128906 741.835938 165.519531 C 741.859375 167.96875 741.890625 170.414062 741.921875 172.863281 C 741.980469 177.648438 742.027344 182.4375 742.066406 187.226562 L 745.429688 185.554688 L 747.320312 184.617188 C 749.257812 183.628906 751.09375 182.546875 752.929688 181.382812 L 755.207031 179.96875 C 756.855469 178.945312 758.5 177.917969 760.140625 176.886719 C 762.441406 175.453125 764.75 174.035156 767.0625 172.613281 L 769.332031 171.1875 C 775.425781 167.464844 775.425781 167.464844 778.679688 166.9375 C 781.152344 166.988281 782.425781 167.222656 784.554688 168.425781 L 786.324219 169.40625 L 788.128906 170.476562 L 789.976562 171.570312 C 791.164062 172.28125 792.34375 172.996094 793.523438 173.714844 C 795.40625 174.839844 797.316406 175.820312 799.296875 176.757812 L 799.296875 178.152344 L 800.953125 178.460938 C 802.785156 178.851562 802.785156 178.851562 804.183594 179.550781 L 804.183594 180.945312 L 806.027344 181.507812 C 808.328125 182.324219 810.234375 183.292969 812.339844 184.523438 L 813.539062 185.21875 C 819.125 188.472656 824.675781 191.785156 830.226562 195.097656 C 834.101562 197.402344 837.984375 199.683594 841.9375 201.851562 C 844.023438 203 846.085938 204.1875 848.152344 205.371094 L 848.152344 206.769531 L 849.632812 206.941406 C 852.132812 207.59375 853.777344 208.707031 855.828125 210.257812 C 857.222656 212.351562 857.222656 212.351562 857.394531 214.597656 C 857.398438 215.542969 857.394531 216.488281 857.382812 217.433594 L 857.386719 219.015625 C 857.386719 220.765625 857.375 222.515625 857.363281 224.265625 C 857.363281 225.515625 857.359375 226.765625 857.359375 228.011719 C 857.355469 231.414062 857.339844 234.8125 857.324219 238.214844 C 857.3125 241.820312 857.304688 245.429688 857.300781 249.035156 C 857.285156 255.03125 857.269531 261.03125 857.25 267.027344 C 857.226562 275.167969 857.210938 283.308594 857.203125 291.449219 L 857.191406 298.996094 L 857.191406 300.875 C 857.15625 327.609375 857.085938 354.347656 857.023438 381.085938 L 857 389.894531 L 856.996094 392.105469 C 856.96875 404.085938 856.945312 416.070312 856.925781 428.050781 C 856.902344 440.480469 856.878906 452.914062 856.84375 465.34375 C 856.828125 472.273438 856.8125 479.203125 856.804688 486.132812 C 856.796875 491.984375 856.78125 497.835938 856.765625 503.683594 C 856.753906 506.664062 856.746094 509.640625 856.746094 512.617188 C 856.746094 515.339844 856.738281 518.0625 856.726562 520.785156 C 856.722656 521.769531 856.722656 522.753906 856.722656 523.738281 C 856.722656 525.074219 856.714844 526.410156 856.707031 527.746094 L 856.703125 529.996094 C 856.515625 532.113281 856.089844 533.59375 855.128906 535.488281 C 852.449219 538.011719 849.636719 539.863281 846.449219 541.726562 C 845.527344 542.269531 844.601562 542.816406 843.679688 543.359375 L 842.144531 544.265625 C 830.257812 551.324219 818.332031 558.441406 806.933594 566.273438 C 805.332031 567.296875 803.699219 568.261719 802.035156 569.167969 C 797.933594 571.417969 793.980469 573.894531 790.003906 576.359375 C 787.992188 577.605469 785.976562 578.851562 783.960938 580.09375 C 780.253906 582.378906 776.519531 584.605469 772.777344 586.828125 C 768.746094 589.222656 764.851562 591.703125 761.054688 594.457031 C 758.75 596.027344 756.304688 597.292969 753.847656 598.601562 C 750.554688 600.394531 747.394531 602.390625 744.214844 604.378906 C 742.488281 605.449219 740.757812 606.515625 739.027344 607.578125 L 735.046875 610.03125 L 733.105469 611.226562 L 731.269531 612.359375 L 729.628906 613.371094 C 728.082031 614.332031 728.082031 614.332031 726.648438 615.523438 L 725.316406 616.445312 L 723.222656 616.445312 L 723.222656 617.839844 C 722.238281 618.558594 722.238281 618.558594 720.839844 619.339844 L 719.253906 620.234375 L 717.511719 621.199219 C 712.402344 624.089844 707.355469 627.085938 702.375 630.183594 L 700.496094 631.355469 L 696.917969 633.585938 C 694.773438 634.921875 692.621094 636.238281 690.464844 637.558594 C 687.40625 639.441406 684.367188 641.359375 681.347656 643.316406 C 676.246094 646.609375 671.082031 649.792969 665.894531 652.949219 L 661.023438 655.921875 L 659.390625 656.917969 C 655.8125 659.105469 652.257812 661.339844 648.726562 663.609375 C 647.335938 664.484375 645.921875 665.324219 644.488281 666.128906 C 642.21875 667.378906 642.21875 667.378906 639.996094 668.964844 L 638.078125 670.183594 L 635.984375 670.183594 L 635.984375 671.582031 L 634.625 672.300781 C 629.898438 674.835938 625.3125 677.546875 620.765625 680.394531 C 618.898438 681.5625 617.027344 682.726562 615.152344 683.890625 L 610.683594 686.671875 L 608.53125 688.011719 C 605.371094 689.988281 602.226562 691.976562 599.136719 694.0625 C 596.589844 695.773438 593.996094 697.300781 591.316406 698.800781 C 589.625 699.792969 587.9375 700.796875 586.257812 701.808594 L 584.878906 702.636719 C 580.933594 705.015625 577.042969 707.472656 573.171875 709.964844 C 571.835938 710.824219 570.496094 711.683594 569.160156 712.539062 L 567.382812 713.683594 C 565.582031 714.796875 563.75 715.847656 561.90625 716.894531 C 559.636719 718.207031 557.421875 719.605469 555.199219 721.003906 L 553.707031 721.9375 C 551.054688 723.601562 548.410156 725.28125 545.777344 726.976562 L 543.976562 728.109375 C 542.714844 728.90625 541.460938 729.710938 540.214844 730.53125 C 528.238281 738.417969 528.238281 738.417969 523.445312 738.800781 C 518.410156 738.179688 514.125 735.300781 509.921875 732.640625 C 508.058594 731.472656 506.179688 730.34375 504.292969 729.214844 C 502.941406 728.398438 501.589844 727.578125 500.238281 726.761719 L 498.253906 725.558594 L 496.421875 724.429688 L 494.777344 723.421875 L 493.609375 722.527344 L 493.609375 721.132812 L 491.601562 720.742188 C 488.421875 719.855469 486.050781 717.976562 483.441406 716.007812 C 481.757812 714.859375 480.167969 714.136719 478.253906 713.457031 L 478.253906 712.058594 L 476.160156 712.058594 L 476.160156 710.664062 L 474.683594 710.472656 C 472.246094 709.859375 470.539062 708.8125 468.410156 707.480469 L 467.214844 706.738281 C 465.964844 705.957031 464.714844 705.171875 463.46875 704.382812 C 462.210938 703.597656 460.957031 702.8125 459.699219 702.027344 C 458.5625 701.320312 457.429688 700.605469 456.292969 699.894531 C 454.613281 698.820312 454.613281 698.820312 453.128906 698.101562 L 453.128906 696.707031 L 451.917969 696.460938 C 450.203125 695.96875 448.929688 695.277344 447.40625 694.351562 L 445.699219 693.324219 L 443.882812 692.214844 L 441.992188 691.066406 C 435.15625 686.910156 428.382812 682.660156 421.621094 678.382812 L 419.785156 677.21875 C 418.597656 676.46875 417.410156 675.714844 416.222656 674.964844 L 414.597656 673.933594 L 413.152344 673.015625 C 411.941406 672.246094 411.941406 672.246094 410.558594 671.582031 L 410.558594 670.183594 L 409.160156 670.054688 C 406.285156 669.273438 403.816406 667.855469 401.484375 665.996094 L 401.484375 664.601562 L 400 664.40625 C 397.589844 663.800781 395.933594 662.773438 393.84375 661.433594 L 391.425781 659.90625 L 390.175781 659.109375 C 388.15625 657.839844 386.109375 656.613281 384.066406 655.382812 L 380.484375 653.203125 C 379.667969 652.710938 378.851562 652.214844 378.03125 651.722656 C 376.828125 650.996094 375.625 650.269531 374.425781 649.535156 L 372.296875 648.25 L 370.777344 647.152344 L 370.777344 645.757812 L 369.632812 645.542969 C 367.5625 644.9375 365.851562 643.976562 363.972656 642.921875 L 361.890625 641.765625 L 360.308594 640.871094 L 360.308594 639.476562 L 358.855469 639.300781 C 356.3125 638.648438 354.328125 637.398438 352.148438 635.988281 C 349.308594 634.144531 349.308594 634.144531 346.347656 632.496094 L 346.347656 631.101562 L 345.132812 630.851562 C 343.445312 630.371094 342.195312 629.707031 340.695312 628.796875 L 339.023438 627.789062 L 337.234375 626.695312 L 335.375 625.574219 C 330.476562 622.585938 325.609375 619.546875 320.777344 616.453125 C 317.722656 614.5 314.613281 612.636719 311.453125 610.863281 L 311.453125 609.464844 L 309.308594 608.945312 C 306.507812 608.144531 304.265625 606.808594 301.8125 605.234375 C 301.023438 604.730469 300.234375 604.230469 299.445312 603.726562 L 297.496094 602.488281 L 296.097656 601.789062 L 296.097656 600.394531 L 294.910156 600.15625 C 293.085938 599.632812 291.636719 598.851562 289.992188 597.90625 L 288.300781 596.945312 L 287.027344 596.207031 L 287.027344 594.808594 L 284.933594 594.808594 L 284.933594 593.414062 L 283.320312 593.152344 C 281.441406 592.714844 281.441406 592.714844 279.347656 591.320312 L 279.347656 589.925781 L 278.113281 589.664062 C 276.550781 589.226562 275.375 588.660156 273.972656 587.847656 L 272.449219 586.96875 L 270.800781 586 L 269.046875 584.976562 C 263.632812 581.792969 258.308594 578.46875 252.992188 575.121094 C 247.207031 571.480469 241.382812 567.914062 235.535156 564.375 L 233.621094 563.214844 L 231.941406 562.199219 C 230.746094 561.457031 229.566406 560.699219 228.402344 559.914062 L 228.402344 558.519531 L 226.308594 558.082031 C 223.570312 557.285156 221.496094 555.917969 219.1875 554.277344 C 217.46875 552.4375 216.578125 550.425781 215.839844 548.050781 C 215.558594 546.019531 215.554688 544.023438 215.574219 541.980469 L 215.5625 540.179688 C 215.554688 538.199219 215.5625 536.21875 215.566406 534.234375 C 215.5625 532.8125 215.5625 531.386719 215.554688 529.964844 C 215.546875 526.101562 215.550781 522.242188 215.558594 518.378906 C 215.5625 514.335938 215.558594 510.292969 215.554688 506.25 C 215.550781 499.464844 215.554688 492.675781 215.566406 485.890625 C 215.578125 478.042969 215.574219 470.195312 215.5625 462.347656 C 215.550781 455.609375 215.550781 448.871094 215.554688 442.132812 C 215.558594 438.109375 215.558594 434.085938 215.554688 430.0625 C 215.546875 426.277344 215.550781 422.496094 215.5625 418.714844 C 215.566406 417.324219 215.566406 415.9375 215.5625 414.546875 C 215.554688 412.652344 215.5625 410.757812 215.574219 408.863281 L 215.558594 407.199219 C 215.585938 404.667969 215.859375 402.832031 216.839844 400.484375 C 220.3125 394.808594 228.152344 391.707031 233.773438 388.457031 C 236.394531 386.941406 239.007812 385.402344 241.617188 383.863281 L 243.113281 382.988281 C 246.425781 381.042969 249.714844 379.058594 252.976562 377.03125 C 254.222656 376.363281 254.222656 376.363281 255.621094 376.363281 C 253.460938 373.980469 251.230469 372.542969 248.421875 370.996094 C 247.539062 370.503906 246.660156 370.011719 245.777344 369.515625 L 244.410156 368.75 C 240.917969 366.777344 237.492188 364.699219 234.070312 362.609375 C 233.011719 361.964844 231.953125 361.320312 230.890625 360.679688 C 229.097656 359.589844 227.308594 358.488281 225.523438 357.386719 L 223.816406 356.359375 L 222.203125 355.351562 L 220.777344 354.476562 C 218.808594 352.917969 217.15625 351.277344 215.839844 349.144531 C 215.503906 347.210938 215.371094 345.714844 215.40625 343.792969 L 215.390625 342.203125 C 215.378906 340.449219 215.394531 338.699219 215.410156 336.945312 C 215.40625 335.6875 215.402344 334.429688 215.398438 333.167969 C 215.386719 329.753906 215.398438 326.339844 215.414062 322.925781 C 215.429688 319.351562 215.425781 315.777344 215.425781 312.203125 C 215.425781 306.199219 215.4375 300.195312 215.460938 294.191406 C 215.484375 287.253906 215.492188 280.316406 215.488281 273.375 C 215.484375 266.699219 215.492188 260.023438 215.503906 253.347656 C 215.507812 250.503906 215.511719 247.664062 215.511719 244.824219 C 215.511719 241.476562 215.519531 238.132812 215.539062 234.789062 C 215.542969 233.558594 215.542969 232.332031 215.542969 231.105469 C 215.539062 229.429688 215.546875 227.753906 215.5625 226.078125 L 215.550781 224.609375 C 215.585938 222.246094 215.898438 220.582031 216.816406 218.386719 C 218.402344 215.765625 220.199219 214.429688 222.863281 212.941406 C 224.117188 212.265625 225.371094 211.59375 226.628906 210.921875 C 234.605469 206.585938 242.300781 201.6875 249.984375 196.847656 C 254.257812 194.164062 258.585938 191.574219 262.917969 188.984375 C 266.660156 186.746094 270.394531 184.488281 274.113281 182.210938 C 280.265625 178.445312 286.425781 174.695312 292.59375 170.957031 L 296.425781 168.632812 C 299.398438 166.828125 302.375 165.019531 305.347656 163.207031 C 314.582031 157.578125 323.863281 152.015625 333.183594 146.527344 C 344.28125 139.996094 355.339844 133.410156 366.339844 126.714844 C 375.136719 121.359375 383.972656 116.066406 392.8125 110.777344 L 397.863281 107.75 L 399.527344 106.753906 C 403.320312 104.476562 407.105469 102.1875 410.878906 99.886719 L 413.390625 98.359375 C 421.648438 93.339844 429.9375 88.382812 438.269531 83.484375 C 445.871094 79 453.402344 74.398438 460.945312 69.8125 C 470.332031 64.109375 479.753906 58.457031 489.179688 52.816406 C 490.917969 51.777344 492.65625 50.734375 494.394531 49.695312 L 496.09375 48.675781 C 499.746094 46.484375 503.382812 44.273438 507.015625 42.054688 C 513.417969 38.140625 519.839844 34.265625 526.285156 30.421875 C 527.117188 29.925781 527.949219 29.429688 528.785156 28.929688 C 529.949219 28.234375 531.117188 27.539062 532.285156 26.847656 L 534.3125 25.640625 C 538.777344 23.183594 538.777344 23.183594 541.617188 23.285156 " fill-opacity="1" fill-rule="nonzero"/><path fill="#f34d45" d="M 541.617188 23.285156 C 544.585938 24.117188 547.042969 25.476562 549.703125 27.011719 L 551.378906 27.957031 C 555.417969 30.265625 559.375 32.6875 563.296875 35.191406 C 567.675781 37.972656 572.171875 40.535156 576.703125 43.050781 L 578.339844 43.980469 L 579.808594 44.796875 L 580.847656 45.550781 L 580.847656 46.945312 L 582.039062 47.183594 C 583.859375 47.707031 585.28125 48.476562 586.921875 49.421875 L 588.824219 50.511719 L 590.792969 51.65625 L 592.730469 52.769531 C 596.496094 54.9375 600.210938 57.183594 603.878906 59.507812 C 607.300781 61.609375 610.757812 63.644531 614.253906 65.621094 L 616.082031 66.660156 C 617.304688 67.355469 618.53125 68.046875 619.757812 68.734375 L 621.464844 69.703125 L 623.011719 70.578125 L 624.121094 71.371094 L 624.121094 72.769531 L 625.328125 73.027344 C 626.980469 73.484375 628.359375 74.121094 629.878906 74.90625 L 631.371094 75.671875 L 632.496094 76.257812 L 632.496094 77.652344 L 633.691406 77.894531 C 635.480469 78.40625 636.878906 79.152344 638.496094 80.082031 L 640.351562 81.144531 L 642.308594 82.277344 L 644.3125 83.429688 C 648.25 85.707031 652.109375 88.054688 655.917969 90.539062 C 658.953125 92.449219 662.125 94.125 665.296875 95.800781 L 665.296875 97.195312 L 666.464844 97.425781 C 671.625 98.910156 676.378906 102.378906 680.738281 105.429688 C 682.109375 106.386719 682.109375 106.386719 684.140625 106.964844 L 684.140625 108.363281 L 685.324219 108.589844 C 687.214844 109.140625 688.644531 109.964844 690.335938 110.980469 L 692.546875 112.296875 L 693.832031 113.066406 C 695.566406 114.097656 697.308594 115.121094 699.050781 116.140625 L 703.113281 118.527344 L 705.074219 119.671875 C 708.640625 121.769531 712.136719 123.976562 715.5625 126.292969 C 717.28125 127.429688 719.050781 128.425781 720.867188 129.386719 C 723.773438 130.9375 726.652344 132.539062 729.503906 134.183594 L 729.503906 135.582031 L 731.042969 135.808594 C 733.144531 136.316406 734.511719 137.050781 736.308594 138.242188 L 737.957031 139.300781 L 739.277344 140.464844 C 739.707031 141.933594 739.707031 141.933594 739.972656 143.257812 C 732.613281 147.992188 725.25 152.699219 717.726562 157.171875 C 709.011719 162.359375 700.4375 167.769531 691.851562 173.167969 C 682.863281 178.8125 673.832031 184.382812 664.753906 189.878906 C 659.25 193.210938 653.769531 196.574219 648.304688 199.972656 C 643.90625 202.695312 639.496094 205.398438 635.066406 208.078125 C 629.605469 211.394531 624.167969 214.753906 618.753906 218.152344 C 612.648438 221.980469 606.511719 225.761719 600.347656 229.496094 L 599.097656 230.25 C 597.050781 231.492188 595.003906 232.730469 592.953125 233.96875 C 583.953125 239.414062 574.972656 244.882812 566.0625 250.476562 C 560.734375 253.816406 555.394531 257.128906 550.007812 260.378906 L 548.277344 261.429688 L 546.664062 262.398438 L 545.269531 263.234375 C 543.679688 264.09375 542.050781 264.734375 540.371094 265.394531 C 540.035156 282.683594 539.8125 299.972656 539.703125 317.265625 C 539.652344 325.296875 539.566406 333.324219 539.402344 341.351562 C 539.253906 348.355469 539.179688 355.355469 539.171875 362.359375 C 539.167969 366.066406 539.132812 369.765625 539.019531 373.46875 C 538.25 386.671875 538.25 386.671875 541.066406 399.394531 C 543.300781 402.652344 546.390625 404.496094 549.839844 406.285156 C 552.1875 407.316406 554.574219 408.242188 557 409.0625 C 560.210938 410.222656 563.023438 411.898438 565.929688 413.65625 C 570.320312 416.113281 574.785156 418.40625 579.308594 420.613281 C 581.210938 421.542969 583.039062 422.484375 584.828125 423.625 C 586.53125 424.746094 586.53125 424.746094 589.222656 424.519531 L 589.921875 425.914062 L 591.667969 426.261719 L 593.410156 426.613281 L 594.109375 428.007812 L 595.765625 428.3125 L 597.597656 428.707031 C 598.3125 429.390625 599.007812 430.085938 599.691406 430.800781 C 601.507812 431.628906 601.507812 431.628906 603.183594 432.195312 L 603.183594 433.589844 C 603.679688 433.71875 604.171875 433.84375 604.683594 433.976562 L 606.628906 434.507812 L 608.566406 435.023438 L 610.160156 435.683594 L 610.859375 437.777344 C 612.238281 438.296875 613.640625 438.746094 615.046875 439.175781 C 617.160156 440.066406 619.242188 441.011719 621.328125 441.964844 L 621.328125 443.363281 L 622.738281 443.882812 C 625.300781 444.960938 627.703125 446.261719 630.140625 447.59375 C 633.660156 449.535156 633.660156 449.535156 637.378906 451.039062 L 637.378906 452.433594 L 638.578125 452.691406 L 640.128906 453.046875 L 641.671875 453.390625 L 642.964844 453.832031 L 643.660156 455.226562 C 645.132812 456.011719 645.132812 456.011719 646.847656 456.710938 L 648.59375 457.457031 L 649.941406 458.019531 L 649.941406 459.414062 L 651.21875 459.824219 L 652.910156 460.375 L 654.578125 460.914062 C 657.265625 461.882812 659.171875 462.886719 661.109375 464.996094 L 662.503906 466.394531 C 658.4375 469.71875 654.328125 472.507812 649.726562 475.03125 C 643.675781 478.417969 637.714844 481.9375 631.796875 485.542969 L 630.527344 486.316406 C 624.65625 489.894531 618.796875 493.503906 612.957031 497.136719 C 607.488281 500.53125 601.980469 503.863281 596.472656 507.195312 C 589.957031 511.140625 583.488281 515.152344 577.039062 519.207031 C 571.46875 522.699219 565.839844 526.09375 560.191406 529.460938 C 557.617188 531 555.050781 532.558594 552.496094 534.136719 L 550.398438 535.417969 C 548.527344 536.585938 546.671875 537.773438 544.824219 538.980469 L 541.417969 541.15625 L 539.796875 542.238281 C 538.378906 543.136719 537.042969 543.9375 535.484375 544.558594 C 533.613281 544.191406 533.613281 544.191406 531.996094 543.164062 L 530.089844 542.285156 C 525.910156 540.234375 521.871094 537.933594 517.976562 535.382812 C 515.710938 533.945312 513.394531 532.613281 511.058594 531.300781 C 507.453125 529.261719 503.914062 527.117188 500.4375 524.867188 C 498.269531 523.476562 496.070312 522.132812 493.871094 520.785156 C 491.246094 519.179688 488.652344 517.542969 486.105469 515.816406 C 483.679688 514.171875 481.1875 512.742188 478.613281 511.347656 C 475.765625 509.746094 473.003906 508.011719 470.230469 506.285156 C 468.320312 505.105469 466.402344 503.941406 464.472656 502.789062 C 460.777344 500.570312 457.097656 498.328125 453.4375 496.054688 L 451.574219 494.90625 C 448.097656 492.757812 444.671875 490.558594 441.292969 488.257812 C 439.3125 486.96875 437.242188 485.863281 435.160156 484.738281 C 433.515625 483.800781 431.96875 482.773438 430.402344 481.703125 C 428.105469 480.140625 425.804688 478.875 423.296875 477.679688 C 421.535156 476.761719 419.898438 475.722656 418.230469 474.640625 C 414.097656 471.992188 409.894531 469.46875 405.671875 466.960938 C 399.695312 463.398438 393.773438 459.753906 387.902344 456.019531 C 384.695312 453.976562 381.457031 451.980469 378.191406 450.035156 C 373.480469 447.234375 368.820312 444.355469 364.160156 441.464844 C 359.234375 438.410156 354.300781 435.363281 349.359375 432.324219 L 347.070312 430.917969 L 342.433594 428.066406 C 338.429688 425.605469 334.429688 423.140625 330.429688 420.679688 L 326.140625 418.039062 L 324.078125 416.769531 C 322.515625 415.8125 320.949219 414.863281 319.375 413.925781 L 318.101562 413.160156 C 316.914062 412.449219 315.726562 411.742188 314.535156 411.035156 L 312.847656 409.863281 L 312.847656 408.464844 L 309.359375 407.769531 L 309.359375 406.371094 L 307.238281 405.871094 C 304.253906 405.015625 301.902344 403.535156 299.328125 401.835938 C 298.34375 401.203125 297.359375 400.574219 296.375 399.945312 L 294.847656 398.964844 C 292.347656 397.394531 289.796875 395.90625 287.242188 394.421875 C 281.667969 391.160156 276.15625 387.800781 270.675781 384.378906 C 269.414062 383.589844 268.152344 382.804688 266.890625 382.015625 C 265.636719 381.238281 264.386719 380.457031 263.136719 379.671875 C 259.492188 377.402344 255.792969 375.296875 252.011719 373.257812 C 245.410156 369.636719 239.023438 365.617188 232.589844 361.707031 L 230.550781 360.472656 C 228.722656 359.367188 226.902344 358.246094 225.085938 357.125 L 223.464844 356.144531 C 222.964844 355.835938 222.46875 355.523438 221.957031 355.203125 L 220.664062 354.410156 C 218.75 352.863281 217.132812 351.230469 215.839844 349.144531 C 215.503906 347.210938 215.371094 345.714844 215.40625 343.792969 L 215.390625 342.203125 C 215.378906 340.449219 215.394531 338.699219 215.410156 336.945312 C 215.40625 335.6875 215.402344 334.429688 215.398438 333.167969 C 215.386719 329.753906 215.398438 326.339844 215.414062 322.925781 C 215.429688 319.351562 215.425781 315.777344 215.425781 312.203125 C 215.425781 306.199219 215.4375 300.195312 215.460938 294.191406 C 215.484375 287.253906 215.492188 280.316406 215.488281 273.375 C 215.484375 266.699219 215.492188 260.023438 215.503906 253.347656 C 215.507812 250.503906 215.511719 247.664062 215.511719 244.824219 C 215.511719 241.476562 215.519531 238.132812 215.539062 234.789062 C 215.542969 233.558594 215.542969 232.332031 215.542969 231.105469 C 215.539062 229.429688 215.546875 227.753906 215.5625 226.078125 L 215.550781 224.609375 C 215.585938 222.246094 215.898438 220.582031 216.816406 218.386719 C 218.402344 215.765625 220.199219 214.429688 222.863281 212.941406 C 224.117188 212.265625 225.371094 211.59375 226.628906 210.921875 C 234.605469 206.585938 242.300781 201.6875 249.984375 196.847656 C 254.257812 194.164062 258.585938 191.574219 262.917969 188.984375 C 266.660156 186.746094 270.394531 184.488281 274.113281 182.210938 C 280.265625 178.445312 286.425781 174.695312 292.59375 170.957031 L 296.425781 168.632812 C 299.398438 166.828125 302.375 165.019531 305.347656 163.207031 C 314.582031 157.578125 323.863281 152.015625 333.183594 146.527344 C 344.28125 139.996094 355.339844 133.410156 366.339844 126.714844 C 375.136719 121.359375 383.972656 116.066406 392.8125 110.777344 L 397.863281 107.75 L 399.527344 106.753906 C 403.320312 104.476562 407.105469 102.1875 410.878906 99.886719 L 413.390625 98.359375 C 421.648438 93.339844 429.9375 88.382812 438.269531 83.484375 C 445.871094 79 453.402344 74.398438 460.945312 69.8125 C 470.332031 64.109375 479.753906 58.457031 489.179688 52.816406 C 490.917969 51.777344 492.65625 50.734375 494.394531 49.695312 L 496.09375 48.675781 C 499.746094 46.484375 503.382812 44.273438 507.015625 42.054688 C 513.417969 38.140625 519.839844 34.265625 526.285156 30.421875 C 527.117188 29.925781 527.949219 29.429688 528.785156 28.929688 C 529.949219 28.234375 531.117188 27.539062 532.285156 26.847656 L 534.3125 25.640625 C 538.777344 23.183594 538.777344 23.183594 541.617188 23.285156 " fill-opacity="1" fill-rule="nonzero"/><path fill="#444546" d="M 217.234375 399.394531 L 224.910156 402.183594 L 224.910156 403.582031 L 226.3125 403.734375 C 229.164062 404.476562 231.394531 405.894531 233.898438 407.417969 C 236.023438 408.691406 238.144531 409.972656 240.265625 411.257812 C 241.097656 411.753906 241.925781 412.253906 242.757812 412.75 C 244.40625 413.734375 246.050781 414.722656 247.695312 415.710938 C 250.113281 417.167969 252.53125 418.617188 254.949219 420.0625 C 269.152344 428.570312 269.152344 428.570312 275.542969 432.535156 C 276.753906 433.28125 277.984375 434 279.230469 434.691406 L 280.746094 435.683594 L 280.746094 437.082031 L 282.183594 437.242188 C 284.839844 437.9375 286.890625 439.300781 289.164062 440.789062 C 290.160156 441.425781 291.160156 442.066406 292.160156 442.703125 L 293.753906 443.722656 C 296.574219 445.496094 299.433594 447.195312 302.292969 448.902344 C 309.890625 453.441406 317.472656 458.011719 324.96875 462.71875 L 326.460938 463.65625 C 327.378906 464.234375 328.292969 464.8125 329.207031 465.390625 C 331.480469 466.824219 333.777344 468.183594 336.132812 469.476562 C 339.527344 471.34375 342.804688 473.367188 346.085938 475.421875 C 353.429688 479.992188 360.8125 484.492188 368.203125 488.984375 C 370.460938 490.355469 372.710938 491.730469 374.957031 493.109375 C 379.800781 496.078125 384.660156 499.023438 389.53125 501.945312 L 391.261719 502.984375 C 394.363281 504.84375 397.46875 506.6875 400.585938 508.515625 L 402.546875 509.675781 C 403.796875 510.410156 405.046875 511.144531 406.304688 511.875 L 407.996094 512.875 L 409.496094 513.753906 L 410.558594 514.550781 L 410.558594 515.945312 L 412.402344 516.5 C 414.730469 517.335938 416.636719 518.34375 418.75 519.621094 L 421.007812 520.980469 L 423.335938 522.402344 L 425.644531 523.789062 C 429.53125 526.140625 433.363281 528.539062 437.113281 531.105469 C 439.042969 532.371094 441.066406 533.449219 443.09375 534.550781 C 445.625 535.980469 448.054688 537.566406 450.496094 539.140625 C 452.925781 540.6875 455.398438 542.15625 457.875 543.628906 C 459.117188 544.390625 460.34375 545.179688 461.546875 546 C 463.078125 547.007812 464.648438 547.945312 466.261719 548.816406 C 470.335938 551.066406 474.308594 553.484375 478.28125 555.90625 C 479.554688 556.679688 480.832031 557.457031 482.109375 558.230469 C 487.890625 561.742188 493.65625 565.277344 499.273438 569.054688 C 502.023438 570.871094 504.859375 572.539062 507.699219 574.222656 C 515.425781 578.828125 523.109375 583.535156 530.597656 588.527344 C 530.953125 589.835938 530.953125 589.835938 531.074219 591.394531 L 531.210938 593.101562 C 531.335938 595.609375 531.382812 598.105469 531.363281 600.617188 L 531.359375 602.277344 C 531.355469 604.097656 531.34375 605.917969 531.332031 607.734375 L 531.320312 611.671875 C 531.308594 615.222656 531.292969 618.773438 531.273438 622.320312 C 531.257812 625.289062 531.246094 628.257812 531.230469 631.222656 C 531.199219 638.226562 531.164062 645.226562 531.128906 652.226562 C 531.089844 659.445312 531.058594 666.660156 531.03125 673.878906 C 531.007812 680.082031 530.980469 686.285156 530.945312 692.488281 C 530.925781 696.191406 530.910156 699.894531 530.898438 703.59375 C 530.886719 707.074219 530.867188 710.554688 530.84375 714.035156 C 530.835938 715.3125 530.832031 716.585938 530.828125 717.859375 C 530.824219 719.605469 530.8125 721.347656 530.796875 723.09375 L 530.800781 724.613281 C 530.757812 728.105469 530.246094 731.078125 529.203125 734.394531 C 527.371094 736.09375 527.371094 736.09375 525.714844 737.183594 L 525.714844 737.882812 C 522.425781 738.132812 519.976562 738.109375 516.890625 736.828125 C 516.042969 736.335938 515.203125 735.828125 514.371094 735.308594 L 512.984375 734.484375 C 511.96875 733.875 510.960938 733.261719 509.953125 732.640625 C 508.070312 731.488281 506.183594 730.34375 504.285156 729.214844 C 502.9375 728.398438 501.585938 727.578125 500.238281 726.761719 L 498.253906 725.558594 L 496.421875 724.429688 L 494.777344 723.421875 L 493.609375 722.527344 L 493.609375 721.132812 L 491.601562 720.742188 C 488.421875 719.855469 486.050781 717.976562 483.441406 716.007812 C 481.757812 714.859375 480.167969 714.136719 478.253906 713.457031 L 478.253906 712.058594 L 476.160156 712.058594 L 476.160156 710.664062 L 474.683594 710.472656 C 472.246094 709.859375 470.539062 708.8125 468.410156 707.480469 L 467.214844 706.738281 C 465.964844 705.957031 464.714844 705.171875 463.46875 704.382812 C 462.210938 703.597656 460.957031 702.8125 459.699219 702.027344 C 458.5625 701.320312 457.429688 700.605469 456.292969 699.894531 C 454.613281 698.820312 454.613281 698.820312 453.128906 698.101562 L 453.128906 696.707031 L 451.917969 696.460938 C 450.203125 695.96875 448.929688 695.277344 447.40625 694.351562 L 445.699219 693.324219 L 443.882812 692.214844 L 441.992188 691.066406 C 435.15625 686.910156 428.382812 682.660156 421.621094 678.382812 L 419.785156 677.21875 C 418.597656 676.46875 417.410156 675.714844 416.222656 674.964844 L 414.597656 673.933594 L 413.152344 673.015625 C 411.941406 672.246094 411.941406 672.246094 410.558594 671.582031 L 410.558594 670.183594 L 409.160156 670.054688 C 406.285156 669.273438 403.816406 667.855469 401.484375 665.996094 L 401.484375 664.601562 L 400 664.40625 C 397.589844 663.800781 395.933594 662.773438 393.84375 661.433594 L 391.425781 659.90625 L 390.175781 659.109375 C 388.15625 657.839844 386.109375 656.613281 384.066406 655.382812 L 380.484375 653.203125 C 379.667969 652.710938 378.851562 652.214844 378.03125 651.722656 C 376.828125 650.996094 375.625 650.269531 374.425781 649.535156 L 372.296875 648.25 L 370.777344 647.152344 L 370.777344 645.757812 L 369.632812 645.542969 C 367.5625 644.9375 365.851562 643.976562 363.972656 642.921875 L 361.890625 641.765625 L 360.308594 640.871094 L 360.308594 639.476562 L 358.855469 639.300781 C 356.3125 638.648438 354.328125 637.398438 352.148438 635.988281 C 349.308594 634.144531 349.308594 634.144531 346.347656 632.496094 L 346.347656 631.101562 L 345.132812 630.851562 C 343.445312 630.371094 342.195312 629.707031 340.695312 628.796875 L 339.023438 627.789062 L 337.234375 626.695312 L 335.375 625.574219 C 330.476562 622.585938 325.609375 619.546875 320.777344 616.453125 C 317.722656 614.5 314.613281 612.636719 311.453125 610.863281 L 311.453125 609.464844 L 309.308594 608.945312 C 306.507812 608.144531 304.265625 606.808594 301.8125 605.234375 C 301.023438 604.730469 300.234375 604.230469 299.445312 603.726562 L 297.496094 602.488281 L 296.097656 601.789062 L 296.097656 600.394531 L 294.910156 600.15625 C 293.085938 599.632812 291.636719 598.851562 289.992188 597.90625 L 288.300781 596.945312 C 287.882812 596.699219 287.460938 596.457031 287.027344 596.207031 L 287.027344 594.808594 L 284.933594 594.808594 L 284.933594 593.414062 L 283.320312 593.152344 C 281.441406 592.714844 281.441406 592.714844 279.347656 591.320312 L 279.347656 589.925781 L 278.113281 589.664062 C 276.550781 589.226562 275.375 588.660156 273.972656 587.847656 L 272.449219 586.96875 L 270.800781 586 L 269.046875 584.976562 C 263.632812 581.792969 258.308594 578.46875 252.992188 575.121094 C 247.207031 571.480469 241.382812 567.914062 235.535156 564.375 L 233.621094 563.214844 L 231.941406 562.199219 C 230.746094 561.457031 229.566406 560.699219 228.402344 559.914062 L 228.402344 558.519531 L 226.308594 558.082031 C 223.570312 557.285156 221.496094 555.917969 219.1875 554.277344 C 217.46875 552.4375 216.578125 550.425781 215.839844 548.050781 C 215.558594 546.019531 215.558594 544.023438 215.578125 541.972656 L 215.570312 540.171875 C 215.5625 538.191406 215.570312 536.207031 215.578125 534.226562 C 215.578125 532.800781 215.574219 531.375 215.570312 529.949219 C 215.5625 526.085938 215.570312 522.21875 215.582031 518.355469 C 215.589844 514.3125 215.585938 510.265625 215.582031 506.222656 C 215.582031 499.429688 215.589844 492.640625 215.605469 485.851562 C 215.617188 478 215.621094 470.144531 215.617188 462.292969 C 215.613281 454.738281 215.617188 447.1875 215.625 439.632812 C 215.628906 436.417969 215.628906 433.203125 215.628906 429.988281 C 215.625 426.203125 215.628906 422.417969 215.640625 418.632812 C 215.644531 417.246094 215.644531 415.855469 215.644531 414.464844 C 215.640625 412.570312 215.648438 410.675781 215.65625 408.78125 L 215.648438 407.109375 C 215.671875 404.03125 216.050781 402.351562 217.234375 399.394531 " fill-opacity="1" fill-rule="nonzero"/><path fill="#454647" d="M 738.578125 143.257812 L 740.671875 143.257812 C 741.367188 145.582031 741.476562 147.726562 741.511719 150.144531 L 741.554688 152.644531 L 741.589844 155.328125 L 741.632812 158.085938 C 741.671875 160.5 741.707031 162.914062 741.742188 165.328125 C 741.777344 167.792969 741.8125 170.261719 741.851562 172.726562 C 741.929688 177.558594 742 182.394531 742.066406 187.226562 L 745.429688 185.554688 L 747.320312 184.617188 C 749.257812 183.628906 751.09375 182.546875 752.929688 181.382812 L 755.207031 179.96875 C 756.855469 178.945312 758.5 177.917969 760.140625 176.886719 C 762.441406 175.453125 764.75 174.035156 767.0625 172.613281 L 769.332031 171.1875 C 775.425781 167.464844 775.425781 167.464844 778.679688 166.9375 C 781.152344 166.988281 782.425781 167.222656 784.554688 168.425781 L 786.324219 169.40625 L 788.128906 170.476562 L 789.976562 171.570312 C 791.164062 172.28125 792.34375 172.996094 793.523438 173.714844 C 795.40625 174.839844 797.316406 175.820312 799.296875 176.757812 L 799.296875 178.152344 L 800.953125 178.460938 C 802.785156 178.851562 802.785156 178.851562 804.183594 179.550781 L 804.183594 180.945312 L 806.027344 181.507812 C 808.328125 182.324219 810.234375 183.292969 812.339844 184.523438 L 813.539062 185.21875 C 819.125 188.472656 824.675781 191.785156 830.226562 195.097656 C 834.101562 197.402344 837.984375 199.683594 841.9375 201.851562 C 844.023438 203 846.085938 204.1875 848.152344 205.371094 L 848.152344 206.769531 L 849.722656 206.898438 C 851.640625 207.464844 851.640625 207.464844 853.296875 209.082031 L 854.433594 210.957031 C 854.289062 212.371094 854.289062 212.371094 853.734375 213.746094 C 852.136719 214.902344 850.476562 215.964844 848.761719 216.933594 L 847.382812 217.75 C 845.199219 219.019531 843.066406 220.113281 840.738281 221.105469 C 838.367188 222.128906 836.382812 223.3125 834.238281 224.738281 C 833.382812 225.300781 832.527344 225.859375 831.671875 226.417969 C 831.191406 226.726562 830.714844 227.039062 830.222656 227.363281 C 821.242188 233.164062 812.125 238.746094 802.941406 244.214844 C 799.0625 246.539062 795.214844 248.917969 791.402344 251.347656 C 785.941406 254.820312 780.433594 258.203125 774.902344 261.558594 C 762.402344 269.140625 749.976562 276.839844 737.554688 284.539062 C 735.773438 285.640625 733.992188 286.742188 732.210938 287.84375 C 725.757812 291.832031 719.316406 295.832031 712.886719 299.851562 L 710.769531 301.175781 C 707.230469 303.386719 703.695312 305.605469 700.160156 307.820312 C 693.082031 312.265625 685.984375 316.675781 678.863281 321.050781 L 676.863281 322.289062 L 674.976562 323.441406 L 673.339844 324.445312 C 671.1875 325.628906 668.953125 326.550781 666.691406 327.507812 C 666.195312 341.132812 665.847656 354.757812 665.644531 368.390625 C 665.617188 370.230469 665.589844 372.070312 665.558594 373.910156 C 665.476562 379.1875 665.398438 384.464844 665.320312 389.742188 C 664.652344 434.128906 664.652344 434.128906 664.292969 450.371094 C 664.265625 451.640625 664.238281 452.910156 664.210938 454.175781 C 664.175781 455.882812 664.136719 457.585938 664.097656 459.289062 L 664.070312 460.789062 C 663.980469 464.140625 663.980469 464.140625 663.203125 465.695312 L 659.714844 464.996094 L 659.015625 462.902344 C 657.644531 462.238281 657.644531 462.238281 656.007812 461.8125 C 653.851562 461.183594 651.925781 460.472656 649.941406 459.414062 L 649.941406 458.019531 L 648.417969 457.800781 C 646.261719 457.273438 644.765625 456.515625 642.964844 455.226562 L 642.964844 453.832031 L 640.957031 453.527344 C 638.777344 453.132812 638.777344 453.132812 637.378906 452.433594 L 637.378906 451.039062 L 635.828125 450.789062 C 633.890625 450.339844 632.523438 449.726562 630.800781 448.746094 L 629.117188 447.796875 L 627.390625 446.808594 L 625.625 445.808594 C 624.1875 444.996094 622.757812 444.183594 621.328125 443.363281 L 621.328125 441.964844 L 619.8125 441.722656 C 617.734375 441.246094 616.074219 440.527344 614.175781 439.566406 L 612.332031 438.652344 L 610.859375 437.777344 L 610.160156 436.382812 C 608.527344 435.59375 608.527344 435.59375 606.628906 434.898438 L 604.683594 434.152344 L 603.183594 433.589844 L 603.183594 432.195312 L 601.570312 431.933594 C 599.691406 431.496094 599.691406 431.496094 597.597656 430.101562 L 597.597656 428.707031 L 594.109375 428.707031 L 593.410156 426.613281 L 589.921875 426.613281 L 589.222656 424.519531 L 588.113281 425 C 586.433594 425.214844 586.433594 425.214844 584.378906 424.429688 C 583.53125 424.003906 582.691406 423.566406 581.851562 423.121094 L 580.421875 422.386719 C 568.277344 416.042969 556.25 409.332031 544.558594 402.183594 L 542.355469 401.035156 L 540.371094 399.394531 C 539.914062 397.421875 539.753906 396.011719 539.761719 394.03125 L 539.71875 392.386719 C 539.675781 390.5625 539.664062 388.742188 539.652344 386.917969 C 539.625 385.613281 539.601562 384.308594 539.574219 383.003906 C 539.507812 379.453125 539.46875 375.902344 539.441406 372.351562 C 539.421875 370.128906 539.398438 367.910156 539.375 365.691406 C 539.300781 358.734375 539.25 351.785156 539.222656 344.832031 C 539.1875 336.816406 539.089844 328.800781 538.9375 320.785156 C 538.824219 314.585938 538.761719 308.386719 538.753906 302.183594 C 538.746094 298.480469 538.714844 294.785156 538.617188 291.082031 C 538.136719 271.320312 538.136719 271.320312 540.371094 265.394531 C 542.421875 262.503906 544.621094 260.851562 547.75 259.226562 C 549.730469 258.390625 551.742188 257.652344 553.792969 257.011719 C 556.859375 255.914062 559.425781 254.144531 562.09375 252.308594 L 563.882812 251.167969 L 565.335938 250.242188 C 569.714844 247.46875 574.148438 244.785156 578.582031 242.101562 L 579.847656 241.332031 C 581.941406 240.066406 584.03125 238.800781 586.125 237.535156 C 596.59375 231.203125 607.023438 224.816406 617.414062 218.367188 C 625.5 213.347656 633.589844 208.335938 641.71875 203.382812 C 645.605469 201.011719 649.476562 198.613281 653.34375 196.210938 C 658.773438 192.839844 664.230469 189.515625 669.699219 186.207031 C 676.757812 181.933594 683.78125 177.605469 690.75 173.179688 C 698.265625 168.40625 705.847656 163.738281 713.472656 159.136719 L 719.871094 155.269531 C 725.234375 152.035156 730.546875 148.75 735.667969 145.136719 C 736.613281 144.476562 737.59375 143.863281 738.578125 143.257812 " fill-opacity="1" fill-rule="nonzero"/><path fill="#be2a27" d="M 540.371094 266.089844 L 540.328125 268.144531 C 540.011719 284.65625 539.804688 301.171875 539.703125 317.691406 C 539.652344 325.679688 539.566406 333.664062 539.402344 341.652344 C 539.257812 348.617188 539.175781 355.578125 539.171875 362.546875 C 539.167969 366.234375 539.132812 369.914062 539.019531 373.601562 C 538.253906 386.734375 538.253906 386.734375 541.066406 399.394531 C 543.304688 402.644531 546.394531 404.488281 549.839844 406.277344 C 552.1875 407.308594 554.574219 408.238281 557 409.058594 C 560.207031 410.222656 563.023438 411.898438 565.929688 413.65625 C 570.320312 416.113281 574.785156 418.40625 579.304688 420.613281 C 581.210938 421.542969 583.039062 422.484375 584.828125 423.625 C 586.53125 424.746094 586.53125 424.746094 589.222656 424.519531 L 589.921875 425.914062 L 591.667969 426.261719 L 593.410156 426.613281 L 594.109375 428.007812 L 595.765625 428.3125 L 597.597656 428.707031 C 598.3125 429.390625 599.007812 430.085938 599.691406 430.800781 C 601.507812 431.628906 601.507812 431.628906 603.183594 432.195312 L 603.183594 433.589844 C 603.679688 433.71875 604.171875 433.84375 604.683594 433.976562 L 606.628906 434.507812 L 608.566406 435.023438 L 610.160156 435.683594 L 610.859375 437.777344 C 612.238281 438.296875 613.640625 438.746094 615.046875 439.175781 C 617.160156 440.066406 619.242188 441.011719 621.328125 441.964844 L 621.328125 443.363281 L 622.738281 443.882812 C 625.300781 444.960938 627.703125 446.261719 630.140625 447.59375 C 633.660156 449.535156 633.660156 449.535156 637.378906 451.039062 L 637.378906 452.433594 L 638.578125 452.691406 L 640.128906 453.046875 L 641.671875 453.390625 L 642.964844 453.832031 L 643.660156 455.226562 C 645.132812 456.011719 645.132812 456.011719 646.847656 456.710938 L 648.59375 457.457031 L 649.941406 458.019531 L 649.941406 459.414062 L 651.21875 459.824219 L 652.910156 460.375 L 654.578125 460.914062 C 657.265625 461.882812 659.171875 462.886719 661.109375 464.996094 L 662.503906 466.394531 C 658.4375 469.71875 654.328125 472.507812 649.726562 475.03125 C 643.675781 478.417969 637.714844 481.9375 631.796875 485.542969 L 630.527344 486.316406 C 624.65625 489.894531 618.796875 493.503906 612.957031 497.136719 C 607.488281 500.53125 601.980469 503.863281 596.472656 507.195312 C 589.957031 511.140625 583.488281 515.152344 577.039062 519.207031 C 571.46875 522.699219 565.839844 526.09375 560.191406 529.460938 C 557.617188 531 555.050781 532.558594 552.496094 534.136719 L 550.398438 535.417969 C 548.527344 536.585938 546.671875 537.773438 544.824219 538.980469 L 541.417969 541.15625 L 539.796875 542.238281 C 538.378906 543.136719 537.042969 543.9375 535.484375 544.558594 C 533.613281 544.191406 533.613281 544.191406 531.996094 543.164062 L 530.089844 542.285156 C 525.910156 540.234375 521.871094 537.933594 517.976562 535.382812 C 515.710938 533.945312 513.394531 532.613281 511.058594 531.300781 C 507.453125 529.261719 503.914062 527.117188 500.4375 524.867188 C 498.269531 523.476562 496.070312 522.132812 493.871094 520.785156 C 491.246094 519.179688 488.652344 517.542969 486.105469 515.816406 C 483.679688 514.171875 481.1875 512.742188 478.613281 511.347656 C 475.765625 509.746094 473.003906 508.011719 470.230469 506.285156 C 468.320312 505.105469 466.402344 503.941406 464.472656 502.789062 C 460.777344 500.570312 457.097656 498.328125 453.4375 496.054688 C 452.820312 495.675781 452.207031 495.296875 451.574219 494.90625 C 448.097656 492.757812 444.671875 490.558594 441.292969 488.257812 C 439.3125 486.96875 437.242188 485.863281 435.160156 484.738281 C 433.515625 483.800781 431.96875 482.773438 430.402344 481.703125 C 428.503906 480.410156 426.628906 479.261719 424.558594 478.257812 L 423.28125 477.621094 C 422.183594 477.089844 421.074219 476.582031 419.949219 476.101562 C 417.949219 475.125 416.382812 474.1875 414.746094 472.675781 C 413.738281 469.90625 413.851562 467.273438 413.941406 464.351562 L 413.933594 461.8125 C 413.9375 459.511719 413.96875 457.210938 414.015625 454.910156 C 414.054688 452.460938 414.058594 450.011719 414.0625 447.558594 C 414.082031 442.875 414.136719 438.195312 414.203125 433.511719 C 414.273438 428.339844 414.304688 423.164062 414.335938 417.992188 C 414.386719 408.433594 414.492188 398.875 414.628906 389.316406 C 414.703125 383.980469 414.765625 378.640625 414.804688 373.304688 C 414.832031 369.222656 414.875 365.140625 414.921875 361.0625 C 414.941406 359.378906 414.953125 357.699219 414.960938 356.019531 C 414.972656 353.726562 415 351.433594 415.035156 349.136719 L 415.03125 347.101562 C 415.066406 345.410156 415.128906 343.828125 415.441406 342.164062 C 417.390625 339.515625 420.082031 338.230469 422.945312 336.710938 C 427.898438 334.003906 432.695312 331.082031 437.472656 328.074219 C 442.957031 324.621094 448.460938 321.191406 454.003906 317.824219 L 455.96875 316.628906 C 458.046875 315.371094 460.125 314.109375 462.203125 312.851562 C 465.488281 310.859375 468.777344 308.867188 472.0625 306.875 L 473.324219 306.109375 C 479.171875 302.5625 485 298.980469 490.808594 295.371094 C 496.328125 291.945312 501.878906 288.582031 507.433594 285.21875 C 512.964844 281.867188 518.476562 278.492188 523.96875 275.078125 C 538.441406 266.089844 538.441406 266.089844 540.371094 266.089844 " fill-opacity="1" fill-rule="nonzero"/><path fill="#9d2121" d="M 540.371094 266.089844 C 540.417969 283.617188 540.457031 301.144531 540.476562 318.671875 C 540.488281 326.808594 540.503906 334.945312 540.527344 343.082031 C 540.550781 350.171875 540.5625 357.261719 540.566406 364.355469 C 540.570312 368.109375 540.574219 371.867188 540.589844 375.621094 C 540.605469 379.15625 540.609375 382.6875 540.605469 386.21875 C 540.605469 387.519531 540.609375 388.816406 540.621094 390.117188 C 540.628906 391.886719 540.628906 393.65625 540.621094 395.421875 L 540.640625 396.992188 C 540.628906 398.429688 540.628906 398.429688 540.371094 400.789062 C 538.996094 402.660156 537.199219 403.617188 535.203125 404.777344 L 533.339844 405.867188 L 531.339844 407.027344 L 527.152344 409.476562 L 525.011719 410.730469 C 521.871094 412.570312 518.753906 414.441406 515.636719 416.316406 L 513.890625 417.367188 L 510.535156 419.386719 C 508.195312 420.792969 505.855469 422.199219 503.511719 423.601562 L 500.960938 425.132812 L 496.136719 428.027344 L 494.929688 428.75 L 492.4375 430.246094 C 489.59375 431.953125 486.746094 433.660156 483.902344 435.371094 C 476.960938 439.546875 470.011719 443.714844 463.019531 447.804688 C 459.890625 449.640625 456.777344 451.503906 453.667969 453.378906 C 446.441406 457.746094 439.148438 461.996094 431.789062 466.132812 C 430.183594 467.046875 428.585938 467.96875 426.996094 468.90625 L 424.210938 470.492188 L 421.8125 471.882812 C 419.628906 472.675781 419.628906 472.675781 417.292969 472.289062 L 415.441406 471.277344 C 414.683594 469.21875 414.65625 467.25 414.65625 465.070312 L 414.648438 462.984375 L 414.65625 460.707031 L 414.652344 458.292969 C 414.648438 455.636719 414.648438 452.984375 414.652344 450.328125 L 414.648438 444.699219 C 414.648438 440.738281 414.648438 436.777344 414.652344 432.8125 C 414.65625 428.832031 414.65625 424.847656 414.652344 420.863281 C 414.644531 407.898438 414.664062 394.933594 414.738281 381.96875 L 414.757812 377.683594 C 414.785156 372.1875 414.828125 366.691406 414.894531 361.195312 C 414.914062 359.507812 414.929688 357.820312 414.9375 356.136719 C 414.953125 353.828125 414.984375 351.519531 415.019531 349.210938 L 415.023438 347.152344 C 415.058594 345.445312 415.125 343.84375 415.441406 342.164062 C 417.386719 339.515625 420.082031 338.230469 422.945312 336.710938 C 427.898438 334.003906 432.695312 331.085938 437.472656 328.074219 C 442.957031 324.621094 448.460938 321.191406 454.003906 317.824219 L 455.96875 316.628906 C 458.046875 315.371094 460.125 314.109375 462.203125 312.851562 C 465.488281 310.859375 468.777344 308.867188 472.0625 306.875 L 473.324219 306.109375 C 479.171875 302.5625 485 298.984375 490.808594 295.371094 C 496.328125 291.945312 501.878906 288.582031 507.433594 285.21875 C 512.964844 281.867188 518.476562 278.492188 523.96875 275.078125 C 538.441406 266.089844 538.441406 266.089844 540.371094 266.089844 " fill-opacity="1" fill-rule="nonzero"/><path fill="#282829" d="M 738.578125 143.257812 L 740.671875 143.257812 C 741.347656 145.558594 741.496094 147.699219 741.570312 150.089844 L 741.644531 152.554688 C 741.742188 156.257812 741.832031 159.960938 741.914062 163.660156 C 741.957031 165.617188 742.007812 167.570312 742.070312 169.523438 C 742.160156 172.339844 742.222656 175.160156 742.28125 177.976562 L 742.375 180.625 C 742.40625 182.875 742.390625 185 742.066406 187.226562 C 740.058594 190.136719 737.371094 191.589844 734.324219 193.332031 L 733.101562 194.042969 C 732.238281 194.539062 731.371094 195.035156 730.503906 195.53125 C 728.203125 196.84375 725.910156 198.175781 723.621094 199.503906 L 722.234375 200.308594 C 718.441406 202.515625 714.683594 204.785156 710.96875 207.117188 C 704.996094 210.84375 698.996094 214.527344 692.96875 218.167969 L 686.664062 221.992188 C 682.96875 224.230469 679.277344 226.46875 675.585938 228.710938 L 669.484375 232.417969 L 667.042969 233.898438 L 641.394531 249.472656 L 632.859375 254.652344 C 629.125 256.917969 625.386719 259.191406 621.65625 261.460938 C 619.523438 262.757812 617.394531 264.054688 615.265625 265.347656 L 614.019531 266.105469 C 608.632812 269.382812 603.230469 272.632812 597.761719 275.773438 C 595.578125 277.027344 593.472656 278.398438 591.441406 279.886719 L 589.222656 281.445312 L 587.828125 281.445312 L 587.828125 282.839844 L 586.519531 283.410156 C 584.828125 284.207031 584.828125 284.207031 583.640625 286.332031 C 583.507812 288.164062 583.460938 289.917969 583.472656 291.75 L 583.46875 293.4375 C 583.46875 295.3125 583.472656 297.1875 583.480469 299.0625 L 583.480469 303.085938 C 583.480469 306.730469 583.488281 310.378906 583.5 314.023438 C 583.507812 317.832031 583.507812 321.640625 583.511719 325.449219 C 583.515625 332.664062 583.527344 339.878906 583.539062 347.09375 C 583.554688 355.308594 583.5625 363.519531 583.570312 371.734375 C 583.585938 388.628906 583.609375 405.527344 583.640625 422.425781 L 587.128906 423.121094 L 587.828125 425.214844 C 584.886719 424.097656 582.085938 422.746094 579.277344 421.335938 L 577.792969 420.585938 C 576.25 419.804688 574.710938 419.023438 573.171875 418.238281 L 571.761719 417.519531 C 562.5 412.773438 553.441406 407.609375 544.558594 402.183594 L 542.386719 401.054688 L 540.371094 399.394531 C 539.914062 397.421875 539.753906 396.011719 539.761719 394.03125 L 539.71875 392.386719 C 539.675781 390.5625 539.664062 388.742188 539.652344 386.917969 C 539.625 385.613281 539.601562 384.308594 539.574219 383.003906 C 539.507812 379.453125 539.46875 375.902344 539.441406 372.351562 C 539.421875 370.128906 539.398438 367.910156 539.375 365.691406 C 539.300781 358.734375 539.25 351.785156 539.222656 344.832031 C 539.1875 336.816406 539.089844 328.800781 538.9375 320.785156 C 538.824219 314.585938 538.761719 308.386719 538.753906 302.183594 C 538.746094 298.480469 538.714844 294.785156 538.617188 291.082031 C 538.136719 271.320312 538.136719 271.320312 540.371094 265.394531 C 542.421875 262.503906 544.621094 260.851562 547.75 259.226562 C 549.730469 258.390625 551.742188 257.652344 553.792969 257.011719 C 556.859375 255.914062 559.425781 254.144531 562.09375 252.308594 L 563.882812 251.167969 L 565.335938 250.242188 C 569.714844 247.46875 574.148438 244.785156 578.582031 242.101562 L 579.847656 241.332031 C 581.941406 240.066406 584.03125 238.800781 586.125 237.535156 C 596.59375 231.203125 607.023438 224.816406 617.414062 218.367188 C 625.5 213.347656 633.589844 208.335938 641.71875 203.382812 C 645.605469 201.011719 649.476562 198.613281 653.34375 196.210938 C 658.773438 192.839844 664.230469 189.515625 669.699219 186.207031 C 676.757812 181.933594 683.78125 177.605469 690.75 173.179688 C 698.265625 168.40625 705.847656 163.738281 713.472656 159.136719 L 719.871094 155.269531 C 725.234375 152.035156 730.546875 148.75 735.667969 145.136719 C 736.613281 144.476562 737.59375 143.863281 738.578125 143.257812 " fill-opacity="1" fill-rule="nonzero"/><path fill="#f11e20" d="M 539.671875 399.394531 C 542.886719 400.5625 545.773438 402.171875 548.746094 403.84375 L 550.394531 404.765625 C 554.671875 407.160156 558.929688 409.601562 563.183594 412.042969 C 569.007812 415.390625 574.894531 418.617188 580.847656 421.726562 L 582.632812 422.6875 C 585.074219 423.976562 586.398438 424.519531 589.222656 424.519531 L 589.921875 425.914062 L 591.667969 426.261719 L 593.410156 426.613281 L 594.109375 428.007812 L 595.765625 428.3125 L 597.597656 428.707031 C 598.3125 429.390625 599.007812 430.085938 599.691406 430.800781 C 601.507812 431.628906 601.507812 431.628906 603.183594 432.195312 L 603.183594 433.589844 C 603.679688 433.71875 604.171875 433.84375 604.683594 433.976562 L 606.628906 434.507812 L 608.566406 435.023438 L 610.160156 435.683594 L 610.859375 437.777344 C 612.238281 438.296875 613.640625 438.746094 615.046875 439.175781 C 617.160156 440.066406 619.242188 441.011719 621.328125 441.964844 L 621.328125 443.363281 L 622.738281 443.882812 C 625.300781 444.960938 627.703125 446.261719 630.140625 447.59375 C 633.660156 449.535156 633.660156 449.535156 637.378906 451.039062 L 637.378906 452.433594 L 638.578125 452.691406 L 640.128906 453.046875 L 641.671875 453.390625 L 642.964844 453.832031 L 643.660156 455.226562 C 645.132812 456.011719 645.132812 456.011719 646.847656 456.710938 L 648.59375 457.457031 L 649.941406 458.019531 L 649.941406 459.414062 L 651.21875 459.824219 L 652.910156 460.375 L 654.578125 460.914062 C 657.265625 461.882812 659.171875 462.886719 661.109375 464.996094 L 662.503906 466.394531 C 658.4375 469.71875 654.328125 472.507812 649.726562 475.03125 C 643.675781 478.417969 637.714844 481.9375 631.796875 485.542969 L 630.527344 486.316406 C 624.65625 489.894531 618.796875 493.503906 612.957031 497.136719 C 607.488281 500.53125 601.980469 503.863281 596.472656 507.195312 C 589.957031 511.140625 583.488281 515.152344 577.039062 519.207031 C 571.46875 522.699219 565.839844 526.09375 560.191406 529.460938 C 557.617188 531 555.050781 532.558594 552.496094 534.136719 L 550.398438 535.417969 C 548.527344 536.585938 546.671875 537.773438 544.824219 538.980469 L 541.417969 541.15625 L 539.796875 542.238281 C 538.378906 543.136719 537.042969 543.9375 535.484375 544.558594 C 533.613281 544.191406 533.613281 544.191406 531.996094 543.164062 L 530.089844 542.285156 C 525.910156 540.234375 521.871094 537.933594 517.976562 535.382812 C 515.710938 533.945312 513.394531 532.613281 511.058594 531.300781 C 507.453125 529.261719 503.914062 527.117188 500.4375 524.867188 C 498.269531 523.476562 496.070312 522.132812 493.871094 520.785156 C 491.246094 519.179688 488.652344 517.542969 486.105469 515.816406 C 483.679688 514.171875 481.1875 512.742188 478.613281 511.347656 C 475.765625 509.746094 473.003906 508.011719 470.230469 506.285156 C 468.320312 505.105469 466.402344 503.941406 464.472656 502.789062 C 460.777344 500.570312 457.097656 498.328125 453.4375 496.054688 L 451.574219 494.90625 C 448.078125 492.742188 444.628906 490.515625 441.222656 488.222656 C 439.707031 487.226562 438.152344 486.304688 436.554688 485.453125 L 435 484.605469 L 433.589844 483.839844 C 431.453125 482.664062 431.453125 482.664062 430.097656 481.746094 L 430.097656 480.351562 C 432.835938 481.179688 435.0625 482.109375 437.425781 483.710938 C 441.355469 486.28125 445.375 488.664062 449.421875 491.039062 C 454.027344 493.742188 458.605469 496.472656 463.121094 499.324219 C 468.292969 502.59375 473.554688 505.703125 478.84375 508.785156 C 496.609375 519.148438 496.609375 519.148438 503.722656 523.820312 C 508.230469 526.777344 512.699219 529.425781 517.566406 531.769531 C 520.171875 533.0625 522.578125 534.605469 525.015625 536.183594 C 526.21875 536.949219 527.425781 537.703125 528.636719 538.453125 L 530.324219 539.511719 C 532.125 540.4375 533.472656 540.84375 535.484375 541.070312 C 536.996094 540.570312 536.996094 540.570312 538.40625 539.65625 L 540.046875 538.6875 L 541.765625 537.625 L 543.550781 536.554688 C 545.289062 535.511719 547.015625 534.453125 548.746094 533.394531 L 551.363281 531.808594 C 554.882812 529.664062 558.363281 527.464844 561.832031 525.234375 C 564.558594 523.496094 567.34375 521.855469 570.191406 520.320312 C 572.613281 518.96875 574.960938 517.503906 577.3125 516.039062 C 578.753906 515.246094 578.753906 515.246094 580.152344 515.246094 L 580.152344 513.851562 C 581.878906 512.738281 583.636719 511.675781 585.429688 510.667969 L 588.726562 508.765625 L 590.410156 507.796875 C 592.6875 506.480469 594.953125 505.136719 597.207031 503.777344 L 598.484375 503.007812 C 604.023438 499.671875 609.535156 496.289062 615.046875 492.914062 C 628.160156 484.886719 628.160156 484.886719 634.589844 481.050781 C 637.109375 479.546875 639.625 478.035156 642.136719 476.519531 C 644.257812 475.246094 646.386719 473.984375 648.523438 472.730469 L 651.992188 470.667969 L 653.683594 469.6875 L 655.238281 468.753906 L 656.632812 467.933594 L 657.621094 467.089844 L 657.621094 464.996094 L 655.761719 464.425781 C 653.554688 463.644531 651.679688 462.730469 649.648438 461.574219 L 647.5 460.359375 L 645.230469 459.066406 L 640.496094 456.386719 L 638.15625 455.0625 C 635.300781 453.445312 632.441406 451.84375 629.574219 450.253906 L 628.082031 449.425781 C 623.324219 446.789062 618.542969 444.1875 613.761719 441.585938 C 610.320312 439.714844 606.894531 437.824219 603.480469 435.902344 C 597.800781 432.710938 592.046875 429.683594 586.257812 426.699219 C 577.871094 422.378906 569.554688 417.929688 561.308594 413.351562 L 559.882812 412.5625 C 554.980469 409.832031 550.160156 406.964844 545.386719 404.015625 C 544.898438 403.71875 544.40625 403.417969 543.902344 403.109375 C 542.710938 402.359375 541.535156 401.585938 540.371094 400.789062 Z M 539.671875 399.394531 " fill-opacity="1" fill-rule="nonzero"/><path fill="#0c1012" d="M 261.902344 379.152344 C 265.164062 380.3125 268.015625 382.007812 270.972656 383.777344 L 272.582031 384.730469 C 276.273438 386.925781 279.933594 389.167969 283.589844 391.429688 C 287.46875 393.820312 291.367188 396.167969 295.269531 398.519531 L 297.542969 399.898438 C 301.414062 402.226562 305.28125 404.425781 309.359375 406.371094 L 309.359375 407.769531 L 312.847656 408.464844 L 312.847656 409.863281 L 314.363281 410.421875 C 316.386719 411.277344 318.144531 412.285156 320.011719 413.445312 L 322.171875 414.78125 L 324.496094 416.230469 L 326.929688 417.738281 C 328.613281 418.78125 330.296875 419.828125 331.980469 420.871094 C 335.832031 423.261719 339.695312 425.632812 343.558594 428.007812 C 347.78125 430.605469 352.007812 433.207031 356.230469 435.8125 C 366.84375 442.359375 366.84375 442.359375 377.53125 448.792969 C 380.871094 450.792969 384.15625 452.875 387.4375 454.964844 C 393.382812 458.75 399.414062 462.375 405.46875 465.984375 C 410.644531 469.074219 415.75 472.261719 420.828125 475.507812 C 424.261719 477.691406 427.746094 479.695312 431.347656 481.589844 C 433.179688 482.605469 434.820312 483.785156 436.492188 485.039062 C 437.839844 485.980469 439.21875 486.757812 440.667969 487.535156 C 444.007812 489.371094 447.214844 491.378906 450.425781 493.4375 C 455 496.355469 459.621094 499.199219 464.285156 501.972656 C 467.144531 503.675781 469.90625 505.476562 472.65625 507.347656 C 474.582031 508.601562 476.585938 509.683594 478.605469 510.78125 C 482.28125 512.84375 485.839844 515.117188 489.421875 517.339844 C 494.703125 520.605469 499.996094 523.84375 505.335938 527.011719 C 507.996094 528.597656 510.578125 530.273438 513.152344 531.996094 C 514.289062 532.65625 515.425781 533.3125 516.570312 533.957031 C 518.410156 535 520.226562 536.074219 522.050781 537.144531 C 526.019531 539.464844 530.039062 541.683594 534.089844 543.863281 L 534.089844 545.257812 L 529.203125 543.863281 L 529.203125 542.464844 L 527.960938 542.199219 C 525.46875 541.507812 523.320312 540.128906 521.089844 538.847656 L 519.574219 537.984375 C 513.730469 534.640625 508.011719 531.148438 502.339844 527.519531 C 500.628906 526.445312 498.886719 525.417969 497.117188 524.441406 C 494.230469 522.773438 491.414062 520.988281 488.578125 519.230469 C 486.75 518.074219 486.75 518.074219 485.234375 517.339844 L 485.234375 515.945312 L 484.144531 515.769531 C 479.746094 514.417969 475.824219 511.371094 472 508.882812 C 470.316406 507.84375 468.609375 506.847656 466.871094 505.898438 C 463.707031 504.15625 460.617188 502.308594 457.535156 500.417969 L 455.878906 499.402344 C 452.640625 497.410156 449.425781 495.378906 446.238281 493.304688 C 441.671875 490.34375 437.011719 487.542969 432.324219 484.773438 C 428.96875 482.785156 425.675781 480.691406 422.453125 478.496094 C 421.019531 477.554688 419.5625 476.71875 418.058594 475.902344 C 412.15625 472.691406 406.457031 469.101562 400.921875 465.292969 C 399.269531 464.222656 397.574219 463.253906 395.859375 462.285156 C 393.398438 460.871094 390.988281 459.375 388.574219 457.886719 C 384.53125 455.40625 380.476562 452.945312 376.402344 450.515625 C 372.726562 448.316406 369.082031 446.058594 365.480469 443.742188 C 363.558594 442.511719 361.621094 441.300781 359.679688 440.097656 C 358.554688 439.386719 357.429688 438.671875 356.308594 437.949219 L 354.289062 436.644531 L 352.429688 435.4375 C 350.539062 434.253906 350.539062 434.253906 348.480469 433.269531 C 346.199219 432.121094 344.121094 430.804688 341.988281 429.402344 C 336.605469 425.898438 331.128906 422.558594 325.640625 419.226562 C 323.488281 417.917969 321.339844 416.601562 319.191406 415.285156 C 311.738281 410.71875 304.269531 406.175781 296.710938 401.792969 C 292.269531 399.210938 287.898438 396.523438 283.535156 393.808594 C 283.097656 393.539062 282.65625 393.265625 282.203125 392.984375 C 279.390625 391.234375 276.582031 389.480469 273.78125 387.71875 C 272.832031 387.121094 271.882812 386.527344 270.933594 385.929688 C 269.5625 385.070312 268.195312 384.207031 266.828125 383.339844 L 265.566406 382.550781 C 264.5625 381.902344 263.574219 381.238281 262.597656 380.550781 Z M 581.546875 319.132812 L 582.941406 319.132812 L 583.640625 422.425781 L 587.128906 423.121094 L 587.828125 425.214844 C 584.886719 424.101562 582.085938 422.746094 579.277344 421.335938 L 577.792969 420.585938 C 576.25 419.804688 574.710938 419.023438 573.171875 418.238281 L 571.761719 417.519531 C 561.058594 412.035156 550.277344 406.230469 540.371094 399.394531 L 541.066406 397.300781 C 549.171875 401.28125 557.214844 405.601562 564.855469 410.417969 C 566.902344 411.703125 568.941406 412.917969 571.078125 414.050781 L 573.171875 414.050781 C 574.875 414.867188 576.4375 415.863281 578.058594 416.839844 L 578.058594 418.238281 L 580.152344 418.238281 L 580.152344 414.746094 L 581.546875 414.746094 L 581.203125 412.902344 C 580.875 410.742188 580.773438 408.765625 580.792969 406.585938 L 580.804688 404.238281 L 580.835938 401.691406 L 580.855469 398.988281 C 580.875 396.550781 580.894531 394.113281 580.917969 391.671875 C 580.941406 389.121094 580.960938 386.570312 580.984375 384.019531 C 581.023438 379.191406 581.066406 374.367188 581.109375 369.539062 C 581.160156 364.042969 581.207031 358.542969 581.25 353.046875 C 581.34375 341.742188 581.445312 330.4375 581.546875 319.132812 " fill-opacity="1" fill-rule="nonzero"/><path fill="#be2b28" d="M 538.972656 303.777344 L 540.371094 303.777344 L 540.371094 389.621094 L 538.972656 389.621094 C 538.355469 360.964844 538.261719 332.433594 538.972656 303.777344 " fill-opacity="1" fill-rule="nonzero"/><path fill="#0c1012" d="M 597.597656 230.496094 L 598.996094 231.195312 C 596.886719 232.535156 594.777344 233.871094 592.671875 235.207031 L 590.878906 236.347656 C 588.25 238.011719 585.625 239.648438 582.902344 241.152344 L 580.847656 242.363281 L 580.152344 243.757812 C 578.804688 244.511719 577.4375 245.222656 576.050781 245.894531 L 573.789062 247.011719 C 571.777344 247.945312 571.777344 247.945312 569.683594 248.644531 L 569.683594 250.039062 L 567.589844 250.039062 L 567.589844 251.433594 C 566.6875 251.902344 565.789062 252.367188 564.882812 252.832031 L 563.363281 253.617188 C 562.003906 254.226562 562.003906 254.226562 560.609375 254.226562 L 560.609375 255.621094 L 559.375 256.191406 C 554.351562 258.589844 549.839844 261.546875 545.253906 264.695312 C 543.863281 265.628906 542.464844 266.558594 541.066406 267.488281 L 540.371094 265.394531 L 541.570312 264.695312 C 549.007812 260.34375 556.398438 255.941406 563.664062 251.304688 C 569.539062 247.566406 575.496094 243.96875 581.453125 240.363281 L 583.832031 238.925781 L 586.164062 237.519531 C 587.816406 236.515625 589.457031 235.492188 591.089844 234.453125 L 592.347656 233.660156 C 593.503906 232.925781 594.660156 232.1875 595.8125 231.449219 Z M 597.597656 230.496094 " fill-opacity="1" fill-rule="nonzero"/><path fill="#0d1113" d="M 661.808594 466.394531 L 663.203125 467.789062 C 662.21875 468.609375 661.230469 469.425781 660.238281 470.230469 L 658.570312 471.605469 L 656.921875 472.675781 L 654.128906 472.675781 L 654.128906 474.070312 L 650.640625 474.769531 L 650.640625 476.164062 L 648.546875 477.558594 L 645.753906 477.558594 L 645.058594 479.652344 L 640.871094 480.351562 C 642.523438 478.53125 644.277344 477.390625 646.40625 476.167969 L 648.433594 474.984375 L 650.554688 473.765625 C 651.933594 472.96875 653.3125 472.171875 654.691406 471.367188 L 656.546875 470.300781 C 658.417969 469.121094 660.105469 467.804688 661.808594 466.394531 " fill-opacity="1" fill-rule="nonzero"/><path fill="#29292a" d="M 494.308594 721.832031 C 497.253906 722.894531 499.855469 724.375 502.507812 726.019531 L 503.753906 726.769531 C 504.808594 727.421875 505.84375 728.113281 506.871094 728.808594 L 507.566406 730.207031 C 504.5 729.09375 501.78125 727.566406 498.976562 725.929688 L 497.609375 725.144531 C 496.507812 724.503906 495.40625 723.867188 494.308594 723.226562 Z M 494.308594 721.832031 " fill-opacity="1" fill-rule="nonzero"/><path fill="#d62424" d="M 415.441406 471.277344 C 418.230469 472.234375 420.1875 473.550781 422.421875 475.464844 L 421.027344 476.164062 C 419.515625 475.46875 419.515625 475.46875 417.796875 474.464844 L 416.070312 473.460938 L 414.746094 472.675781 Z M 415.441406 471.277344 " fill-opacity="1" fill-rule="nonzero"/></svg>