<svg xmlns="http://www.w3.org/2000/svg" xmlns:xlink="http://www.w3.org/1999/xlink" width="4096" zoomAndPan="magnify" viewBox="0 0 3072 767.999994" height="1024" preserveAspectRatio="xMidYMid meet" version="1.0"><defs><g/></defs><g fill="#e0e0e0" fill-opacity="1"><g transform="translate(1216.331084, 539.697987)"><g><path d="M 276.765625 -208.875 C 292.929688 -208.875 307.414062 -205.515625 320.21875 -198.796875 C 333.03125 -192.085938 343.101562 -182.144531 350.4375 -168.96875 C 357.769531 -155.789062 361.4375 -139.875 361.4375 -121.21875 L 361.4375 0 L 319.28125 0 L 319.28125 -114.890625 C 319.28125 -133.285156 314.679688 -147.394531 305.484375 -157.21875 C 296.285156 -167.039062 283.726562 -171.953125 267.8125 -171.953125 C 251.894531 -171.953125 239.273438 -167.039062 229.953125 -157.21875 C 220.628906 -147.394531 215.96875 -133.285156 215.96875 -114.890625 L 215.96875 0 L 173.8125 0 L 173.8125 -114.890625 C 173.8125 -133.285156 169.210938 -147.394531 160.015625 -157.21875 C 150.816406 -167.039062 138.257812 -171.953125 122.34375 -171.953125 C 106.425781 -171.953125 93.804688 -167.039062 84.484375 -157.21875 C 75.160156 -147.394531 70.5 -133.285156 70.5 -114.890625 L 70.5 0 L 27.96875 0 L 27.96875 -205.515625 L 70.5 -205.515625 L 70.5 -182.03125 C 77.457031 -190.476562 86.28125 -197.0625 96.96875 -201.78125 C 107.664062 -206.507812 119.109375 -208.875 131.296875 -208.875 C 147.703125 -208.875 162.367188 -205.390625 175.296875 -198.421875 C 188.234375 -191.460938 198.1875 -181.394531 205.15625 -168.21875 C 211.363281 -180.65625 221.054688 -190.539062 234.234375 -197.875 C 247.421875 -205.207031 261.597656 -208.875 276.765625 -208.875 Z M 276.765625 -208.875 "/></g></g></g><g fill="#e0e0e0" fill-opacity="1"><g transform="translate(1580.756179, 539.697987)"><g><path d="M 49.609375 -232.75 C 41.898438 -232.75 35.429688 -235.359375 30.203125 -240.578125 C 24.984375 -245.804688 22.375 -252.273438 22.375 -259.984375 C 22.375 -267.691406 24.984375 -274.15625 30.203125 -279.375 C 35.429688 -284.59375 41.898438 -287.203125 49.609375 -287.203125 C 57.066406 -287.203125 63.40625 -284.59375 68.625 -279.375 C 73.851562 -274.15625 76.46875 -267.691406 76.46875 -259.984375 C 76.46875 -252.273438 73.851562 -245.804688 68.625 -240.578125 C 63.40625 -235.359375 57.066406 -232.75 49.609375 -232.75 Z M 70.5 -205.515625 L 70.5 0 L 27.96875 0 L 27.96875 -205.515625 Z M 70.5 -205.515625 "/></g></g></g><g fill="#e0e0e0" fill-opacity="1"><g transform="translate(1656.102885, 539.697987)"><g><path d="M 131.671875 -208.875 C 147.828125 -208.875 162.304688 -205.515625 175.109375 -198.796875 C 187.921875 -192.085938 197.929688 -182.144531 205.140625 -168.96875 C 212.359375 -155.789062 215.96875 -139.875 215.96875 -121.21875 L 215.96875 0 L 173.8125 0 L 173.8125 -114.890625 C 173.8125 -133.285156 169.210938 -147.394531 160.015625 -157.21875 C 150.816406 -167.039062 138.257812 -171.953125 122.34375 -171.953125 C 106.425781 -171.953125 93.804688 -167.039062 84.484375 -157.21875 C 75.160156 -147.394531 70.5 -133.285156 70.5 -114.890625 L 70.5 0 L 27.96875 0 L 27.96875 -205.515625 L 70.5 -205.515625 L 70.5 -182.03125 C 77.457031 -190.476562 86.34375 -197.0625 97.15625 -201.78125 C 107.976562 -206.507812 119.484375 -208.875 131.671875 -208.875 Z M 131.671875 -208.875 "/></g></g></g><g fill="#e0e0e0" fill-opacity="1"><g transform="translate(1875.056366, 539.697987)"><g><path d="M 49.609375 -232.75 C 41.898438 -232.75 35.429688 -235.359375 30.203125 -240.578125 C 24.984375 -245.804688 22.375 -252.273438 22.375 -259.984375 C 22.375 -267.691406 24.984375 -274.15625 30.203125 -279.375 C 35.429688 -284.59375 41.898438 -287.203125 49.609375 -287.203125 C 57.066406 -287.203125 63.40625 -284.59375 68.625 -279.375 C 73.851562 -274.15625 76.46875 -267.691406 76.46875 -259.984375 C 76.46875 -252.273438 73.851562 -245.804688 68.625 -240.578125 C 63.40625 -235.359375 57.066406 -232.75 49.609375 -232.75 Z M 70.5 -205.515625 L 70.5 0 L 27.96875 0 L 27.96875 -205.515625 Z M 70.5 -205.515625 "/></g></g></g><g fill="#fd3f31" fill-opacity="1"><g transform="translate(1950.405266, 539.697987)"><g><path d="M 222.6875 -177.546875 C 222.6875 -162.378906 219.203125 -148.515625 212.234375 -135.953125 C 205.273438 -123.398438 194.582031 -113.269531 180.15625 -105.5625 C 165.738281 -97.851562 147.835938 -94 126.453125 -94 L 86.90625 -94 L 86.90625 0 L 23.125 0 L 23.125 -261.84375 L 126.453125 -261.84375 C 147.335938 -261.84375 164.988281 -258.238281 179.40625 -251.03125 C 193.832031 -243.820312 204.648438 -233.875 211.859375 -221.1875 C 219.078125 -208.507812 222.6875 -193.960938 222.6875 -177.546875 Z M 121.59375 -144.71875 C 133.78125 -144.71875 142.859375 -147.578125 148.828125 -153.296875 C 154.796875 -159.015625 157.78125 -167.097656 157.78125 -177.546875 C 157.78125 -187.992188 154.796875 -196.078125 148.828125 -201.796875 C 142.859375 -207.515625 133.78125 -210.375 121.59375 -210.375 L 86.90625 -210.375 L 86.90625 -144.71875 Z M 121.59375 -144.71875 "/></g></g></g><g fill="#fd3f31" fill-opacity="1"><g transform="translate(2160.033549, 539.697987)"><g><path d="M 10.4375 -104.4375 C 10.4375 -125.820312 14.476562 -144.597656 22.5625 -160.765625 C 30.644531 -176.929688 41.648438 -189.363281 55.578125 -198.0625 C 69.503906 -206.769531 85.046875 -211.125 102.203125 -211.125 C 116.867188 -211.125 129.734375 -208.140625 140.796875 -202.171875 C 151.867188 -196.203125 160.390625 -188.367188 166.359375 -178.671875 L 166.359375 -208.140625 L 230.140625 -208.140625 L 230.140625 0 L 166.359375 0 L 166.359375 -29.46875 C 160.140625 -19.769531 151.5 -11.9375 140.4375 -5.96875 C 129.375 0 116.503906 2.984375 101.828125 2.984375 C 84.921875 2.984375 69.503906 -1.425781 55.578125 -10.25 C 41.648438 -19.082031 30.644531 -31.640625 22.5625 -47.921875 C 14.476562 -64.210938 10.4375 -83.050781 10.4375 -104.4375 Z M 166.359375 -104.0625 C 166.359375 -119.976562 161.941406 -132.535156 153.109375 -141.734375 C 144.285156 -150.941406 133.535156 -155.546875 120.859375 -155.546875 C 108.171875 -155.546875 97.410156 -151.003906 88.578125 -141.921875 C 79.753906 -132.847656 75.34375 -120.351562 75.34375 -104.4375 C 75.34375 -88.519531 79.753906 -75.898438 88.578125 -66.578125 C 97.410156 -57.253906 108.171875 -52.59375 120.859375 -52.59375 C 133.535156 -52.59375 144.285156 -57.191406 153.109375 -66.390625 C 161.941406 -75.585938 166.359375 -88.144531 166.359375 -104.0625 Z M 166.359375 -104.0625 "/></g></g></g><g fill="#fd3f31" fill-opacity="1"><g transform="translate(2390.17715, 539.697987)"><g><path d="M 10.4375 -104.4375 C 10.4375 -125.820312 14.476562 -144.597656 22.5625 -160.765625 C 30.644531 -176.929688 41.648438 -189.363281 55.578125 -198.0625 C 69.503906 -206.769531 85.046875 -211.125 102.203125 -211.125 C 116.867188 -211.125 129.734375 -208.140625 140.796875 -202.171875 C 151.867188 -196.203125 160.390625 -188.367188 166.359375 -178.671875 L 166.359375 -208.140625 L 230.140625 -208.140625 L 230.140625 0 L 166.359375 0 L 166.359375 -29.46875 C 160.140625 -19.769531 151.5 -11.9375 140.4375 -5.96875 C 129.375 0 116.503906 2.984375 101.828125 2.984375 C 84.921875 2.984375 69.503906 -1.425781 55.578125 -10.25 C 41.648438 -19.082031 30.644531 -31.640625 22.5625 -47.921875 C 14.476562 -64.210938 10.4375 -83.050781 10.4375 -104.4375 Z M 166.359375 -104.0625 C 166.359375 -119.976562 161.941406 -132.535156 153.109375 -141.734375 C 144.285156 -150.941406 133.535156 -155.546875 120.859375 -155.546875 C 108.171875 -155.546875 97.410156 -151.003906 88.578125 -141.921875 C 79.753906 -132.847656 75.34375 -120.351562 75.34375 -104.4375 C 75.34375 -88.519531 79.753906 -75.898438 88.578125 -66.578125 C 97.410156 -57.253906 108.171875 -52.59375 120.859375 -52.59375 C 133.535156 -52.59375 144.285156 -57.191406 153.109375 -66.390625 C 161.941406 -75.585938 166.359375 -88.144531 166.359375 -104.0625 Z M 166.359375 -104.0625 "/></g></g></g><g fill="#fd3f31" fill-opacity="1"><g transform="translate(2620.320706, 539.697987)"><g><path d="M 117.875 2.609375 C 98.71875 2.609375 81.554688 -0.492188 66.390625 -6.703125 C 51.222656 -12.921875 39.097656 -22.125 30.015625 -34.3125 C 20.941406 -46.5 16.160156 -61.171875 15.671875 -78.328125 L 83.546875 -78.328125 C 84.546875 -68.628906 87.90625 -61.226562 93.625 -56.125 C 99.34375 -51.03125 106.800781 -48.484375 116 -48.484375 C 125.445312 -48.484375 132.90625 -50.660156 138.375 -55.015625 C 143.851562 -59.367188 146.59375 -65.398438 146.59375 -73.109375 C 146.59375 -79.578125 144.414062 -84.921875 140.0625 -89.140625 C 135.707031 -93.367188 130.359375 -96.847656 124.015625 -99.578125 C 117.679688 -102.316406 108.671875 -105.429688 96.984375 -108.921875 C 80.066406 -114.140625 66.257812 -119.359375 55.5625 -124.578125 C 44.875 -129.804688 35.675781 -137.515625 27.96875 -147.703125 C 20.257812 -157.898438 16.40625 -171.207031 16.40625 -187.625 C 16.40625 -211.988281 25.234375 -231.070312 42.890625 -244.875 C 60.546875 -258.675781 83.550781 -265.578125 111.90625 -265.578125 C 140.75 -265.578125 164 -258.675781 181.65625 -244.875 C 199.3125 -231.070312 208.757812 -211.863281 210 -187.25 L 141 -187.25 C 140.5 -195.695312 137.390625 -202.34375 131.671875 -207.1875 C 125.953125 -212.039062 118.613281 -214.46875 109.65625 -214.46875 C 101.945312 -214.46875 95.726562 -212.414062 91 -208.3125 C 86.28125 -204.21875 83.921875 -198.316406 83.921875 -190.609375 C 83.921875 -182.148438 87.898438 -175.554688 95.859375 -170.828125 C 103.816406 -166.109375 116.25 -161.015625 133.15625 -155.546875 C 150.070312 -149.828125 163.8125 -144.351562 174.375 -139.125 C 184.945312 -133.90625 194.085938 -126.320312 201.796875 -116.375 C 209.503906 -106.425781 213.359375 -93.617188 213.359375 -77.953125 C 213.359375 -63.035156 209.566406 -49.484375 201.984375 -37.296875 C 194.398438 -25.109375 183.394531 -15.410156 168.96875 -8.203125 C 154.539062 -0.992188 137.507812 2.609375 117.875 2.609375 Z M 117.875 2.609375 "/></g></g></g><path stroke-linecap="butt" transform="matrix(0.749994, 0, 0, 0.749994, -80.206801, -295.888266)" fill="none" stroke-linejoin="miter" d="M 890.574912 428.46401 C 890.574912 428.46401 897.335385 428.46401 905.621914 428.46401 C 913.892817 428.46401 925.450206 429.672354 931.294005 431.120282 C 937.137804 432.57342 945.49725 435.370318 949.887912 437.318251 C 954.278574 439.266184 963.023439 443.250593 969.362035 446.172493 C 975.70063 449.094392 986.445512 453.875683 993.263278 456.792374 C 1000.081044 459.714274 1020.79476 468.870601 1039.294916 477.157129 C 1057.80028 485.443657 1078.107743 494.188523 1095.951644 501.058372 " stroke="#fe6149" stroke-width="1" stroke-opacity="0.9961" stroke-miterlimit="4"/><path stroke-linecap="butt" transform="matrix(0.749994, 0, 0, 0.749994, -80.206801, -295.888266)" fill="none" stroke-linejoin="miter" d="M 798.506427 465.646615 C 798.506427 465.646615 814.850315 458.886142 834.803608 450.599613 C 854.756901 442.313085 875.079989 433.95364 888.804063 428.46401 " stroke="#fe6149" stroke-width="1" stroke-opacity="0.9961" stroke-miterlimit="4"/><path stroke-linecap="butt" transform="matrix(0.749994, 0, 0, 0.749994, -80.206801, -295.888266)" fill="none" stroke-linejoin="miter" d="M 796.735579 465.646615 C 796.735579 465.646615 796.735579 466.052869 796.735579 466.532039 C 796.735579 467.01121 790.360525 470.198737 768.407215 479.813401 " stroke="#ec3b25" stroke-width="1" stroke-opacity="0.6392" stroke-miterlimit="4"/><path stroke-linecap="butt" transform="matrix(0.749994, 0, 0, 0.749994, -80.206801, -295.888266)" fill="none" stroke-linejoin="miter" d="M 761.323822 481.58425 C 761.323822 481.58425 761.323822 481.990503 761.323822 482.469674 C 761.323822 482.943636 754.948768 486.131163 732.995458 495.745827 " stroke="#eb3722" stroke-width="1" stroke-opacity="0.8078" stroke-miterlimit="4"/><path stroke-linecap="butt" transform="matrix(0.749994, 0, 0, 0.749994, -80.206801, -295.888266)" fill="none" stroke-linejoin="miter" d="M 729.453761 495.745827 C 729.453761 495.745827 729.047508 496.542709 728.568337 497.516676 C 728.094375 498.490642 714.938014 504.475068 671.026185 522.303343 " stroke="#eb3720" stroke-width="1" stroke-opacity="0.7725" stroke-miterlimit="4"/><path stroke-linecap="butt" transform="matrix(0.749994, 0, 0, 0.749994, -80.206801, -295.888266)" fill="none" stroke-linejoin="miter" d="M 1234.056975 563.027645 C 1234.056975 563.027645 1227.275668 560.246371 1219.004765 556.829676 C 1210.73907 553.41298 1198.785844 548.241062 1192.447249 545.319162 C 1186.108654 542.397263 1162.613664 532.043009 1140.217642 522.303343 C 1117.82162 512.568886 1099.087087 503.803187 1097.722492 501.058372 " stroke="#e73522" stroke-width="1" stroke-opacity="0.7059" stroke-miterlimit="4"/><path stroke-linecap="butt" transform="matrix(0.749994, 0, 0, 0.749994, -80.206801, -295.888266)" fill="none" stroke-linejoin="miter" d="M 669.255337 522.303343 C 669.255337 522.303343 668.052202 523.506478 666.604273 524.959615 C 665.151136 526.412753 663.151119 527.615888 660.406304 527.615888 " stroke="#ef3e28" stroke-width="1" stroke-opacity="0.5843" stroke-miterlimit="4"/><path stroke-linecap="butt" transform="matrix(0.749994, 0, 0, 0.749994, -80.206801, -295.888266)" fill="none" stroke-linejoin="miter" d="M 658.635456 527.615888 C 658.635456 527.615888 657.041692 528.819023 655.093759 530.27216 C 653.145826 531.725298 642.38011 536.912841 631.192516 541.777466 C 619.999713 546.647298 607.254814 551.834842 594.895335 555.944252 " stroke="#eb3722" stroke-width="1" stroke-opacity="0.7686" stroke-miterlimit="4"/><path stroke-linecap="butt" transform="matrix(0.749994, 0, 0, 0.749994, -80.206801, -295.888266)" fill="none" stroke-linejoin="miter" d="M 589.58279 557.7151 C 589.58279 557.7151 589.58279 558.121353 589.58279 558.600524 C 589.58279 559.079695 589.176537 559.892202 587.811942 561.256797 " stroke="#e93521" stroke-width="1" stroke-opacity="0.7216" stroke-miterlimit="4"/><path stroke-linecap="butt" transform="matrix(0.749994, 0, 0, 0.749994, -80.206801, -295.888266)" fill="none" stroke-linejoin="miter" d="M 575.421212 566.569341 C 575.421212 566.569341 573.030567 567.366223 570.108667 568.34019 C 567.186768 569.314156 564.389869 570.10583 563.025274 570.10583 " stroke="#e93521" stroke-width="1" stroke-opacity="0.7216" stroke-miterlimit="4"/><path stroke-linecap="butt" transform="matrix(0.749994, 0, 0, 0.749994, -80.206801, -295.888266)" fill="none" stroke-linejoin="miter" d="M 587.811942 561.256797 C 587.811942 561.256797 587.405688 562.053678 586.926518 563.027645 C 586.452555 564.001611 586.837975 565.204747 587.811942 565.683917 C 588.785908 566.15788 587.192145 566.569341 584.270245 566.569341 C 581.353554 566.569341 578.166027 566.569341 575.421212 566.569341 " stroke="#fe6d52" stroke-width="1" stroke-opacity="0.9765" stroke-miterlimit="4"/><path stroke-linecap="butt" transform="matrix(0.749994, 0, 0, 0.749994, -80.206801, -295.888266)" fill="none" stroke-linejoin="miter" d="M 575.421212 566.569341 C 575.421212 566.569341 577.400396 565.360998 579.848333 563.913069 C 582.291062 562.459932 585.067127 561.256797 587.811942 561.256797 " stroke="#fe6d52" stroke-width="1" stroke-opacity="0.9765" stroke-miterlimit="4"/><path stroke-linecap="butt" transform="matrix(0.749994, 0, 0, 0.749994, -80.206801, -295.888266)" fill="none" stroke-linejoin="miter" d="M 1234.056975 563.027645 C 1234.056975 563.027645 1234.463229 563.027645 1235.822615 563.027645 " stroke="#e53f32" stroke-width="1" stroke-opacity="0.9922" stroke-miterlimit="4"/><path stroke-linecap="butt" transform="matrix(0.749994, 0, 0, 0.749994, -80.206801, -295.888266)" fill="none" stroke-linejoin="miter" d="M 518.764484 589.58516 C 518.764484 589.58516 515.576958 592.366434 511.681091 595.783129 C 507.785225 599.199825 501.821633 606.366552 498.399729 611.715555 C 494.597614 617.699981 491.868424 624.517747 491.321545 629.41883 C 490.769457 634.413664 491.425712 639.68975 493.092393 643.585616 C 494.863241 647.710651 498.988276 651.851311 505.483122 655.976345 C 510.832126 659.398249 528.764569 668.15874 545.322 675.455676 C 561.874223 682.747404 586.962976 693.919374 601.093304 700.242344 C 615.223631 706.560105 643.109283 718.919585 663.062576 727.685283 C 683.01587 736.450982 730.021474 757.164699 767.521791 773.716922 C 805.022107 790.274353 843.652641 807.394289 853.392307 811.784951 C 863.131972 816.175613 875.876871 820.956903 881.72067 822.410041 C 887.955098 823.967345 900.418745 825.066313 911.819883 825.066313 C 926.570007 825.066313 933.861735 824.212139 941.919095 821.524617 C 947.762894 819.576683 969.273492 810.420356 989.721581 801.159861 C 1010.16967 791.899367 1066.331602 766.425194 1114.545551 744.503134 C 1162.754291 722.586282 1224.494395 694.716255 1251.760249 682.539069 C 1279.026104 670.356675 1304.130483 658.424283 1307.531553 655.976345 C 1310.932623 653.533616 1315.323286 648.77316 1317.271219 645.356464 C 1319.375403 641.689767 1320.807707 635.918885 1320.807707 631.189678 C 1320.807707 626.236511 1319.146234 619.877083 1316.385794 614.371828 C 1313.943066 609.501995 1308.771147 602.741521 1304.875281 599.319618 C 1300.979415 595.902922 1287.843887 588.345567 1275.661493 582.501767 C 1263.479098 576.657968 1249.546689 570.288123 1244.676856 568.34019 C 1239.807024 566.392257 1235.416362 564.39224 1234.056975 563.027645 " stroke="#e53f32" stroke-width="1" stroke-opacity="0.9922" stroke-miterlimit="4"/><path stroke-linecap="butt" transform="matrix(0.749994, 0, 0, 0.749994, -80.206801, -295.888266)" fill="none" stroke-linejoin="miter" d="M 561.254426 570.10583 C 561.254426 570.10583 560.051291 571.314173 558.598154 572.762102 C 557.150225 574.215239 554.738746 575.418374 550.634545 575.418374 " stroke="#ec331d" stroke-width="1" stroke-opacity="0.7098" stroke-miterlimit="4"/><path stroke-linecap="butt" transform="matrix(0.749994, 0, 0, 0.749994, -80.206801, -295.888266)" fill="none" stroke-linejoin="miter" d="M 548.863697 575.418374 C 548.863697 575.418374 545.285541 577.809019 540.894879 580.730919 C 536.504217 583.652819 531.722927 586.043464 527.613517 586.043464 " stroke="#ea3a24" stroke-width="1" stroke-opacity="0.6824" stroke-miterlimit="4"/><path stroke-linecap="butt" transform="matrix(0.749994, 0, 0, 0.749994, -80.206801, -295.888266)" fill="none" stroke-linejoin="miter" d="M 488.665272 658.632618 C 488.665272 658.632618 489.462154 658.632618 490.436121 658.632618 C 491.462171 658.632618 492.206969 664.247248 492.206969 671.91398 C 492.206969 679.205708 493.410104 689.174542 494.863241 694.044375 C 496.31117 698.914207 500.295579 706.086143 503.712274 709.982009 C 507.12897 713.872667 513.488398 719.044586 517.87906 721.487315 C 522.269722 723.930043 544.96783 734.680134 568.337819 745.388558 C 591.707808 756.10219 633.531077 775.222143 661.291728 787.883708 C 689.052379 800.540065 744.026801 825.628818 783.454217 843.655011 C 822.886841 861.675997 861.538209 878.389679 869.324733 880.837617 C 879.366484 883.967851 889.158233 885.525156 902.965641 886.144953 C 918.549106 886.853292 925.450206 886.322038 937.491974 883.488681 C 945.757669 881.545956 958.91403 877.170919 966.705762 873.754224 C 974.497495 870.337528 994.008076 861.571829 1010.081128 854.274893 C 1026.159389 846.983165 1046.076223 837.811212 1054.347126 833.915346 C 1062.612821 830.01948 1081.753607 821.258989 1096.837068 814.441223 C 1111.925737 807.623458 1152.577121 788.894133 1187.134704 772.831498 C 1221.697496 756.77407 1258.7551 739.638509 1269.463524 734.768677 C 1280.177156 729.898844 1292.515802 723.52379 1296.906464 720.60189 C 1301.297126 717.679991 1306.859672 712.8987 1309.302401 709.982009 C 1311.74513 707.06011 1314.911824 700.685056 1316.385794 695.815223 C 1317.854557 690.94539 1319.838949 677.789029 1322.578555 646.241888 " stroke="#8f120a" stroke-width="1" stroke-opacity="0.8196" stroke-miterlimit="4"/><path stroke-linecap="butt" transform="matrix(0.749994, 0, 0, 0.749994, -80.206801, -295.888266)" fill="none" stroke-linejoin="miter" d="M 1216.348492 821.524617 C 1216.348492 821.524617 1220.332901 821.113155 1225.202734 820.639192 C 1230.072567 820.160022 1238.833057 820.160022 1255.301946 821.524617 " stroke="#fe5e48" stroke-width="1" stroke-opacity="0.9961" stroke-miterlimit="4"/><path stroke-linecap="butt" transform="matrix(0.749994, 0, 0, 0.749994, -80.206801, -295.888266)" fill="none" stroke-linejoin="miter" d="M 1319.042067 894.11377 C 1319.042067 894.11377 1316.651422 896.504416 1313.729522 899.426315 C 1310.807622 902.348215 1302.838805 907.535759 1296.021039 910.931621 C 1289.208482 914.332691 1254.557148 930.270325 1219.004765 946.343378 C 1183.452382 962.421638 1139.634304 982.338473 1121.628944 990.609376 C 1103.618375 998.875071 1081.701524 1008.843905 1072.935825 1012.739771 C 1064.175334 1016.635637 1045.050173 1025.396128 1030.445883 1032.213893 C 1015.836385 1039.031659 992.732023 1049.776541 979.1017 1056.115137 C 965.466168 1062.453732 948.736861 1069.219414 941.919095 1071.167347 C 932.622141 1073.823619 924.210612 1074.709043 908.278186 1074.709043 C 894.892657 1074.709043 883.418601 1073.714243 877.29355 1072.052771 C 871.949755 1070.584009 849.637067 1061.021428 827.720215 1050.8078 C 805.798155 1040.588964 769.167638 1023.838823 746.27682 1013.625195 C 723.380793 1003.406359 685.156513 986.270798 661.291728 975.557166 C 637.421735 964.848742 602.77561 949.301736 584.270245 941.030833 C 565.770089 932.765138 543.071981 922.796304 533.811486 918.900438 C 524.550992 915.004572 513.806109 909.837861 509.910243 907.395132 C 506.014377 904.947195 500.436205 900.186738 497.519514 896.770043 C 494.597614 893.353347 491.800715 887.7908 491.321545 884.374105 C 490.842374 880.957409 491.639256 874.603189 493.092393 870.212527 C 494.540322 865.821865 498.52473 859.056183 501.941426 855.160317 C 506.566465 849.868606 514.196738 845.160233 532.040638 836.571618 C 545.196999 830.253857 559.92629 823.85797 564.796123 822.410041 C 569.665955 820.956903 578.041026 819.753768 583.384821 819.753768 C 588.999452 819.753768 596.879727 821.258989 601.978728 823.295465 C 606.848561 825.243398 615.223631 828.425716 630.307092 833.915346 " stroke="#fe5e48" stroke-width="1" stroke-opacity="0.9961" stroke-miterlimit="4"/><path stroke-linecap="butt" transform="matrix(0.749994, 0, 0, 0.749994, -80.206801, -295.888266)" fill="none" stroke-linejoin="miter" d="M 1214.577644 821.524617 C 1214.577644 821.524617 1212.186999 822.727752 1209.265099 824.180889 C 1206.348408 825.628818 1201.973371 827.628835 1195.103522 830.373649 " stroke="#ec3624" stroke-width="1" stroke-opacity="0.4627" stroke-miterlimit="4"/><path stroke-linecap="butt" transform="matrix(0.749994, 0, 0, 0.749994, -80.206801, -295.888266)" fill="none" stroke-linejoin="miter" d="M 1296.021039 840.998739 C 1296.021039 840.998739 1287.645969 837.420584 1277.432341 833.029922 C 1267.218713 828.63926 1258.432181 824.269431 1257.072794 821.524617 " stroke="#e83322" stroke-width="1" stroke-opacity="0.6588" stroke-miterlimit="4"/><path stroke-linecap="butt" transform="matrix(0.749994, 0, 0, 0.749994, -80.206801, -295.888266)" fill="none" stroke-linejoin="miter" d="M 1193.332673 830.373649 C 1193.332673 830.373649 1189.348265 832.764295 1184.478432 835.686194 C 1179.608599 838.608094 1170.848109 842.983131 1165.004309 845.42586 C 1159.16051 847.868589 1136.056149 858.228051 1113.660126 868.441679 C 1091.264104 878.655307 1066.560771 889.811651 1044.607461 899.426315 " stroke="#e83322" stroke-width="1" stroke-opacity="0.5529" stroke-miterlimit="4"/><path stroke-linecap="butt" transform="matrix(0.749994, 0, 0, 0.749994, -80.206801, -295.888266)" fill="none" stroke-linejoin="miter" d="M 667.489697 851.623829 C 667.489697 851.623829 662.708407 849.639437 656.864607 847.196708 C 651.020808 844.753979 643.463453 841.175824 633.848788 835.686194 " stroke="#e63223" stroke-width="1" stroke-opacity="0.4745" stroke-miterlimit="4"/><path stroke-linecap="butt" transform="matrix(0.749994, 0, 0, 0.749994, -80.206801, -295.888266)" fill="none" stroke-linejoin="miter" d="M 1294.250191 972.015469 C 1294.250191 972.015469 1297.828346 969.21857 1302.219008 965.822708 C 1307.036757 962.083094 1311.583671 956.473671 1313.729522 951.655922 C 1315.677455 947.26526 1318.0681 938.114141 1319.042067 931.296376 C 1320.016033 924.47861 1320.401453 913.322266 1319.042067 894.11377 " stroke="#b82217" stroke-width="1" stroke-opacity="0.7765" stroke-miterlimit="4"/><path stroke-linecap="butt" transform="matrix(0.749994, 0, 0, 0.749994, -80.206801, -295.888266)" fill="none" stroke-linejoin="miter" d="M 1319.042067 894.11377 C 1319.042067 894.11377 1319.44832 889.723108 1319.927491 884.374105 C 1320.510829 877.879258 1319.927491 872.566714 1318.156643 868.441679 C 1316.682672 865.024983 1313.109725 858.670763 1304.875281 846.311284 " stroke="#b82217" stroke-width="1" stroke-opacity="0.7765" stroke-miterlimit="4"/><path stroke-linecap="butt" transform="matrix(0.749994, 0, 0, 0.749994, -80.206801, -295.888266)" fill="none" stroke-linejoin="miter" d="M 851.621458 934.838072 C 851.621458 934.838072 842.449506 930.853664 831.261912 925.983831 C 820.069109 921.113998 804.136683 913.942063 795.850155 910.051405 C 787.563626 906.155539 777.224997 901.374248 772.834335 899.426315 C 768.443673 897.478382 754.917518 891.493957 742.735123 886.144953 C 730.552729 880.801158 713.839046 873.222969 705.552518 869.327103 C 697.26599 865.431237 688.114871 861.040575 685.192971 859.587438 C 682.271072 858.139509 678.677291 856.931165 677.224154 856.931165 C 675.771017 856.931165 674.161628 856.134283 672.797033 853.394677 " stroke="#e83827" stroke-width="1" stroke-opacity="0.4471" stroke-miterlimit="4"/><path stroke-linecap="butt" transform="matrix(0.749994, 0, 0, 0.749994, -80.206801, -295.888266)" fill="none" stroke-linejoin="miter" d="M 1042.836613 899.426315 C 1042.836613 899.426315 1028.49795 906.186789 1010.966552 914.473317 C 993.440363 922.74422 971.929765 932.322426 963.164066 935.723496 C 954.398367 939.119358 939.669076 943.103767 930.408581 944.572529 C 917.095969 946.681922 909.731323 946.859007 894.996824 945.457953 C 883.085265 944.327736 872.283091 942.093342 853.392307 934.838072 " stroke="#e93423" stroke-width="1" stroke-opacity="0.5608" stroke-miterlimit="4"/><path stroke-linecap="butt" transform="matrix(0.749994, 0, 0, 0.749994, -80.206801, -295.888266)" fill="none" stroke-linejoin="miter" d="M 488.665272 904.73886 C 488.665272 904.73886 489.462154 907.535759 490.436121 910.931621 C 491.410087 914.332691 492.206969 921.91088 492.206969 927.754679 C 492.206969 933.598478 493.410104 941.176667 494.863241 944.572529 C 496.31117 947.9736 499.90495 953.958025 502.82685 957.853891 C 506.03521 962.119552 512.727975 967.395638 519.649909 971.130045 C 525.96767 974.531115 541.514676 982.109304 554.176241 987.953103 C 566.832598 993.796903 611.041304 1014.104366 652.437487 1033.099318 C 693.833669 1052.099478 737.245494 1072.016312 748.933092 1077.365316 C 760.615482 1082.709111 774.568725 1089.084165 779.917729 1091.526894 C 785.261524 1093.969623 799.214766 1100.344676 810.897156 1105.69368 C 822.584755 1111.037475 838.517181 1118.225035 846.308913 1121.626106 C 854.100646 1125.027176 867.236173 1129.808466 875.522701 1132.251195 C 886.679046 1135.527265 894.699947 1136.678316 906.507338 1136.678316 C 915.273037 1136.678316 928.017936 1135.490806 934.835702 1134.022044 C 941.653468 1132.548073 953.601485 1128.568873 961.393217 1125.167802 C 969.18495 1121.766732 1003.445655 1106.224934 1037.524068 1090.641469 C 1071.607688 1075.063213 1119.415383 1053.161987 1143.759339 1041.953559 C 1168.103294 1030.745131 1209.124473 1012.031431 1234.942399 1000.343833 C 1260.755117 988.661443 1284.65636 977.505099 1294.250191 972.015469 " stroke="#91120a" stroke-width="1" stroke-opacity="0.8235" stroke-miterlimit="4"/><path stroke-linecap="butt" transform="matrix(0.749994, 0, 0, 0.749994, -80.206801, -295.888266)" fill="none" stroke-linejoin="miter" d="M 1294.250191 972.015469 C 1294.250191 972.015469 1294.250191 972.426931 1294.250191 973.786317 " stroke="#91120a" stroke-width="1" stroke-opacity="0.8235" stroke-miterlimit="4"/><path stroke-linecap="butt" transform="matrix(0.749994, 0, 0, 0.749994, -80.206801, -295.888266)" fill="none" stroke-linejoin="miter" d="M 1191.561825 1080.021588 C 1191.561825 1080.021588 1198.343132 1077.219481 1206.614035 1073.823619 C 1219.520394 1068.511074 1223.681888 1067.62565 1235.822615 1067.62565 C 1249.051893 1067.62565 1251.281079 1068.208989 1269.463524 1076.479892 C 1280.177156 1081.344516 1291.739753 1086.922688 1295.135615 1088.870621 C 1298.536686 1090.818554 1303.724229 1094.396709 1306.646129 1096.839438 C 1309.568029 1099.282167 1313.552437 1104.454086 1319.042067 1115.428137 " stroke="#fd5d46" stroke-width="1" stroke-opacity="0.9961" stroke-miterlimit="4"/><path stroke-linecap="butt" transform="matrix(0.749994, 0, 0, 0.749994, -80.206801, -295.888266)" fill="none" stroke-linejoin="miter" d="M 493.977817 1110.115592 C 493.977817 1110.115592 496.368462 1107.318693 499.285153 1103.922831 C 502.207053 1100.521761 506.58209 1096.131099 509.024819 1094.183166 C 511.467548 1092.235233 523.811402 1085.474759 536.467759 1079.136164 C 559.37941 1067.677734 559.556495 1067.62565 589.58279 1067.62565 " stroke="#fd5d46" stroke-width="1" stroke-opacity="0.9961" stroke-miterlimit="4"/><path stroke-linecap="butt" transform="matrix(0.749994, 0, 0, 0.749994, -80.206801, -295.888266)" fill="none" stroke-linejoin="miter" d="M 612.598609 1076.479892 C 612.598609 1076.479892 612.192356 1076.479892 611.713185 1076.479892 C 611.239223 1076.479892 606.437099 1074.4955 591.353638 1067.62565 " stroke="#e43222" stroke-width="1" stroke-opacity="0.5412" stroke-miterlimit="4"/><path stroke-linecap="butt" transform="matrix(0.749994, 0, 0, 0.749994, -80.206801, -295.888266)" fill="none" stroke-linejoin="miter" d="M 848.079762 1182.709954 C 848.079762 1182.709954 846.09537 1181.913073 843.652641 1180.939106 C 841.209912 1179.965139 836.043202 1177.980748 832.147336 1176.511985 C 828.251469 1175.043223 819.079517 1171.058814 811.782581 1167.657744 C 804.490852 1164.261882 794.115765 1159.480592 788.766761 1157.037863 C 783.422966 1154.595134 773.047879 1149.813843 765.750942 1146.412773 C 758.459214 1143.011703 752.063327 1140.214804 751.589365 1140.214804 C 751.110194 1140.214804 745.516397 1137.824159 739.193427 1134.907468 C 732.870457 1131.985568 720.922439 1126.407396 712.635911 1122.51153 C 704.349383 1118.615664 697.177447 1115.428137 696.698277 1115.428137 C 696.224314 1115.428137 685.864852 1110.646846 673.682458 1104.808256 C 661.505272 1098.964456 651.145809 1094.183166 650.666638 1094.183166 C 650.187468 1094.183166 643.796789 1091.386267 636.505061 1087.985197 C 629.208124 1084.589335 621.239307 1080.604926 614.369457 1076.479892 " stroke="#e73626" stroke-width="1" stroke-opacity="0.4196" stroke-miterlimit="4"/><path stroke-linecap="butt" transform="matrix(0.749994, 0, 0, 0.749994, -80.206801, -295.888266)" fill="none" stroke-linejoin="miter" d="M 1189.790977 1080.021588 C 1189.790977 1080.021588 1189.790977 1080.427842 1189.790977 1080.901804 C 1189.790977 1081.380975 1185.400315 1083.77162 1170.316854 1090.641469 " stroke="#e93524" stroke-width="1" stroke-opacity="0.502" stroke-miterlimit="4"/><path stroke-linecap="butt" transform="matrix(0.749994, 0, 0, 0.749994, -80.206801, -295.888266)" fill="none" stroke-linejoin="miter" d="M 1168.546006 1090.641469 C 1168.546006 1090.641469 1167.749124 1091.438351 1166.775158 1092.412318 C 1165.801191 1093.386284 1164.207428 1094.183166 1161.462613 1094.183166 " stroke="#ea3221" stroke-width="1" stroke-opacity="0.7412" stroke-miterlimit="4"/><path stroke-linecap="butt" transform="matrix(0.749994, 0, 0, 0.749994, -80.206801, -295.888266)" fill="none" stroke-linejoin="miter" d="M 1159.691765 1094.183166 C 1159.691765 1094.183166 1157.707373 1095.370676 1155.264644 1096.839438 C 1152.821915 1098.308201 1143.280168 1103.073866 1134.019673 1107.464528 C 1124.759178 1111.85519 1098.873543 1123.803207 1076.477521 1134.022044 C 1054.081499 1144.235671 1029.774002 1155.407641 1022.477066 1158.808711 C 1015.180129 1162.204573 1006.013385 1166.188982 995.034126 1170.314016 " stroke="#e83423" stroke-width="1" stroke-opacity="0.5451" stroke-miterlimit="4"/><path stroke-linecap="butt" transform="matrix(0.749994, 0, 0, 0.749994, -80.206801, -295.888266)" fill="none" stroke-linejoin="miter" d="M 493.977817 1110.115592 C 493.977817 1110.115592 493.180935 1114.896882 492.206969 1120.740682 C 490.576747 1130.548056 490.769457 1131.985568 494.863241 1139.32938 C 497.30597 1143.720042 502.47268 1149.688842 506.368547 1152.610742 C 510.264413 1155.532642 524.196822 1162.704577 537.353183 1168.543168 C 550.509544 1174.386967 570.426378 1183.55892 581.619181 1188.907923 C 592.806776 1194.251718 602.384981 1198.64238 602.864152 1198.64238 C 603.343323 1198.64238 646.364519 1218.564423 698.469125 1242.908379 C 750.578939 1267.252334 803.943973 1292.341087 817.095125 1298.679682 C 830.251486 1305.018277 846.980794 1312.575633 854.277731 1315.497532 C 861.569459 1318.419432 873.132056 1321.997587 879.949822 1323.46635 C 888.715521 1325.341365 898.309352 1325.856995 912.705307 1325.237198 C 928.304397 1324.565317 935.971128 1323.30489 945.460791 1319.924653 C 952.273349 1317.481924 966.226591 1311.513124 976.445428 1306.648499 C 986.659055 1301.778667 1004.185245 1293.403596 1015.393673 1288.054593 C 1026.602101 1282.710798 1055.675262 1269.163808 1080.019218 1257.95538 C 1104.363173 1246.746953 1146.998949 1227.236371 1174.743975 1214.580015 C 1202.483792 1201.91845 1240.728906 1184.39226 1259.729067 1175.626561 C 1278.724019 1166.860862 1298.640853 1156.897237 1303.989857 1153.496166 C 1309.33886 1150.095096 1315.323286 1144.501299 1317.271219 1141.100228 C 1320.047284 1136.235604 1320.614997 1132.798075 1319.042067 1115.428137 " stroke="#e54033" stroke-width="1" stroke-opacity="0.9961" stroke-miterlimit="4"/><path stroke-linecap="butt" transform="matrix(0.749994, 0, 0, 0.749994, -80.206801, -295.888266)" fill="none" stroke-linejoin="miter" d="M 1319.042067 1115.428137 C 1319.042067 1115.428137 1319.44832 1115.428137 1320.807707 1115.428137 " stroke="#e54033" stroke-width="1" stroke-opacity="0.9961" stroke-miterlimit="4"/><path stroke-linecap="butt" transform="matrix(0.749994, 0, 0, 0.749994, -80.206801, -295.888266)" fill="none" stroke-linejoin="miter" d="M 1290.713703 1221.663408 C 1290.713703 1221.663408 1294.692903 1218.861301 1299.562736 1215.465439 C 1306.541961 1210.579981 1309.547195 1206.824741 1313.729522 1197.756956 C 1318.437895 1187.558953 1319.146234 1183.824547 1319.927491 1165.00668 C 1320.401453 1153.319081 1321.219169 1143.756501 1322.578555 1143.756501 " stroke="#a62217" stroke-width="1" stroke-opacity="0.6667" stroke-miterlimit="4"/><path stroke-linecap="butt" transform="matrix(0.749994, 0, 0, 0.749994, -80.206801, -295.888266)" fill="none" stroke-linejoin="miter" d="M 490.436121 1157.923287 C 490.436121 1157.923287 491.233002 1165.095222 492.206969 1173.855713 C 493.180935 1182.621412 494.38407 1190.975649 495.748665 1195.100684 " stroke="#a11c12" stroke-width="1" stroke-opacity="0.8471" stroke-miterlimit="4"/><path stroke-linecap="butt" transform="matrix(0.749994, 0, 0, 0.749994, -80.206801, -295.888266)" fill="none" stroke-linejoin="miter" d="M 993.263278 1170.314016 C 993.263278 1170.314016 990.466379 1171.90778 987.065309 1173.855713 C 983.669447 1175.803646 974.086033 1180.194308 965.820338 1183.595378 C 956.3463 1187.491245 944.200364 1190.782939 933.064853 1192.44962 C 921.856426 1194.126717 908.861524 1194.782973 897.653096 1194.21526 C 887.918639 1193.741297 873.965397 1191.74128 866.66846 1189.793347 C 859.376732 1187.845414 852.595425 1185.454769 849.85061 1182.709954 " stroke="#e63021" stroke-width="1" stroke-opacity="0.5608" stroke-miterlimit="4"/><path stroke-linecap="butt" transform="matrix(0.749994, 0, 0, 0.749994, -80.206801, -295.888266)" fill="none" stroke-linejoin="miter" d="M 495.748665 1196.871532 C 495.748665 1196.871532 496.545547 1198.059042 497.519514 1199.527804 C 498.488272 1200.996567 502.066427 1205.371604 505.483122 1209.26747 C 508.899818 1213.163336 514.071737 1217.533165 522.306181 1221.663408 " stroke="#9a1d14" stroke-width="1" stroke-opacity="0.6314" stroke-miterlimit="4"/><path stroke-linecap="butt" transform="matrix(0.749994, 0, 0, 0.749994, -80.206801, -295.888266)" fill="none" stroke-linejoin="miter" d="M 522.306181 1221.663408 C 522.306181 1221.663408 531.478133 1226.05407 542.665728 1231.397865 C 553.853322 1236.746868 576.181635 1247.121956 592.239062 1254.413684 C 608.296489 1261.71062 665.276137 1288.018134 816.209701 1357.992682 " stroke="#8a1109" stroke-width="1" stroke-opacity="0.7804" stroke-miterlimit="4"/><path stroke-linecap="butt" transform="matrix(0.749994, 0, 0, 0.749994, -80.206801, -295.888266)" fill="none" stroke-linejoin="miter" d="M 522.306181 1223.429048 C 522.306181 1223.429048 522.306181 1223.022794 522.306181 1221.663408 " stroke="#8a1109" stroke-width="1" stroke-opacity="0.7804" stroke-miterlimit="4"/><path stroke-linecap="butt" transform="matrix(0.749994, 0, 0, 0.749994, -80.206801, -295.888266)" fill="none" stroke-linejoin="miter" d="M 1290.713703 1221.663408 C 1290.713703 1221.663408 1290.713703 1222.069661 1290.713703 1223.429048 " stroke="#7c0a05" stroke-width="1" stroke-opacity="0.949" stroke-miterlimit="4"/><path stroke-linecap="butt" transform="matrix(0.749994, 0, 0, 0.749994, -80.206801, -295.888266)" fill="none" stroke-linejoin="miter" d="M 1285.401158 1225.199896 C 1285.401158 1225.199896 1285.401158 1224.793642 1285.401158 1224.314472 C 1285.401158 1223.840509 1286.58346 1223.022794 1290.713703 1221.663408 " stroke="#7c0a05" stroke-width="1" stroke-opacity="0.949" stroke-miterlimit="4"/><path stroke-linecap="butt" transform="matrix(0.749994, 0, 0, 0.749994, -80.206801, -295.888266)" fill="none" stroke-linejoin="miter" d="M 1092.415156 1313.726684 C 1092.415156 1313.726684 1100.785018 1309.742276 1111.003854 1304.877651 C 1121.217482 1300.007818 1164.65014 1280.085775 1285.401158 1225.199896 " stroke="#8b120a" stroke-width="1" stroke-opacity="0.7882" stroke-miterlimit="4"/><path stroke-linecap="butt" transform="matrix(0.749994, 0, 0, 0.749994, -80.206801, -295.888266)" fill="none" stroke-linejoin="miter" d="M 1092.415156 1313.726684 C 1092.415156 1313.726684 1092.415156 1314.132938 1092.415156 1315.497532 " stroke="#851109" stroke-width="1" stroke-opacity="0.8" stroke-miterlimit="4"/><path stroke-linecap="butt" transform="matrix(0.749994, 0, 0, 0.749994, -80.206801, -295.888266)" fill="none" stroke-linejoin="miter" d="M 816.209701 1359.763531 C 816.209701 1359.763531 816.209701 1359.352069 816.209701 1357.992682 " stroke="#851109" stroke-width="1" stroke-opacity="0.8" stroke-miterlimit="4"/><path stroke-linecap="butt" transform="matrix(0.749994, 0, 0, 0.749994, -80.206801, -295.888266)" fill="none" stroke-linejoin="miter" d="M 816.209701 1357.992682 C 816.209701 1357.992682 819.397228 1359.586446 823.293094 1361.534379 C 827.188961 1363.482312 838.340096 1368.258394 848.079762 1372.15426 C 857.819427 1376.050126 871.77267 1380.425163 879.064398 1381.893926 C 886.361335 1383.362688 899.512487 1384.550198 908.278186 1384.550198 C 918.314729 1384.550198 929.455448 1383.237687 938.377398 1381.008502 C 946.169131 1379.060568 964.085948 1372.294886 978.216276 1365.956291 C 992.341395 1359.617696 1023.805202 1345.294659 1092.415156 1313.726684 " stroke="#851109" stroke-width="1" stroke-opacity="0.8" stroke-miterlimit="4"/><path fill="#e93422" d="M 741.75 79.902344 C 728.367188 74.75 713.136719 68.191406 699.257812 61.976562 C 685.382812 55.761719 669.847656 48.894531 664.734375 46.703125 C 659.621094 44.515625 651.5625 40.929688 646.808594 38.738281 C 642.054688 36.546875 635.496094 33.558594 632.203125 32.097656 C 628.910156 30.636719 622.640625 28.539062 618.257812 27.449219 C 613.875 26.363281 605.207031 25.457031 599.003906 25.457031 C 592.789062 25.457031 587.71875 25.457031 587.71875 25.457031 C 608.007812 24.332031 613.824219 24.730469 618.921875 26.121094 C 622.933594 27.210938 629.8125 29.601562 634.191406 31.433594 C 638.574219 33.265625 646.648438 36.839844 652.121094 39.402344 C 657.589844 41.964844 664.46875 44.953125 667.390625 46.042969 C 670.3125 47.128906 673.589844 48.628906 674.695312 49.359375 C 675.796875 50.089844 680.269531 52.175781 684.652344 54.007812 C 689.035156 55.839844 697.109375 59.414062 702.578125 61.976562 C 708.050781 64.539062 712.84375 66.625 713.203125 66.625 C 713.5625 66.625 718.355469 68.707031 723.824219 71.269531 C 729.296875 73.832031 735.578125 76.820312 737.769531 77.910156 C 739.957031 79 741.75 79.902344 741.75 79.902344 Z M 741.75 79.902344 " fill-opacity="0.6902" fill-rule="evenodd"/><path fill="#ea3521" d="M 586.390625 25.457031 C 576.097656 29.574219 560.855469 35.84375 545.890625 42.058594 C 530.925781 48.273438 518.667969 53.34375 518.667969 53.34375 C 540.273438 43.054688 549.539062 38.871094 553.191406 37.410156 C 556.84375 35.949219 564.015625 32.960938 569.128906 30.769531 C 574.238281 28.578125 580.214844 26.496094 582.40625 26.121094 C 584.597656 25.75 586.390625 25.457031 586.390625 25.457031 Z M 586.390625 25.457031 " fill-opacity="0.7176" fill-rule="evenodd"/><path fill="#fe6149" d="M 586.390625 25.457031 C 587.410156 25.457031 587.71875 25.457031 587.71875 25.457031 C 587.71875 25.457031 592.789062 25.457031 599.003906 25.457031 C 605.207031 25.457031 613.875 26.363281 618.257812 27.449219 C 622.640625 28.539062 628.910156 30.636719 632.203125 32.097656 C 635.496094 33.558594 642.054688 36.546875 646.808594 38.738281 C 651.5625 40.929688 659.621094 44.515625 664.734375 46.703125 C 669.847656 48.894531 685.382812 55.761719 699.257812 61.976562 C 713.136719 68.191406 728.367188 74.75 741.75 79.902344 C 742.773438 79.902344 743.078125 79.902344 743.078125 79.902344 C 744.101562 81.960938 758.152344 88.535156 774.949219 95.835938 C 791.746094 103.140625 809.367188 110.90625 814.121094 113.097656 C 818.875 115.289062 827.839844 119.167969 834.039062 121.730469 C 840.242188 124.292969 845.328125 126.378906 845.328125 126.378906 C 846.347656 127.398438 849.640625 128.902344 853.292969 130.363281 C 856.945312 131.820312 867.394531 136.601562 876.53125 140.984375 C 885.667969 145.367188 895.519531 151.035156 898.441406 153.597656 C 901.363281 156.164062 905.242188 161.234375 907.074219 164.886719 C 909.144531 169.015625 910.390625 173.785156 910.390625 177.5 C 910.390625 181.046875 909.316406 185.375 907.738281 188.125 C 906.277344 190.6875 902.984375 194.257812 900.433594 196.089844 C 897.882812 197.925781 879.054688 206.875 858.605469 216.011719 C 838.15625 225.144531 791.851562 246.046875 755.695312 262.484375 C 719.535156 278.925781 677.414062 298.03125 662.078125 304.976562 C 646.742188 311.921875 630.609375 318.789062 626.226562 320.25 C 620.183594 322.265625 614.714844 322.902344 603.652344 322.902344 C 595.101562 322.902344 585.753906 322.082031 581.078125 320.914062 C 576.695312 319.824219 567.136719 316.238281 559.832031 312.945312 C 552.527344 309.652344 523.554688 296.8125 495.429688 284.394531 C 467.304688 271.980469 432.050781 256.445312 417.085938 249.871094 C 402.121094 243.296875 381.207031 234.027344 370.609375 229.289062 C 360.011719 224.546875 341.195312 216.167969 328.78125 210.699219 C 316.363281 205.226562 302.914062 198.65625 298.902344 196.089844 C 294.03125 192.996094 290.9375 189.890625 289.609375 186.796875 C 288.359375 183.875 287.867188 179.917969 288.28125 176.171875 C 288.691406 172.496094 290.738281 167.382812 293.589844 162.894531 C 296.15625 158.882812 300.628906 153.507812 303.550781 150.945312 C 306.472656 148.382812 308.863281 146.296875 308.863281 146.296875 C 310.921875 144.238281 312.421875 143.640625 313.511719 143.640625 C 314.597656 143.640625 315.5 143.640625 315.5 143.640625 C 318.582031 143.640625 322.167969 141.847656 325.460938 139.65625 C 328.753906 137.464844 331.4375 135.671875 331.4375 135.671875 C 332.457031 135.671875 332.765625 135.671875 332.765625 135.671875 C 335.84375 135.671875 337.652344 134.769531 338.738281 133.679688 C 339.828125 132.59375 340.730469 131.6875 340.730469 131.6875 C 341.753906 131.6875 342.058594 131.6875 342.058594 131.6875 C 343.082031 131.6875 345.179688 131.09375 347.371094 130.363281 C 349.5625 129.632812 351.355469 129.035156 351.355469 129.035156 C 353.414062 129.035156 355.804688 129.035156 357.992188 129.035156 C 360.183594 129.035156 361.378906 128.726562 360.648438 128.371094 C 359.917969 128.011719 359.628906 127.109375 359.984375 126.378906 C 360.34375 125.648438 360.648438 125.050781 360.648438 125.050781 C 361.671875 124.027344 361.976562 123.417969 361.976562 123.058594 C 361.976562 122.699219 361.976562 122.394531 361.976562 122.394531 C 363 121.371094 363.902344 121.066406 364.632812 121.066406 C 365.363281 121.066406 365.960938 121.066406 365.960938 121.066406 C 375.230469 117.984375 384.789062 114.09375 393.183594 110.441406 C 401.574219 106.792969 409.648438 102.902344 411.109375 101.8125 C 412.570312 100.722656 413.765625 99.820312 413.765625 99.820312 C 414.789062 99.820312 415.09375 99.820312 415.09375 99.820312 C 417.152344 99.820312 418.652344 98.917969 419.742188 97.828125 C 420.828125 96.738281 421.730469 95.835938 421.730469 95.835938 C 422.753906 95.835938 423.058594 95.835938 423.058594 95.835938 C 455.992188 82.464844 465.859375 77.976562 466.214844 77.246094 C 466.574219 76.515625 466.878906 75.917969 466.878906 75.917969 C 467.902344 75.917969 468.511719 75.917969 468.871094 75.917969 C 469.230469 75.917969 469.535156 75.917969 469.535156 75.917969 C 486 68.707031 490.78125 66.316406 490.78125 65.960938 C 490.78125 65.601562 490.78125 65.296875 490.78125 65.296875 C 493.863281 64.273438 495.070312 63.96875 495.429688 63.96875 C 495.789062 63.96875 496.09375 63.96875 496.09375 63.96875 C 512.558594 56.757812 517.339844 54.367188 517.339844 54.007812 C 517.339844 53.648438 517.339844 53.34375 517.339844 53.34375 C 518.363281 53.34375 518.667969 53.34375 518.667969 53.34375 C 518.667969 53.34375 530.925781 48.273438 545.890625 42.058594 C 560.855469 35.84375 576.097656 29.574219 586.390625 25.457031 Z M 586.390625 25.457031 " fill-opacity="0.9961" fill-rule="evenodd"/><path fill="#ec3b25" d="M 517.339844 53.34375 C 517.339844 53.34375 517.339844 53.648438 517.339844 54.007812 C 517.339844 54.367188 512.558594 56.757812 496.09375 63.96875 C 502.269531 59.851562 507.046875 57.460938 510.699219 56 C 514.351562 54.539062 517.339844 53.34375 517.339844 53.34375 Z M 517.339844 53.34375 " fill-opacity="0.6392" fill-rule="evenodd"/><path fill="#eb3722" d="M 490.78125 65.296875 C 490.78125 65.296875 490.78125 65.601562 490.78125 65.960938 C 490.78125 66.316406 486 68.707031 469.535156 75.917969 C 469.535156 74.894531 474.316406 72.503906 480.160156 69.941406 C 486 67.378906 490.78125 65.296875 490.78125 65.296875 Z M 490.78125 65.296875 " fill-opacity="0.8078" fill-rule="evenodd"/><path fill="#eb3720" d="M 466.878906 75.917969 C 466.878906 75.917969 466.574219 76.515625 466.214844 77.246094 C 465.859375 77.976562 455.992188 82.464844 423.058594 95.835938 C 440.5625 87.605469 450.414062 83.128906 456.257812 80.566406 C 462.101562 78.003906 466.878906 75.917969 466.878906 75.917969 Z M 466.878906 75.917969 " fill-opacity="0.7725" fill-rule="evenodd"/><path fill="#e73522" d="M 743.078125 79.902344 C 752.347656 84.019531 758.324219 86.699219 762.332031 88.535156 C 766.34375 90.367188 778.292969 95.742188 788.890625 100.484375 C 799.488281 105.226562 809.632812 109.714844 811.464844 110.441406 C 813.296875 111.171875 816.273438 112.367188 818.105469 113.097656 C 819.9375 113.828125 827.09375 117.109375 834.039062 120.402344 C 840.984375 123.695312 846.652344 126.378906 846.652344 126.378906 C 845.632812 126.378906 845.328125 126.378906 845.328125 126.378906 C 845.328125 126.378906 840.242188 124.292969 834.039062 121.730469 C 827.839844 119.167969 818.875 115.289062 814.121094 113.097656 C 809.367188 110.90625 791.746094 103.140625 774.949219 95.835938 C 758.152344 88.535156 744.101562 81.960938 743.078125 79.902344 Z M 743.078125 79.902344 " fill-opacity="0.7059" fill-rule="evenodd"/><path fill="#ef3e28" d="M 421.730469 95.835938 C 421.730469 95.835938 420.828125 96.738281 419.742188 97.828125 C 418.652344 98.917969 417.152344 99.820312 415.09375 99.820312 C 418.171875 96.738281 419.675781 95.835938 420.40625 95.835938 C 421.132812 95.835938 421.730469 95.835938 421.730469 95.835938 Z M 421.730469 95.835938 " fill-opacity="0.5843" fill-rule="evenodd"/><path fill="#eb3722" d="M 413.765625 99.820312 C 413.765625 99.820312 412.570312 100.722656 411.109375 101.8125 C 409.648438 102.902344 401.574219 106.792969 393.183594 110.441406 C 384.789062 114.09375 375.230469 117.984375 365.960938 121.066406 C 390.660156 109.753906 401.414062 104.972656 405.796875 103.140625 C 410.179688 101.308594 413.765625 99.820312 413.765625 99.820312 Z M 413.765625 99.820312 " fill-opacity="0.7686" fill-rule="evenodd"/><path fill="#e93521" d="M 361.976562 122.394531 C 361.976562 122.394531 361.976562 122.699219 361.976562 123.058594 C 361.976562 123.417969 361.671875 124.027344 360.648438 125.050781 C 358.589844 125.050781 356.507812 125.953125 354.675781 127.042969 C 352.839844 128.128906 351.355469 129.035156 351.355469 129.035156 C 351.355469 129.035156 349.5625 129.632812 347.371094 130.363281 C 345.179688 131.09375 343.082031 131.6875 342.058594 131.6875 C 349.269531 127.574219 353.746094 125.476562 356.667969 124.386719 C 359.585938 123.296875 361.976562 122.394531 361.976562 122.394531 Z M 361.976562 122.394531 " fill-opacity="0.7216" fill-rule="evenodd"/><path fill="#fe6d52" d="M 360.648438 125.050781 C 360.648438 125.050781 360.34375 125.648438 359.984375 126.378906 C 359.628906 127.109375 359.917969 128.011719 360.648438 128.371094 C 361.378906 128.726562 360.183594 129.035156 357.992188 129.035156 C 355.804688 129.035156 353.414062 129.035156 351.355469 129.035156 C 351.355469 129.035156 352.839844 128.128906 354.675781 127.042969 C 356.507812 125.953125 358.589844 125.050781 360.648438 125.050781 Z M 360.648438 125.050781 " fill-opacity="0.9765" fill-rule="evenodd"/><path fill="#e53f32" d="M 845.328125 126.378906 C 845.328125 126.378906 845.632812 126.378906 846.652344 126.378906 C 855.921875 129.457031 866.679688 134.253906 876.53125 138.992188 C 886.382812 143.734375 896.554688 149.417969 899.105469 151.609375 C 901.65625 153.796875 905.242188 158.273438 907.074219 161.566406 C 909.570312 166.054688 910.550781 170.183594 911.054688 178.164062 C 911.414062 184.007812 911.71875 188.789062 911.71875 188.789062 C 909.664062 212.449219 908.175781 222.316406 907.074219 225.96875 C 905.96875 229.621094 903.59375 234.402344 901.761719 236.59375 C 899.929688 238.78125 895.757812 242.367188 892.464844 244.558594 C 889.171875 246.75 879.917969 251.53125 871.882812 255.183594 C 863.851562 258.835938 836.058594 271.6875 810.136719 283.730469 C 784.21875 295.777344 753.730469 309.824219 742.414062 314.9375 C 731.101562 320.050781 716.746094 326.621094 710.546875 329.542969 C 704.34375 332.464844 689.40625 339.34375 677.347656 344.8125 C 665.292969 350.285156 650.660156 356.859375 644.816406 359.421875 C 638.972656 361.984375 629.105469 365.265625 622.90625 366.722656 C 613.875 368.847656 608.699219 369.246094 597.011719 368.714844 C 586.65625 368.25 579.3125 367.082031 571.78125 364.734375 C 565.941406 362.898438 536.953125 350.363281 507.378906 336.847656 C 477.808594 323.328125 436.578125 304.511719 415.757812 295.019531 C 394.9375 285.523438 363.570312 271.183594 346.042969 263.148438 C 328.515625 255.117188 311.492188 247.054688 308.199219 245.222656 C 304.90625 243.390625 300.136719 239.511719 297.574219 236.59375 C 295.011719 233.671875 292.023438 228.292969 290.9375 224.640625 C 289.847656 220.988281 288.945312 213.511719 288.945312 208.042969 C 288.945312 202.292969 288.386719 198.082031 287.617188 198.082031 C 286.886719 198.082031 286.289062 198.082031 286.289062 198.082031 C 286.289062 178.75 287.046875 172.148438 288.28125 168.871094 C 289.367188 165.949219 291.757812 161.167969 293.589844 158.246094 C 295.476562 155.234375 299.5 151.5 302.886719 149.617188 C 306.179688 147.785156 308.863281 146.296875 308.863281 146.296875 C 308.863281 146.296875 306.472656 148.382812 303.550781 150.945312 C 300.628906 153.507812 296.15625 158.882812 293.589844 162.894531 C 290.738281 167.382812 288.691406 172.496094 288.28125 176.171875 C 287.867188 179.917969 288.359375 183.875 289.609375 186.796875 C 290.9375 189.890625 294.03125 192.996094 298.902344 196.089844 C 302.914062 198.65625 316.363281 205.226562 328.78125 210.699219 C 341.195312 216.167969 360.011719 224.546875 370.609375 229.289062 C 381.207031 234.027344 402.121094 243.296875 417.085938 249.871094 C 432.050781 256.445312 467.304688 271.980469 495.429688 284.394531 C 523.554688 296.8125 552.527344 309.652344 559.832031 312.945312 C 567.136719 316.238281 576.695312 319.824219 581.078125 320.914062 C 585.753906 322.082031 595.101562 322.902344 603.652344 322.902344 C 614.714844 322.902344 620.183594 322.265625 626.226562 320.25 C 630.609375 318.789062 646.742188 311.921875 662.078125 304.976562 C 677.414062 298.03125 719.535156 278.925781 755.695312 262.484375 C 791.851562 246.046875 838.15625 225.144531 858.605469 216.011719 C 879.054688 206.875 897.882812 197.925781 900.433594 196.089844 C 902.984375 194.257812 906.277344 190.6875 907.738281 188.125 C 909.316406 185.375 910.390625 181.046875 910.390625 177.5 C 910.390625 173.785156 909.144531 169.015625 907.074219 164.886719 C 905.242188 161.234375 901.363281 156.164062 898.441406 153.597656 C 895.519531 151.035156 885.667969 145.367188 876.53125 140.984375 C 867.394531 136.601562 856.945312 131.820312 853.292969 130.363281 C 849.640625 128.902344 846.347656 127.398438 845.328125 126.378906 Z M 845.328125 126.378906 " fill-opacity="0.9922" fill-rule="evenodd"/><path fill="#ec331d" d="M 340.730469 131.6875 C 340.730469 131.6875 339.828125 132.59375 338.738281 133.679688 C 337.652344 134.769531 335.84375 135.671875 332.765625 135.671875 C 334.824219 134.652344 336.613281 133.746094 338.074219 133.015625 C 339.535156 132.285156 340.730469 131.6875 340.730469 131.6875 Z M 340.730469 131.6875 " fill-opacity="0.7098" fill-rule="evenodd"/><path fill="#ea3a24" d="M 331.4375 135.671875 C 331.4375 135.671875 328.753906 137.464844 325.460938 139.65625 C 322.167969 141.847656 318.582031 143.640625 315.5 143.640625 C 315.5 142.617188 319.085938 140.824219 323.46875 138.992188 C 327.851562 137.160156 331.4375 135.671875 331.4375 135.671875 Z M 331.4375 135.671875 " fill-opacity="0.6824" fill-rule="evenodd"/><path fill="#8f120a" d="M 911.71875 188.789062 C 910.699219 212.449219 909.503906 222.621094 908.402344 226.632812 C 907.191406 231.042969 904.5625 236.035156 901.761719 239.246094 C 899.210938 242.167969 895.625 245.460938 893.792969 246.550781 C 891.960938 247.640625 887.792969 249.738281 884.5 251.199219 C 881.207031 252.660156 874.644531 255.648438 869.890625 257.839844 C 865.136719 260.027344 849.617188 267.199219 835.367188 273.773438 C 821.117188 280.347656 805.597656 287.515625 800.84375 289.707031 C 796.089844 291.898438 780.566406 299.070312 766.316406 305.640625 C 752.070312 312.214844 733.253906 320.886719 724.488281 324.894531 C 715.726562 328.90625 692.117188 339.664062 672.039062 348.796875 C 651.960938 357.933594 631.03125 366.589844 625.5625 368.050781 C 618.472656 369.9375 611.394531 370.707031 600.996094 370.707031 C 589.3125 370.707031 584.132812 370.042969 575.101562 367.386719 C 568.886719 365.554688 544.695312 355.410156 521.324219 344.8125 C 497.953125 334.21875 454.027344 314.207031 423.722656 300.332031 C 393.421875 286.453125 358.75 270.613281 346.707031 265.140625 C 334.664062 259.671875 320.308594 253.097656 314.835938 250.535156 C 309.367188 247.972656 302.488281 243.800781 299.566406 241.238281 C 296.644531 238.675781 293.0625 233.910156 291.601562 230.617188 C 290.058594 227.152344 288.386719 219.078125 287.617188 211.363281 C 286.886719 204.058594 286.289062 198.082031 286.289062 198.082031 C 286.289062 198.082031 286.886719 198.082031 287.617188 198.082031 C 288.386719 198.082031 288.945312 202.292969 288.945312 208.042969 C 288.945312 213.511719 289.847656 220.988281 290.9375 224.640625 C 292.023438 228.292969 295.011719 233.671875 297.574219 236.59375 C 300.136719 239.511719 304.90625 243.390625 308.199219 245.222656 C 311.492188 247.054688 328.515625 255.117188 346.042969 263.148438 C 363.570312 271.183594 394.9375 285.523438 415.757812 295.019531 C 436.578125 304.511719 477.808594 323.328125 507.378906 336.847656 C 536.953125 350.363281 565.941406 362.898438 571.78125 364.734375 C 579.3125 367.082031 586.65625 368.25 597.011719 368.714844 C 608.699219 369.246094 613.875 368.847656 622.90625 366.722656 C 629.105469 365.265625 638.972656 361.984375 644.816406 359.421875 C 650.660156 356.859375 665.292969 350.285156 677.347656 344.8125 C 689.40625 339.34375 704.34375 332.464844 710.546875 329.542969 C 716.746094 326.621094 731.101562 320.050781 742.414062 314.9375 C 753.730469 309.824219 784.21875 295.777344 810.136719 283.730469 C 836.058594 271.6875 863.851562 258.835938 871.882812 255.183594 C 879.917969 251.53125 889.171875 246.75 892.464844 244.558594 C 895.757812 242.367188 899.929688 238.78125 901.761719 236.59375 C 903.59375 234.402344 905.96875 229.621094 907.074219 225.96875 C 908.175781 222.316406 909.664062 212.449219 911.71875 188.789062 Z M 911.71875 188.789062 " fill-opacity="0.8196" fill-rule="evenodd"/><path fill="#e53e32" d="M 392.519531 329.542969 C 381.207031 325.425781 374.925781 323.035156 371.273438 321.578125 C 367.449219 320.050781 361.539062 318.921875 357.328125 318.921875 C 353.320312 318.921875 347.039062 319.824219 343.386719 320.914062 C 339.734375 322 328.6875 326.796875 318.820312 331.535156 C 305.4375 337.976562 299.714844 341.507812 296.246094 345.476562 C 293.683594 348.398438 290.695312 353.472656 289.609375 356.765625 C 288.519531 360.058594 287.921875 364.824219 288.28125 367.386719 C 288.640625 369.949219 290.738281 374.121094 292.929688 376.683594 C 295.117188 379.246094 299.300781 382.816406 302.222656 384.652344 C 305.144531 386.484375 313.203125 390.359375 320.148438 393.28125 C 327.09375 396.203125 344.117188 403.679688 357.992188 409.878906 C 371.871094 416.082031 397.855469 427.742188 415.757812 435.773438 C 433.65625 443.808594 462.324219 456.660156 479.496094 464.324219 C 496.664062 471.984375 524.136719 484.546875 540.578125 492.210938 C 557.015625 499.871094 573.75 507.042969 577.757812 508.144531 C 582.351562 509.390625 590.957031 510.136719 600.996094 510.136719 C 612.945312 510.136719 619.253906 509.472656 626.226562 507.480469 C 631.339844 506.019531 643.886719 500.945312 654.113281 496.191406 C 664.335938 491.4375 681.664062 483.378906 692.621094 478.265625 C 703.574219 473.152344 717.917969 466.582031 724.488281 463.660156 C 731.0625 460.738281 747.5 453.261719 761.003906 447.0625 C 774.511719 440.859375 807.375 425.921875 834.039062 413.863281 C 860.703125 401.808594 886.691406 389.855469 891.800781 387.304688 C 896.914062 384.757812 902.890625 380.867188 905.082031 378.675781 C 907.273438 376.484375 909.066406 374.691406 909.066406 374.691406 C 910.085938 389.097656 909.792969 397.464844 909.066406 402.578125 C 908.335938 407.691406 906.542969 414.554688 905.082031 417.847656 C 903.472656 421.460938 900.0625 425.667969 896.449219 428.472656 C 893.15625 431.019531 890.472656 433.117188 890.472656 433.117188 C 883.277344 437.234375 865.351562 445.601562 845.988281 454.363281 C 826.628906 463.128906 795.863281 477.164062 777.605469 485.570312 C 759.347656 493.976562 723.492188 510.402344 697.929688 522.085938 C 672.371094 533.773438 646.675781 545.429688 640.832031 547.980469 C 634.988281 550.53125 626.027344 553.515625 620.914062 554.621094 C 615.800781 555.722656 606.242188 556.613281 599.667969 556.613281 C 590.8125 556.613281 584.796875 555.75 576.429688 553.292969 C 570.214844 551.460938 560.363281 547.875 554.519531 545.324219 C 548.675781 542.773438 536.726562 537.382812 527.960938 533.375 C 519.199219 529.363281 508.734375 524.582031 504.726562 522.75 C 500.714844 520.917969 490.25 516.136719 481.488281 512.128906 C 472.722656 508.117188 440.164062 493.179688 409.117188 478.929688 C 378.070312 464.683594 344.914062 449.453125 335.421875 445.070312 C 325.925781 440.6875 314.265625 435.003906 309.527344 432.453125 C 304.335938 429.652344 299.316406 425.695312 296.910156 422.496094 C 294.71875 419.574219 292.023438 415.085938 290.9375 412.535156 C 289.847656 409.988281 288.945312 404.304688 288.945312 399.921875 C 288.945312 395.539062 288.347656 389.855469 287.617188 387.304688 C 286.886719 384.757812 286.289062 382.660156 286.289062 382.660156 C 286.289062 362.167969 286.898438 358.742188 289.609375 352.78125 C 291.441406 348.769531 294.71875 343.992188 296.910156 342.160156 C 299.101562 340.324219 309.554688 334.65625 320.148438 329.542969 C 330.746094 324.429688 342.085938 319.652344 345.378906 318.921875 C 348.671875 318.191406 355.84375 317.898438 361.3125 318.257812 C 369.480469 318.800781 373.183594 319.875 381.894531 324.230469 C 387.738281 327.152344 392.519531 329.542969 392.519531 329.542969 Z M 392.519531 329.542969 " fill-opacity="0.9922" fill-rule="evenodd"/><path fill="#e72f1e" d="M 861.261719 320.25 C 848.910156 319.226562 842.339844 319.226562 838.6875 319.585938 C 835.035156 319.941406 832.046875 320.25 832.046875 320.25 C 835.140625 318.191406 840.8125 317.59375 846.652344 317.59375 C 852.496094 317.59375 858.167969 318.191406 859.269531 318.921875 C 860.371094 319.652344 861.261719 320.25 861.261719 320.25 Z M 861.261719 320.25 " fill-opacity="0.7059" fill-rule="evenodd"/><path fill="#fe5e48" d="M 392.519531 329.542969 C 393.542969 330.566406 394.152344 330.871094 394.511719 330.871094 C 394.871094 330.871094 395.175781 330.871094 395.175781 330.871094 C 402.386719 334.988281 408.054688 337.671875 412.4375 339.503906 C 416.820312 341.335938 420.40625 342.824219 420.40625 342.824219 C 421.425781 343.84375 422.328125 344.148438 423.058594 344.148438 C 423.789062 344.148438 424.386719 344.148438 424.386719 344.148438 C 425.410156 346.207031 426.617188 346.804688 427.707031 346.804688 C 428.796875 346.804688 431.492188 347.710938 433.683594 348.796875 C 435.875 349.886719 442.738281 353.179688 448.953125 356.101562 C 455.167969 359.023438 467.703125 364.707031 476.839844 368.714844 C 485.976562 372.726562 496.121094 377.214844 499.414062 378.675781 C 502.707031 380.136719 510.460938 383.722656 516.675781 386.644531 C 522.890625 389.5625 534.839844 394.941406 543.234375 398.59375 C 551.625 402.246094 558.503906 405.234375 558.503906 405.234375 C 559.527344 405.234375 559.832031 405.234375 559.832031 405.234375 C 574 410.675781 582.101562 412.351562 591.035156 413.199219 C 602.085938 414.25 607.609375 414.117188 617.59375 412.535156 C 624.539062 411.433594 635.585938 408.445312 642.160156 405.898438 C 648.734375 403.347656 664.867188 396.164062 678.011719 389.960938 C 691.160156 383.746094 701.914062 378.675781 701.914062 378.675781 C 702.9375 378.675781 703.242188 378.675781 703.242188 378.675781 C 719.707031 371.464844 738.234375 363.097656 755.03125 355.4375 C 771.828125 347.777344 789.15625 340.007812 793.539062 338.175781 C 797.921875 336.34375 804.492188 333.0625 808.144531 330.871094 C 811.796875 328.679688 814.785156 326.886719 814.785156 326.886719 C 815.808594 326.886719 816.113281 326.886719 816.113281 326.886719 C 821.265625 324.828125 824.542969 323.328125 826.734375 322.242188 C 828.925781 321.152344 830.71875 320.25 830.71875 320.25 C 831.742188 320.25 832.046875 320.25 832.046875 320.25 C 832.046875 320.25 835.035156 319.941406 838.6875 319.585938 C 842.339844 319.226562 848.910156 319.226562 861.261719 320.25 C 862.285156 320.25 862.589844 320.25 862.589844 320.25 C 863.609375 322.308594 870.199219 325.585938 877.859375 328.878906 C 885.519531 332.171875 891.800781 334.855469 891.800781 334.855469 C 892.824219 334.855469 894.324219 335.757812 895.785156 336.847656 C 897.246094 337.9375 898.441406 338.839844 898.441406 338.839844 C 904.617188 348.109375 907.296875 352.875 908.402344 355.4375 C 909.726562 358.53125 910.167969 362.515625 909.726562 367.386719 C 909.371094 371.398438 909.066406 374.691406 909.066406 374.691406 C 909.066406 374.691406 907.273438 376.484375 905.082031 378.675781 C 902.890625 380.867188 896.914062 384.757812 891.800781 387.304688 C 886.691406 389.855469 860.703125 401.808594 834.039062 413.863281 C 807.375 425.921875 774.511719 440.859375 761.003906 447.0625 C 747.5 453.261719 731.0625 460.738281 724.488281 463.660156 C 717.917969 466.582031 703.574219 473.152344 692.621094 478.265625 C 681.664062 483.378906 664.335938 491.4375 654.113281 496.191406 C 643.886719 500.945312 631.339844 506.019531 626.226562 507.480469 C 619.253906 509.472656 612.945312 510.136719 600.996094 510.136719 C 590.957031 510.136719 582.351562 509.390625 577.757812 508.144531 C 573.75 507.042969 557.015625 499.871094 540.578125 492.210938 C 524.136719 484.546875 496.664062 471.984375 479.496094 464.324219 C 462.324219 456.660156 433.65625 443.808594 415.757812 435.773438 C 397.855469 427.742188 371.871094 416.082031 357.992188 409.878906 C 344.117188 403.679688 327.09375 396.203125 320.148438 393.28125 C 313.203125 390.359375 305.144531 386.484375 302.222656 384.652344 C 299.300781 382.816406 295.117188 379.246094 292.929688 376.683594 C 290.738281 374.121094 288.640625 369.949219 288.28125 367.386719 C 287.921875 364.824219 288.519531 360.058594 289.609375 356.765625 C 290.695312 353.472656 293.683594 348.398438 296.246094 345.476562 C 299.714844 341.507812 305.4375 337.976562 318.820312 331.535156 C 328.6875 326.796875 339.734375 322 343.386719 320.914062 C 347.039062 319.824219 353.320312 318.921875 357.328125 318.921875 C 361.539062 318.921875 367.449219 320.050781 371.273438 321.578125 C 374.925781 323.035156 381.207031 325.425781 392.519531 329.542969 Z M 392.519531 329.542969 " fill-opacity="0.9961" fill-rule="evenodd"/><path fill="#ec3624" d="M 830.71875 320.25 C 830.71875 320.25 828.925781 321.152344 826.734375 322.242188 C 824.542969 323.328125 821.265625 324.828125 816.113281 326.886719 C 824.347656 321.734375 827.625 320.25 828.726562 320.25 C 829.828125 320.25 830.71875 320.25 830.71875 320.25 Z M 830.71875 320.25 " fill-opacity="0.4627" fill-rule="evenodd"/><path fill="#e83322" d="M 862.589844 320.25 C 878.019531 327.457031 884.605469 330.738281 887.15625 332.199219 C 889.703125 333.660156 891.800781 334.855469 891.800781 334.855469 C 891.800781 334.855469 885.519531 332.171875 877.859375 328.878906 C 870.199219 325.585938 863.609375 322.308594 862.589844 320.25 Z M 862.589844 320.25 " fill-opacity="0.6588" fill-rule="evenodd"/><path fill="#e83322" d="M 814.785156 326.886719 C 814.785156 326.886719 811.796875 328.679688 808.144531 330.871094 C 804.492188 333.0625 797.921875 336.34375 793.539062 338.175781 C 789.15625 340.007812 771.828125 347.777344 755.03125 355.4375 C 738.234375 363.097656 719.707031 371.464844 703.242188 378.675781 C 715.59375 371.464844 722.164062 368.183594 725.816406 366.722656 C 729.46875 365.265625 736.945312 361.984375 742.414062 359.421875 C 747.886719 356.859375 755.960938 353.285156 760.34375 351.453125 C 764.722656 349.621094 769.199219 347.535156 770.300781 346.804688 C 771.402344 346.074219 775.878906 343.992188 780.261719 342.160156 C 784.640625 340.324219 792.105469 337.046875 796.859375 334.855469 C 801.613281 332.664062 807.589844 329.96875 810.136719 328.878906 C 812.6875 327.789062 814.785156 326.886719 814.785156 326.886719 Z M 814.785156 326.886719 " fill-opacity="0.5529" fill-rule="evenodd"/><path fill="#e63223" d="M 395.175781 330.871094 C 398.253906 330.871094 403.9375 333.554688 409.78125 336.847656 C 415.625 340.140625 420.40625 342.824219 420.40625 342.824219 C 420.40625 342.824219 416.820312 341.335938 412.4375 339.503906 C 408.054688 337.671875 402.386719 334.988281 395.175781 330.871094 Z M 395.175781 330.871094 " fill-opacity="0.4745" fill-rule="evenodd"/><path fill="#b82217" d="M 898.441406 338.839844 C 903.59375 342.957031 906.566406 347.445312 908.402344 351.453125 C 911.441406 358.132812 911.71875 360.351562 911.71875 377.347656 C 911.71875 387.570312 911.121094 399.816406 910.390625 404.570312 C 909.664062 409.324219 907.578125 416.1875 905.746094 419.839844 C 903.914062 423.492188 900.9375 427.675781 899.105469 429.136719 C 897.273438 430.59375 894.589844 432.386719 893.128906 433.117188 C 891.667969 433.847656 890.472656 434.445312 890.472656 434.445312 C 890.472656 433.421875 890.472656 433.117188 890.472656 433.117188 C 890.472656 433.117188 893.15625 431.019531 896.449219 428.472656 C 900.0625 425.667969 903.472656 421.460938 905.082031 417.847656 C 906.542969 414.554688 908.335938 407.691406 909.066406 402.578125 C 909.792969 397.464844 910.085938 389.097656 909.066406 374.691406 C 909.066406 374.691406 909.371094 371.398438 909.726562 367.386719 C 910.167969 362.515625 909.726562 358.53125 908.402344 355.4375 C 907.296875 352.875 904.617188 348.109375 898.441406 338.839844 Z M 898.441406 338.839844 " fill-opacity="0.7765" fill-rule="evenodd"/><path fill="#e83827" d="M 424.386719 344.148438 C 428.503906 345.171875 434.773438 347.867188 440.988281 350.789062 C 447.199219 353.710938 452.578125 356.101562 452.9375 356.101562 C 453.296875 356.101562 457.492188 357.894531 462.234375 360.085938 C 466.972656 362.277344 475.351562 366.152344 480.824219 368.714844 C 486.292969 371.277344 497.355469 376.351562 505.390625 380.003906 C 513.421875 383.65625 520.300781 386.644531 520.660156 386.644531 C 521.019531 386.644531 527.605469 389.628906 535.265625 393.28125 C 542.929688 396.933594 551.292969 401.117188 553.855469 402.578125 C 556.417969 404.039062 558.503906 405.234375 558.503906 405.234375 C 558.503906 405.234375 551.625 402.246094 543.234375 398.59375 C 534.839844 394.941406 522.890625 389.5625 516.675781 386.644531 C 510.460938 383.722656 502.707031 380.136719 499.414062 378.675781 C 496.121094 377.214844 485.976562 372.726562 476.839844 368.714844 C 467.703125 364.707031 455.167969 359.023438 448.953125 356.101562 C 442.738281 353.179688 435.875 349.886719 433.683594 348.796875 C 431.492188 347.710938 428.796875 346.804688 427.707031 346.804688 C 426.617188 346.804688 425.410156 346.207031 424.386719 344.148438 Z M 424.386719 344.148438 " fill-opacity="0.4471" fill-rule="evenodd"/><path fill="#e93423" d="M 701.914062 378.675781 C 701.914062 378.675781 691.160156 383.746094 678.011719 389.960938 C 664.867188 396.164062 648.734375 403.347656 642.160156 405.898438 C 635.585938 408.445312 624.539062 411.433594 617.59375 412.535156 C 607.609375 414.117188 602.085938 414.25 591.035156 413.199219 C 582.101562 412.351562 574 410.675781 559.832031 405.234375 C 575.261719 409.347656 584.238281 411.140625 589.710938 411.871094 C 596.347656 412.761719 603.652344 412.761719 611.621094 411.871094 C 618.191406 411.140625 628.949219 408.75 635.519531 406.5625 C 642.09375 404.371094 654.335938 399.285156 662.742188 395.273438 C 671.148438 391.261719 678.320312 387.96875 678.675781 387.96875 C 679.035156 387.96875 683.828125 385.871094 689.300781 383.324219 C 694.769531 380.761719 699.855469 378.675781 700.585938 378.675781 C 701.316406 378.675781 701.914062 378.675781 701.914062 378.675781 Z M 701.914062 378.675781 " fill-opacity="0.5608" fill-rule="evenodd"/><path fill="#91120a" d="M 286.289062 382.660156 C 286.289062 382.660156 286.886719 384.757812 287.617188 387.304688 C 288.347656 389.855469 288.945312 395.539062 288.945312 399.921875 C 288.945312 404.304688 289.847656 409.988281 290.9375 412.535156 C 292.023438 415.085938 294.71875 419.574219 296.910156 422.496094 C 299.316406 425.695312 304.335938 429.652344 309.527344 432.453125 C 314.265625 435.003906 325.925781 440.6875 335.421875 445.070312 C 344.914062 449.453125 378.070312 464.683594 409.117188 478.929688 C 440.164062 493.179688 472.722656 508.117188 481.488281 512.128906 C 490.25 516.136719 500.714844 520.917969 504.726562 522.75 C 508.734375 524.582031 519.199219 529.363281 527.960938 533.375 C 536.726562 537.382812 548.675781 542.773438 554.519531 545.324219 C 560.363281 547.875 570.214844 551.460938 576.429688 553.292969 C 584.796875 555.75 590.8125 556.613281 599.667969 556.613281 C 606.242188 556.613281 615.800781 555.722656 620.914062 554.621094 C 626.027344 553.515625 634.988281 550.53125 640.832031 547.980469 C 646.675781 545.429688 672.371094 533.773438 697.929688 522.085938 C 723.492188 510.402344 759.347656 493.976562 777.605469 485.570312 C 795.863281 477.164062 826.628906 463.128906 845.988281 454.363281 C 865.351562 445.601562 883.277344 437.234375 890.472656 433.117188 C 890.472656 433.117188 890.472656 433.421875 890.472656 434.445312 C 889.453125 436.503906 876.890625 442.480469 861.925781 449.054688 C 846.960938 455.625 826.933594 464.589844 817.441406 468.972656 C 807.945312 473.351562 785.835938 483.511719 768.308594 491.546875 C 750.78125 499.578125 733.148438 507.640625 729.136719 509.472656 C 725.125 511.304688 710.773438 517.878906 697.265625 524.078125 C 683.761719 530.28125 663.433594 539.546875 652.121094 544.660156 C 640.804688 549.773438 629.148438 554.554688 626.226562 555.285156 C 623.304688 556.015625 616.425781 557.207031 610.957031 557.9375 C 604.316406 558.828125 597.449219 558.828125 590.375 557.9375 C 584.53125 557.207031 574.078125 554.511719 567.136719 551.964844 C 560.191406 549.414062 544.054688 542.535156 531.28125 536.691406 C 518.507812 530.851562 504.152344 524.277344 499.414062 522.085938 C 494.671875 519.894531 476.441406 511.53125 458.914062 503.496094 C 441.386719 495.460938 423.152344 487.097656 418.414062 484.90625 C 413.671875 482.714844 394.84375 474.058594 376.585938 465.652344 C 358.324219 457.246094 341.898438 449.785156 340.066406 449.054688 C 338.234375 448.324219 328.6875 443.847656 318.820312 439.09375 C 303.722656 431.832031 300.164062 429.519531 296.246094 424.488281 C 293.683594 421.195312 290.695312 415.828125 289.609375 412.535156 C 288.519531 409.242188 287.3125 401.183594 286.953125 394.609375 C 286.59375 388.035156 286.289062 382.660156 286.289062 382.660156 Z M 286.289062 382.660156 " fill-opacity="0.8235" fill-rule="evenodd"/><path fill="#e2311f" d="M 361.976562 504.824219 C 339.457031 504.824219 339.324219 504.863281 322.140625 513.457031 C 312.648438 518.210938 303.390625 523.28125 301.558594 524.742188 C 299.726562 526.203125 296.445312 529.496094 294.253906 532.046875 C 292.066406 534.59375 290.273438 536.691406 290.273438 536.691406 C 291.292969 532.578125 293.683594 529.285156 296.246094 526.734375 C 299.035156 523.945312 308.09375 518.621094 318.820312 513.457031 C 328.6875 508.703125 340.039062 504.226562 344.050781 503.496094 C 348.925781 502.605469 353.121094 502.605469 356.667969 503.496094 C 359.585938 504.226562 361.976562 504.824219 361.976562 504.824219 Z M 361.976562 504.824219 " fill-opacity="0.6745" fill-rule="evenodd"/><path fill="#e73423" d="M 910.390625 540.675781 C 909.371094 540.675781 909.066406 540.675781 909.066406 540.675781 C 904.949219 532.445312 901.960938 528.566406 899.769531 526.734375 C 897.578125 524.902344 893.6875 522.21875 891.136719 520.757812 C 888.589844 519.296875 879.917969 515.113281 871.882812 511.464844 C 858.246094 505.261719 856.574219 504.824219 846.652344 504.824219 C 837.542969 504.824219 834.425781 505.488281 824.742188 509.472656 C 818.542969 512.019531 813.457031 514.121094 813.457031 514.121094 C 826.84375 506.921875 834.011719 504.226562 838.023438 503.496094 C 842.894531 502.605469 847.980469 502.605469 853.292969 503.496094 C 858.074219 504.292969 868.695312 508.277344 879.851562 513.457031 C 894.207031 520.121094 899.503906 523.292969 903.089844 527.398438 C 905.636719 530.320312 908.335938 534.503906 909.066406 536.691406 C 909.792969 538.882812 910.390625 540.675781 910.390625 540.675781 Z M 910.390625 540.675781 " fill-opacity="0.6314" fill-rule="evenodd"/><path fill="#fd5d46" d="M 361.976562 504.824219 C 363 504.824219 363.304688 504.824219 363.304688 504.824219 C 374.617188 509.976562 378.21875 511.464844 378.574219 511.464844 C 378.933594 511.464844 379.238281 511.464844 379.238281 511.464844 C 380.261719 511.464844 380.566406 511.464844 380.566406 511.464844 C 385.71875 514.558594 391.695312 517.546875 397.167969 520.09375 C 402.636719 522.644531 407.429688 524.742188 407.789062 524.742188 C 408.148438 524.742188 415.917969 528.328125 425.050781 532.710938 C 434.1875 537.089844 441.957031 540.675781 442.3125 540.675781 C 442.671875 540.675781 448.050781 543.066406 454.265625 545.988281 C 460.480469 548.910156 469.441406 553.09375 474.183594 555.285156 C 478.925781 557.472656 483.121094 559.265625 483.480469 559.265625 C 483.835938 559.265625 488.632812 561.363281 494.101562 563.914062 C 499.574219 566.464844 507.355469 570.050781 511.363281 571.882812 C 515.375 573.714844 523.15625 577.300781 528.625 579.847656 C 534.097656 582.398438 540.976562 585.386719 543.898438 586.488281 C 546.820312 587.589844 550.695312 589.078125 552.527344 589.808594 C 554.359375 590.539062 555.847656 591.136719 555.847656 591.136719 C 556.871094 591.136719 557.175781 591.136719 557.175781 591.136719 C 559.234375 593.195312 564.320312 594.988281 569.789062 596.449219 C 575.261719 597.910156 585.726562 599.410156 593.027344 599.765625 C 601.433594 600.191406 611.179688 599.699219 619.585938 598.441406 C 627.9375 597.191406 637.046875 594.722656 644.152344 591.800781 C 650.351562 589.25 657.539062 585.957031 660.085938 584.496094 C 662.636719 583.035156 664.734375 581.839844 664.734375 581.839844 C 665.757812 581.839844 666.0625 581.839844 666.0625 581.839844 C 674.296875 578.746094 681.171875 575.757812 686.644531 573.210938 C 692.117188 570.660156 710.347656 562.28125 727.144531 554.621094 C 743.941406 546.957031 763.355469 537.996094 770.300781 534.703125 C 777.246094 531.40625 784.402344 527.835938 786.234375 526.734375 C 788.066406 525.632812 789.554688 524.742188 789.554688 524.742188 C 790.578125 524.742188 790.882812 524.742188 790.882812 524.742188 C 792.941406 524.742188 794.136719 524.144531 794.867188 523.414062 C 795.597656 522.683594 796.195312 522.085938 796.195312 522.085938 C 797.21875 522.085938 797.523438 522.085938 797.523438 522.085938 C 808.835938 516.933594 812.128906 515.140625 812.128906 514.78125 C 812.128906 514.425781 812.128906 514.121094 812.128906 514.121094 C 813.152344 514.121094 813.457031 514.121094 813.457031 514.121094 C 813.457031 514.121094 818.542969 512.019531 824.742188 509.472656 C 834.425781 505.488281 837.542969 504.824219 846.652344 504.824219 C 856.574219 504.824219 858.246094 505.261719 871.882812 511.464844 C 879.917969 515.113281 888.589844 519.296875 891.136719 520.757812 C 893.6875 522.21875 897.578125 524.902344 899.769531 526.734375 C 901.960938 528.566406 904.949219 532.445312 909.066406 540.675781 C 910.246094 553.703125 909.820312 556.28125 907.738281 559.929688 C 906.277344 562.480469 901.789062 566.675781 897.777344 569.226562 C 893.765625 571.777344 878.828125 579.25 864.582031 585.824219 C 850.332031 592.398438 821.648438 605.542969 800.84375 615.039062 C 780.035156 624.53125 748.058594 639.164062 729.800781 647.570312 C 711.542969 655.976562 689.738281 666.136719 681.332031 670.144531 C 672.925781 674.15625 659.78125 680.4375 652.121094 684.089844 C 644.457031 687.738281 633.992188 692.214844 628.882812 694.046875 C 621.765625 696.582031 616.015625 697.527344 604.316406 698.03125 C 593.519531 698.496094 586.324219 698.109375 579.75 696.703125 C 574.636719 695.601562 565.964844 692.917969 560.496094 690.726562 C 555.023438 688.535156 542.476562 682.867188 532.609375 678.113281 C 522.746094 673.359375 482.722656 654.542969 443.640625 636.285156 C 404.5625 618.027344 372.296875 603.085938 371.9375 603.085938 C 371.578125 603.085938 364.394531 599.792969 356.003906 595.785156 C 347.609375 591.773438 332.671875 584.894531 322.804688 580.511719 C 312.9375 576.132812 302.488281 570.753906 299.566406 568.5625 C 296.644531 566.371094 292.769531 561.894531 290.9375 558.601562 C 287.867188 553.09375 287.722656 552.015625 288.945312 544.660156 C 289.675781 540.277344 290.273438 536.691406 290.273438 536.691406 C 290.273438 536.691406 292.066406 534.59375 294.253906 532.046875 C 296.445312 529.496094 299.726562 526.203125 301.558594 524.742188 C 303.390625 523.28125 312.648438 518.210938 322.140625 513.457031 C 339.324219 504.863281 339.457031 504.824219 361.976562 504.824219 Z M 361.976562 504.824219 " fill-opacity="0.9961" fill-rule="evenodd"/><path fill="#e43222" d="M 363.304688 504.824219 C 367.421875 504.824219 371.007812 506.3125 373.929688 508.144531 C 376.851562 509.976562 379.238281 511.464844 379.238281 511.464844 C 379.238281 511.464844 378.933594 511.464844 378.574219 511.464844 C 378.21875 511.464844 374.617188 509.976562 363.304688 504.824219 Z M 363.304688 504.824219 " fill-opacity="0.5412" fill-rule="evenodd"/><path fill="#e73626" d="M 380.566406 511.464844 C 390.859375 515.578125 401.015625 520.066406 409.78125 524.078125 C 418.546875 528.089844 428.398438 532.578125 431.691406 534.039062 C 434.984375 535.496094 440.347656 537.886719 443.640625 539.347656 C 446.933594 540.808594 453.507812 543.796875 458.25 545.988281 C 462.988281 548.179688 470.769531 551.765625 475.511719 553.957031 C 480.253906 556.148438 485.335938 558.246094 486.796875 558.601562 C 488.257812 558.960938 489.757812 559.265625 490.117188 559.265625 C 490.476562 559.265625 491.976562 560.15625 493.4375 561.257812 C 494.898438 562.359375 499.386719 564.738281 503.398438 566.570312 C 507.40625 568.402344 512.785156 570.78125 515.347656 571.882812 C 517.910156 572.984375 525.066406 576.265625 531.28125 579.183594 C 537.496094 582.105469 544.960938 585.386719 547.882812 586.488281 C 550.800781 587.589844 553.789062 589.078125 554.519531 589.808594 C 555.25 590.539062 555.847656 591.136719 555.847656 591.136719 C 555.847656 591.136719 554.359375 590.539062 552.527344 589.808594 C 550.695312 589.078125 546.820312 587.589844 543.898438 586.488281 C 540.976562 585.386719 534.097656 582.398438 528.625 579.847656 C 523.15625 577.300781 515.375 573.714844 511.363281 571.882812 C 507.355469 570.050781 499.574219 566.464844 494.101562 563.914062 C 488.632812 561.363281 483.835938 559.265625 483.480469 559.265625 C 483.121094 559.265625 478.925781 557.472656 474.183594 555.285156 C 469.441406 553.09375 460.480469 548.910156 454.265625 545.988281 C 448.050781 543.066406 442.671875 540.675781 442.3125 540.675781 C 441.957031 540.675781 434.1875 537.089844 425.050781 532.710938 C 415.917969 528.328125 408.148438 524.742188 407.789062 524.742188 C 407.429688 524.742188 402.636719 522.644531 397.167969 520.09375 C 391.695312 517.546875 385.71875 514.558594 380.566406 511.464844 Z M 380.566406 511.464844 " fill-opacity="0.4196" fill-rule="evenodd"/><path fill="#e93524" d="M 812.128906 514.121094 C 812.128906 514.121094 812.128906 514.425781 812.128906 514.78125 C 812.128906 515.140625 808.835938 516.933594 797.523438 522.085938 C 802.675781 517.96875 805.953125 516.175781 808.144531 515.445312 C 810.335938 514.714844 812.128906 514.121094 812.128906 514.121094 Z M 812.128906 514.121094 " fill-opacity="0.502" fill-rule="evenodd"/><path fill="#ea3221" d="M 796.195312 522.085938 C 796.195312 522.085938 795.597656 522.683594 794.867188 523.414062 C 794.136719 524.144531 792.941406 524.742188 790.882812 524.742188 C 792.941406 522.683594 794.136719 522.085938 794.867188 522.085938 C 795.597656 522.085938 796.195312 522.085938 796.195312 522.085938 Z M 796.195312 522.085938 " fill-opacity="0.7412" fill-rule="evenodd"/><path fill="#e83423" d="M 789.554688 524.742188 C 789.554688 524.742188 788.066406 525.632812 786.234375 526.734375 C 784.402344 527.835938 777.246094 531.40625 770.300781 534.703125 C 763.355469 537.996094 743.941406 546.957031 727.144531 554.621094 C 710.347656 562.28125 692.117188 570.660156 686.644531 573.210938 C 681.171875 575.757812 674.296875 578.746094 666.0625 581.839844 C 671.214844 578.746094 678.371094 575.175781 685.316406 571.882812 C 692.261719 568.589844 700.320312 565.015625 703.242188 563.914062 C 706.164062 562.8125 710.042969 561.035156 711.875 559.929688 C 713.707031 558.828125 724.753906 553.757812 736.441406 548.644531 C 748.125 543.53125 761.269531 537.554688 765.652344 535.367188 C 770.035156 533.175781 777.207031 529.894531 781.589844 528.0625 C 785.96875 526.230469 789.554688 524.742188 789.554688 524.742188 Z M 789.554688 524.742188 " fill-opacity="0.5451" fill-rule="evenodd"/><path fill="#e54033" d="M 290.273438 536.691406 C 290.273438 536.691406 289.675781 540.277344 288.945312 544.660156 C 287.722656 552.015625 287.867188 553.09375 290.9375 558.601562 C 292.769531 561.894531 296.644531 566.371094 299.566406 568.5625 C 302.488281 570.753906 312.9375 576.132812 322.804688 580.511719 C 332.671875 584.894531 347.609375 591.773438 356.003906 595.785156 C 364.394531 599.792969 371.578125 603.085938 371.9375 603.085938 C 372.296875 603.085938 404.5625 618.027344 443.640625 636.285156 C 482.722656 654.542969 522.746094 673.359375 532.609375 678.113281 C 542.476562 682.867188 555.023438 688.535156 560.496094 690.726562 C 565.964844 692.917969 574.636719 695.601562 579.75 696.703125 C 586.324219 698.109375 593.519531 698.496094 604.316406 698.03125 C 616.015625 697.527344 621.765625 696.582031 628.882812 694.046875 C 633.992188 692.214844 644.457031 687.738281 652.121094 684.089844 C 659.78125 680.4375 672.925781 674.15625 681.332031 670.144531 C 689.738281 666.136719 711.542969 655.976562 729.800781 647.570312 C 748.058594 639.164062 780.035156 624.53125 800.84375 615.039062 C 821.648438 605.542969 850.332031 592.398438 864.582031 585.824219 C 878.828125 579.25 893.765625 571.777344 897.777344 569.226562 C 901.789062 566.675781 906.277344 562.480469 907.738281 559.929688 C 909.820312 556.28125 910.246094 553.703125 909.066406 540.675781 C 909.066406 540.675781 909.371094 540.675781 910.390625 540.675781 C 911.414062 541.699219 911.71875 546.492188 911.71875 551.964844 C 911.71875 557.433594 911.71875 561.921875 911.71875 561.921875 C 910.699219 561.921875 910.085938 569.09375 909.726562 577.859375 C 909.144531 591.972656 908.613281 594.773438 905.082031 602.421875 C 901.945312 609.222656 899.691406 612.035156 894.457031 615.703125 C 890.804688 618.25 887.820312 620.351562 887.820312 620.351562 C 884.722656 621.371094 883.835938 621.984375 883.835938 622.339844 C 883.835938 622.699219 883.835938 623.003906 883.835938 623.003906 C 793.273438 664.167969 760.699219 679.109375 753.039062 682.761719 C 745.375 686.410156 739.097656 689.398438 739.097656 689.398438 C 687.640625 713.074219 664.042969 723.816406 653.449219 728.570312 C 642.851562 733.324219 629.414062 738.398438 623.570312 739.859375 C 616.878906 741.53125 608.523438 742.515625 600.996094 742.515625 C 594.421875 742.515625 584.558594 741.625 579.085938 740.523438 C 573.617188 739.421875 563.152344 736.140625 555.847656 733.21875 C 548.542969 730.296875 540.179688 726.710938 537.257812 725.253906 C 534.335938 723.792969 531.945312 722.597656 531.945312 722.597656 C 418.746094 670.117188 376.011719 650.386719 363.96875 644.914062 C 351.925781 639.445312 335.179688 631.664062 326.789062 627.652344 C 318.398438 623.644531 311.519531 620.351562 311.519531 620.351562 C 305.34375 617.253906 301.464844 613.976562 298.902344 611.054688 C 296.339844 608.132812 293.65625 604.851562 292.929688 603.75 C 292.199219 602.648438 291.601562 601.757812 291.601562 601.757812 C 291.601562 600.738281 291.601562 600.429688 291.601562 600.429688 C 290.578125 597.335938 289.675781 591.070312 288.945312 584.496094 C 288.214844 577.925781 287.617188 572.546875 287.617188 572.546875 C 286.449219 549.226562 286.78125 544.859375 288.28125 541.339844 C 289.367188 538.792969 290.273438 536.691406 290.273438 536.691406 Z M 290.273438 536.691406 " fill-opacity="0.9961" fill-rule="evenodd"/><path fill="#a62217" d="M 911.71875 561.921875 C 910.617188 587.378906 909.503906 595.121094 907.738281 600.429688 C 905.96875 605.742188 903.316406 610.164062 899.769531 613.710938 C 896.847656 616.632812 892.96875 619.621094 891.136719 620.351562 C 889.304688 621.078125 887.820312 621.675781 887.820312 621.675781 C 887.820312 620.65625 887.820312 620.351562 887.820312 620.351562 C 887.820312 620.351562 890.804688 618.25 894.457031 615.703125 C 899.691406 612.035156 901.945312 609.222656 905.082031 602.421875 C 908.613281 594.773438 909.144531 591.972656 909.726562 577.859375 C 910.085938 569.09375 910.699219 561.921875 911.71875 561.921875 Z M 911.71875 561.921875 " fill-opacity="0.6667" fill-rule="evenodd"/><path fill="#a11c12" d="M 287.617188 572.546875 C 287.617188 572.546875 288.214844 577.925781 288.945312 584.496094 C 289.675781 591.070312 290.578125 597.335938 291.601562 600.429688 C 289.542969 598.375 288.640625 592.105469 288.28125 585.160156 C 287.921875 578.214844 287.617188 572.546875 287.617188 572.546875 Z M 287.617188 572.546875 " fill-opacity="0.8471" fill-rule="evenodd"/><path fill="#e63021" d="M 664.734375 581.839844 C 664.734375 581.839844 662.636719 583.035156 660.085938 584.496094 C 657.539062 585.957031 650.351562 589.25 644.152344 591.800781 C 637.046875 594.722656 627.9375 597.191406 619.585938 598.441406 C 611.179688 599.699219 601.433594 600.191406 593.027344 599.765625 C 585.726562 599.410156 575.261719 597.910156 569.789062 596.449219 C 564.320312 594.988281 559.234375 593.195312 557.175781 591.136719 C 571.582031 595.253906 579.351562 597.046875 583.734375 597.777344 C 588.117188 598.507812 595.285156 599.105469 599.667969 599.105469 C 604.050781 599.105469 613.917969 597.910156 621.578125 596.449219 C 629.863281 594.867188 641.457031 591.363281 650.128906 587.816406 C 658.160156 584.523438 664.734375 581.839844 664.734375 581.839844 Z M 664.734375 581.839844 " fill-opacity="0.5608" fill-rule="evenodd"/><path fill="#9a1d14" d="M 291.601562 601.757812 C 291.601562 601.757812 292.199219 602.648438 292.929688 603.75 C 293.65625 604.851562 296.339844 608.132812 298.902344 611.054688 C 301.464844 613.976562 305.34375 617.253906 311.519531 620.351562 C 311.519531 621.371094 311.519531 621.675781 311.519531 621.675781 C 304.308594 618.582031 300.136719 615.304688 297.574219 612.382812 C 295.011719 609.460938 292.621094 605.875 292.265625 604.414062 C 291.90625 602.953125 291.601562 601.757812 291.601562 601.757812 Z M 291.601562 601.757812 " fill-opacity="0.6314" fill-rule="evenodd"/><path fill="#8a1109" d="M 311.519531 620.351562 C 311.519531 620.351562 318.398438 623.644531 326.789062 627.652344 C 335.179688 631.664062 351.925781 639.445312 363.96875 644.914062 C 376.011719 650.386719 418.746094 670.117188 531.945312 722.597656 C 531.945312 723.617188 531.945312 723.925781 531.945312 723.925781 C 519.597656 718.773438 508.550781 713.699219 499.414062 709.316406 C 490.277344 704.9375 472.949219 696.863281 460.90625 691.390625 C 448.859375 685.921875 436.605469 680.238281 433.683594 678.777344 C 430.761719 677.316406 417.324219 671.035156 403.804688 664.832031 C 390.289062 658.632812 377.449219 652.65625 375.257812 651.554688 C 373.066406 650.453125 362.003906 645.378906 350.691406 640.269531 C 339.378906 635.15625 325.925781 628.875 320.8125 626.324219 C 315.699219 623.777344 311.519531 621.675781 311.519531 621.675781 C 311.519531 621.675781 311.519531 621.371094 311.519531 620.351562 Z M 311.519531 620.351562 " fill-opacity="0.7804" fill-rule="evenodd"/><path fill="#7c0a05" d="M 887.820312 620.351562 C 887.820312 620.351562 887.820312 620.65625 887.820312 621.675781 C 886.796875 622.699219 885.894531 623.003906 885.164062 623.003906 C 884.433594 623.003906 883.835938 623.003906 883.835938 623.003906 C 883.835938 623.003906 883.835938 622.699219 883.835938 622.339844 C 883.835938 621.984375 884.722656 621.371094 887.820312 620.351562 Z M 887.820312 620.351562 " fill-opacity="0.949" fill-rule="evenodd"/><path fill="#8b120a" d="M 883.835938 623.003906 C 881.777344 626.097656 879.691406 627.292969 877.859375 627.652344 C 876.027344 628.011719 868.871094 631 861.925781 634.292969 C 854.980469 637.585938 844.222656 642.65625 838.023438 645.578125 C 831.820312 648.5 826.429688 650.890625 826.070312 650.890625 C 825.714844 650.890625 815.847656 655.378906 804.160156 660.851562 C 792.476562 666.320312 777.246094 673.492188 770.300781 676.785156 C 763.355469 680.078125 753.503906 684.550781 748.390625 686.742188 C 743.277344 688.933594 739.097656 690.726562 739.097656 690.726562 C 739.097656 689.703125 739.097656 689.398438 739.097656 689.398438 C 739.097656 689.398438 745.375 686.410156 753.039062 682.761719 C 760.699219 679.109375 793.273438 664.167969 883.835938 623.003906 Z M 883.835938 623.003906 " fill-opacity="0.7882" fill-rule="evenodd"/><path fill="#851109" d="M 739.097656 689.398438 C 739.097656 689.398438 739.097656 689.703125 739.097656 690.726562 C 730.863281 694.84375 713.535156 702.902344 695.277344 711.308594 C 677.015625 719.714844 656.699219 728.96875 650.128906 731.890625 C 643.554688 734.8125 633.089844 738.691406 626.890625 740.523438 C 617.859375 743.179688 612.679688 743.84375 600.996094 743.84375 C 592.738281 743.84375 582.644531 742.980469 577.757812 741.851562 C 573.019531 740.75 566.445312 738.96875 563.152344 737.867188 C 559.859375 736.765625 555.089844 734.984375 552.527344 733.882812 C 549.964844 732.78125 544.296875 730.097656 539.914062 727.90625 C 535.53125 725.71875 531.945312 723.925781 531.945312 723.925781 C 531.945312 723.925781 531.945312 723.617188 531.945312 722.597656 C 531.945312 722.597656 534.335938 723.792969 537.257812 725.253906 C 540.179688 726.710938 548.542969 730.296875 555.847656 733.21875 C 563.152344 736.140625 573.617188 739.421875 579.085938 740.523438 C 584.558594 741.625 594.421875 742.515625 600.996094 742.515625 C 608.523438 742.515625 616.878906 741.53125 623.570312 739.859375 C 629.414062 738.398438 642.851562 733.324219 653.449219 728.570312 C 664.042969 723.816406 687.640625 713.074219 739.097656 689.398438 Z M 739.097656 689.398438 " fill-opacity="0.8" fill-rule="evenodd"/></svg>